<svg width="47" height="51" viewBox="0 0 47 51" fill="none" xmlns="http://www.w3.org/2000/svg">
    <path
        d="M24.5282 48.1003C25.119 44.8605 25.887 42.0565 28.0391 39.8116C29.1235 38.6809 30.5203 38.2616 32.0732 38.0642C33.3391 37.9039 34.6388 37.6407 35.8034 37.1556C37.12 36.6088 37.4618 35.252 36.7318 34.0391C36.2254 33.1962 35.9089 32.4685 36.4533 31.4818C36.8795 30.7047 36.2001 30.3429 35.3983 30.1866C35.546 29.9811 35.622 29.8331 35.7359 29.7179C36.8415 28.5873 36.8288 28.4311 35.4743 27.6745C34.9342 27.3703 34.778 27.0167 35.2591 26.5398C35.3097 26.4904 35.3519 26.437 35.411 26.3959C37.2255 25.1295 36.909 24.1305 34.6261 23.3493C33.0268 22.8025 31.5499 22.1035 30.9929 20.3808C30.7735 19.7024 30.6891 18.9788 30.5498 18.2757C29.6215 13.5887 26.5495 10.8175 22.0554 9.39495C19.0045 8.42876 15.865 8.32186 12.4765 8.9098C12.4765 7.74626 12.4512 6.64849 12.5061 5.55484C12.5145 5.39038 12.8732 5.16836 13.1137 5.09847C13.9492 4.84356 14.7932 4.59276 15.6498 4.44064C16.3841 4.31318 16.6288 3.95137 16.6668 3.26064C16.7132 2.40957 16.806 1.55027 17.0001 0.723866C17.0677 0.444287 17.4896 0.0495864 17.7681 0.037252C19.2408 -0.0285315 20.7135 0.0208077 22.1905 0.000250312C22.7475 -0.00797262 23.026 0.185263 23.0766 0.748534C23.161 1.66539 23.2454 2.59458 23.4522 3.49088C23.5323 3.82802 23.8995 4.24739 24.2328 4.3584C25.3553 4.74077 26.5115 5.04502 27.6762 5.28348C27.9884 5.34927 28.4906 5.16425 28.71 4.92168C29.3134 4.25973 29.8451 3.52789 30.3431 2.78783C30.7439 2.19166 31.1406 2.16699 31.7356 2.5288C32.9256 3.24831 34.1451 3.9267 35.373 4.58453C35.9005 4.86823 36.0819 5.13136 35.7697 5.71108C35.3477 6.49637 35.0861 7.35978 34.6599 8.14096C34.3687 8.67545 34.4742 9.01258 34.8793 9.39495C35.7359 10.2008 36.5419 11.0601 37.4323 11.8248C37.6728 12.0304 38.2003 12.1209 38.5125 12.0181C39.4071 11.722 40.2722 11.3356 41.1161 10.9203C41.6394 10.6613 41.9348 10.7353 42.2175 11.2369C42.9306 12.4909 43.6649 13.7367 44.4329 14.9619C44.7916 15.5334 44.6481 15.8787 44.108 16.2241C43.4075 16.6764 42.7618 17.2109 42.0656 17.6713C41.5339 18.029 41.3524 18.3785 41.6014 19.0405C41.977 20.0272 42.2301 21.0674 42.4622 22.0994C42.5973 22.712 42.9222 22.9422 43.5383 22.9875C44.4118 23.0533 45.2768 23.2136 46.1503 23.2835C46.7537 23.3328 47.0154 23.5631 46.9985 24.1798C46.9647 25.5818 46.9732 26.9838 46.9943 28.3858C47.0027 28.9244 46.8339 29.2122 46.2347 29.2451C45.5722 29.2862 44.9097 29.4918 44.2514 29.4671C42.9391 29.4178 42.3947 30.0345 42.2344 31.2351C42.1373 31.971 41.9348 32.7234 41.6183 33.3977C41.2723 34.1378 41.517 34.5243 42.1331 34.9148C42.8378 35.363 43.4792 35.9016 44.1755 36.3621C44.6818 36.6951 44.7789 37.0405 44.454 37.5585C43.7282 38.7262 43.0108 39.9021 42.3399 41.1026C42.0107 41.6946 41.6689 41.8879 41.0064 41.5507C40.23 41.1602 39.424 40.7942 38.5885 40.5599C38.2214 40.4571 37.639 40.5681 37.3436 40.8066C36.5124 41.485 35.7992 42.2908 35.0101 43.0185C34.5544 43.4379 34.3434 43.7997 34.7021 44.4329C35.1409 45.2017 35.4743 46.0446 35.7444 46.8874C35.833 47.1588 35.6853 47.6974 35.4659 47.8372C34.1662 48.6471 32.8327 49.4036 31.4655 50.0985C31.2292 50.2177 30.6553 50.0492 30.457 49.8312C29.8325 49.1446 29.3641 48.3182 28.7227 47.6481C28.4695 47.3849 27.8872 47.241 27.4989 47.3068C26.5959 47.4589 25.7097 47.7755 24.5282 48.1003Z"
        fill="#009BF3" />
    <path
        d="M10.7222 17.9835C10.3973 17.6299 10.0386 17.3955 10.0681 17.2352C10.1188 16.9885 10.4352 16.7912 10.6378 16.5732C10.8277 16.7583 11.1442 16.9268 11.1779 17.1406C11.2117 17.3421 10.95 17.5888 10.7222 17.9835Z"
        fill="white" />
    <path
        d="M22.0297 15.2618C22.612 15.2618 23.1944 15.2577 23.7767 15.2618C24.3463 15.2659 24.5151 15.4304 24.5151 15.969C24.5194 16.6597 24.5194 17.3546 24.5151 18.0453C24.5109 18.6291 24.3126 18.8141 23.7134 18.8141C22.5951 18.8141 21.4769 18.8141 20.3586 18.81C19.8396 18.81 19.6624 18.6415 19.654 18.1399C19.6413 17.4039 19.6497 16.6638 19.6413 15.9279C19.6329 15.3523 19.4683 15.196 18.8902 15.196C18.2741 15.196 17.6538 15.2002 17.0377 15.196C16.5566 15.1919 16.3372 14.9699 16.333 14.5012C16.3288 14.1723 16.3246 13.8434 16.333 13.5145C16.3414 13.0786 16.544 12.8361 16.9786 12.8196C17.6411 12.7908 18.3079 12.7867 18.9704 12.8073C19.405 12.8196 19.5907 13.0416 19.5949 13.461C19.5991 13.8351 19.5907 14.2093 19.5991 14.5834C19.6118 15.0686 19.7932 15.2413 20.2785 15.2413C20.8608 15.2413 21.4431 15.2413 22.0255 15.2413C22.0297 15.2536 22.0297 15.2577 22.0297 15.2618Z"
        fill="url(#paint0_linear_5688_1265)" />
    <path
        d="M15.2797 32.1188C15.862 32.1188 16.4444 32.1147 17.0267 32.1188C17.5963 32.1229 17.7651 32.2873 17.7651 32.8259C17.7694 33.5167 17.7694 34.2115 17.7651 34.9022C17.7609 35.4861 17.5626 35.6711 16.9634 35.6711C15.8451 35.6711 14.7269 35.6711 13.6086 35.667C13.0896 35.667 12.9124 35.4984 12.904 34.9968C12.8913 34.2608 12.8997 33.5208 12.8913 32.7848C12.8829 32.2092 12.7183 32.053 12.1402 32.053C11.5241 32.053 10.9038 32.0571 10.2877 32.053C9.80664 32.0489 9.58722 31.8269 9.583 31.3581C9.57878 31.0292 9.57456 30.7003 9.583 30.3714C9.59144 29.9356 9.794 29.693 10.2286 29.6765C10.8911 29.6478 11.5579 29.6437 12.2204 29.6642C12.655 29.6766 12.8407 29.8986 12.8449 30.3179C12.8491 30.6921 12.8407 31.0662 12.8491 31.4404C12.8618 31.9255 13.0432 32.0982 13.5285 32.0982C14.1108 32.0982 14.6931 32.0982 15.2755 32.0982C15.2797 32.1105 15.2797 32.1147 15.2797 32.1188Z"
        fill="url(#paint1_linear_5688_1265)" />
    <path
        d="M15.2968 23.2829C14.6639 23.2829 14.0309 23.2705 13.3979 23.287C12.7523 23.2993 12.3852 23.6488 12.3683 24.2779C12.3514 25.0837 12.3683 25.8896 12.3599 26.6913C12.3557 27.3697 12.0898 27.6205 11.402 27.6205C10.4863 27.6205 9.57484 27.6287 8.65915 27.6205C8.02619 27.6164 7.79832 27.3943 7.7941 26.7859C7.78566 25.9142 7.78566 25.0385 7.78988 24.1668C7.7941 23.62 8.05151 23.361 8.63806 23.3487C9.55375 23.3363 10.4652 23.3446 11.3809 23.3404C12.1362 23.3363 12.4316 23.0568 12.4401 22.3167C12.4485 21.5643 12.4401 20.8078 12.4485 20.0554C12.4569 19.3318 12.8367 18.933 13.5836 18.9206C14.8495 18.9001 16.1155 18.9083 17.3814 18.9165C17.9004 18.9206 18.3266 19.1837 18.3646 19.673C18.4406 20.6022 18.4575 21.5478 18.3857 22.477C18.3435 23.0074 17.8625 23.2623 17.2 23.2747C16.5628 23.2952 15.9298 23.2829 15.2968 23.2829Z"
        fill="url(#paint2_linear_5688_1265)" />
    <path
        d="M22.3852 24.7472C22.0729 24.7472 21.7607 24.7554 21.4484 24.7431C21.0644 24.7308 20.8281 24.554 20.8239 24.1552C20.8154 23.5302 20.807 22.9053 20.8028 22.2845C20.7986 21.8445 21.0433 21.6431 21.4822 21.6431C22.0898 21.6431 22.6975 21.6431 23.3051 21.6513C23.7355 21.6554 23.976 21.8486 23.9718 22.2968C23.9634 22.8724 23.9803 23.448 23.9676 24.0277C23.9592 24.5745 23.7819 24.739 23.2249 24.7472C22.9464 24.7554 22.6637 24.7513 22.3852 24.7472Z"
        fill="url(#paint3_linear_5688_1265)" />
    <path
        d="M5.64189 16.495C6.12716 16.495 6.60822 16.4868 7.09349 16.4991C7.5872 16.5114 7.86995 16.7787 7.87839 17.2597C7.89105 17.8764 7.87836 18.4932 7.88258 19.1058C7.8868 19.6238 8.08938 19.817 8.61685 19.817C9.31733 19.817 10.0136 19.8253 10.7141 19.817C11.1993 19.8129 11.3723 19.6444 11.3766 19.1757C11.3808 18.5055 11.3808 17.8394 11.3808 17.1693C11.3808 16.7499 11.1782 16.5525 10.7352 16.5443C10.0347 16.532 9.33842 16.5402 8.63794 16.5361C8.05983 16.532 7.83619 16.3182 7.82775 15.7549C7.81931 15.1793 7.82775 14.6037 7.82353 14.024C7.81509 13.4689 7.52815 13.1647 6.95848 13.1565C5.99215 13.14 5.0216 13.1482 4.05527 13.1565C3.65862 13.1606 3.33368 13.362 3.29992 13.7362C3.24084 14.4475 3.22819 15.1711 3.28305 15.8824C3.31259 16.2894 3.68391 16.4826 4.19028 16.4909C4.67556 16.5032 5.15661 16.495 5.64189 16.495Z"
        fill="url(#paint4_linear_5688_1265)" />
    <path
        d="M18.6033 29.1258C18.2446 29.1258 17.8902 29.134 17.5315 29.1216C17.0884 29.1093 16.8225 28.9037 16.8141 28.4474C16.8057 27.732 16.7972 27.0166 16.793 26.3053C16.7888 25.7996 17.0715 25.5734 17.5694 25.5693C18.2657 25.5693 18.962 25.5693 19.6582 25.5776C20.1519 25.5817 20.4262 25.8037 20.4178 26.3176C20.4051 26.9755 20.4262 27.6374 20.4136 28.2952C20.4051 28.9202 20.2026 29.1093 19.5612 29.1216C19.2447 29.134 18.924 29.1258 18.6033 29.1258Z"
        fill="url(#paint5_linear_5688_1265)" />
    <path
        d="M4.25758 23.781C3.8989 23.781 3.54445 23.7893 3.18577 23.7769C2.7427 23.7646 2.47685 23.559 2.46841 23.1026C2.45997 22.3872 2.45153 21.6718 2.44731 20.9606C2.44309 20.4548 2.7258 20.2287 3.22374 20.2246C3.92 20.2246 4.61627 20.2246 5.31253 20.2328C5.80624 20.2369 6.08052 20.459 6.07208 20.9729C6.05942 21.6307 6.08052 22.2927 6.06786 22.9505C6.05942 23.5755 5.85689 23.7646 5.21548 23.7769C4.899 23.7893 4.57829 23.781 4.25758 23.781Z"
        fill="url(#paint6_linear_5688_1265)" />
    <path
        d="M11.8533 14.3245C11.4946 14.3245 11.1402 14.3327 10.7815 14.3204C10.3384 14.308 10.0725 14.1025 10.0641 13.6461C10.0557 12.9307 10.0472 12.2153 10.043 11.504C10.0388 10.9983 10.3215 10.7722 10.8194 10.7681C11.5157 10.7681 12.212 10.7681 12.9082 10.7763C13.4019 10.7804 13.6762 11.0024 13.6678 11.5164C13.6551 12.1742 13.6762 12.8361 13.6636 13.494C13.6551 14.1189 13.4526 14.308 12.8112 14.3204C12.4947 14.3327 12.174 14.3245 11.8533 14.3245Z"
        fill="url(#paint7_linear_5688_1265)" />
    <path
        d="M22.4206 32.5589C22.1041 32.5589 21.7834 32.5671 21.4669 32.5548C21.0745 32.5425 20.834 32.3616 20.8298 31.9545C20.8213 31.3172 20.8129 30.6841 20.8086 30.0468C20.8044 29.5986 21.0534 29.3931 21.5007 29.3931C22.121 29.3931 22.7413 29.3931 23.3616 29.4013C23.8005 29.4054 24.0452 29.6028 24.041 30.0591C24.0326 30.6471 24.0494 31.235 24.0368 31.8229C24.0283 32.378 23.8511 32.5466 23.2772 32.5589C22.9903 32.5671 22.7075 32.563 22.4206 32.5589Z"
        fill="url(#paint8_linear_5688_1265)" />
    <path
        d="M3.0087 28.0403C2.77239 28.0403 2.53609 28.0444 2.30401 28.0403C2.01284 28.0321 1.83561 27.8964 1.83139 27.5963C1.82295 27.1235 1.81874 26.6547 1.81452 26.1819C1.8103 25.8489 1.99596 25.6968 2.3251 25.6968C2.78505 25.6968 3.24079 25.6968 3.70075 25.7009C4.02567 25.705 4.20712 25.8489 4.2029 26.1902C4.19446 26.626 4.20712 27.0618 4.2029 27.4935C4.19446 27.9046 4.06364 28.028 3.64167 28.0362C3.43068 28.0444 3.21969 28.0403 3.0087 28.0403Z"
        fill="url(#paint9_linear_5688_1265)" />
    <path
        d="M6.15079 31.7407C5.95246 31.7407 5.75414 31.7448 5.55582 31.7407C5.31107 31.7324 5.16338 31.6214 5.15916 31.3665C5.15494 30.9718 5.1507 30.5771 5.14648 30.1824C5.14648 29.9028 5.2984 29.7754 5.57691 29.7754C5.96091 29.7754 6.3449 29.7754 6.73312 29.7795C7.00741 29.7836 7.15932 29.9028 7.1551 30.1906C7.15088 30.5566 7.15932 30.9225 7.1551 31.2843C7.15088 31.6297 7.03695 31.7324 6.68249 31.7407C6.50526 31.7407 6.32802 31.7407 6.15079 31.7407Z"
        fill="#F20900" />
    <path
        d="M1.25758 19.817C1.00861 19.817 0.759638 19.8211 0.514892 19.817C0.206848 19.8088 0.0211813 19.6649 0.0169616 19.3483C0.00852203 18.8508 0.00428577 18.3574 6.59982e-05 17.8599C-0.00415377 17.5104 0.194184 17.3501 0.535985 17.3501C1.01704 17.3501 1.50231 17.3501 1.98336 17.3542C2.32517 17.3583 2.51927 17.5104 2.51084 17.8681C2.5024 18.3245 2.51505 18.785 2.51084 19.2414C2.5024 19.6731 2.36316 19.8046 1.92008 19.8129C1.70065 19.8211 1.477 19.817 1.25758 19.817Z"
        fill="url(#paint10_linear_5688_1265)" />
    <defs>
        <linearGradient id="paint0_linear_5688_1265" x1="16.6916" y1="13.2804" x2="22.9773"
            y2="18.9637" gradientUnits="userSpaceOnUse">
            <stop stop-color="#FFC444" />
            <stop offset="1" stop-color="#F2994A" />
        </linearGradient>
        <linearGradient id="paint1_linear_5688_1265" x1="9.80142" y1="29.993" x2="17.6151"
            y2="36.0076" gradientUnits="userSpaceOnUse">
            <stop stop-color="#FF928E" />
            <stop offset="1" stop-color="#FB6FBB" />
        </linearGradient>
        <linearGradient id="paint2_linear_5688_1265" x1="18.3782" y1="18.8011" x2="7.89467"
            y2="28.0237" gradientUnits="userSpaceOnUse">
            <stop stop-color="#D600F9" />
            <stop offset="1" stop-color="#C00694" />
        </linearGradient>
        <linearGradient id="paint3_linear_5688_1265" x1="22.3876" y1="21.6431" x2="22.3876"
            y2="24.752" gradientUnits="userSpaceOnUse">
            <stop stop-color="#94D2FF" />
            <stop offset="1" stop-color="#3BA5F3" />
        </linearGradient>
        <linearGradient id="paint4_linear_5688_1265" x1="3.3693" y1="13.1309" x2="11.1597"
            y2="19.8964" gradientUnits="userSpaceOnUse">
            <stop stop-color="#2554FD" />
            <stop offset="1" stop-color="#161CD8" />
        </linearGradient>
        <linearGradient id="paint5_linear_5688_1265" x1="18.6055" y1="25.5693" x2="18.6055"
            y2="29.1284" gradientUnits="userSpaceOnUse">
            <stop stop-color="#1824DD" />
            <stop offset="1" stop-color="#2E12BC" />
        </linearGradient>
        <linearGradient id="paint6_linear_5688_1265" x1="4.25977" y1="20.2246" x2="4.25977"
            y2="23.7837" gradientUnits="userSpaceOnUse">
            <stop stop-color="#F36F56" />
            <stop offset="1" stop-color="#F0401F" />
        </linearGradient>
        <linearGradient id="paint7_linear_5688_1265" x1="11.8555" y1="10.7681" x2="11.8555"
            y2="14.3272" gradientUnits="userSpaceOnUse">
            <stop stop-color="#4ADAFD" />
            <stop offset="1" stop-color="#06C2DC" />
        </linearGradient>
        <linearGradient id="paint8_linear_5688_1265" x1="22.4251" y1="29.3931" x2="22.4251"
            y2="32.5636" gradientUnits="userSpaceOnUse">
            <stop stop-color="#F2994A" />
            <stop offset="1" stop-color="#FF7A03" />
        </linearGradient>
        <linearGradient id="paint9_linear_5688_1265" x1="3.00912" y1="25.6968" x2="3.00912"
            y2="28.0421" gradientUnits="userSpaceOnUse">
            <stop stop-color="#FFC444" />
            <stop offset="1" stop-color="#F2994A" />
        </linearGradient>
        <linearGradient id="paint10_linear_5688_1265" x1="1.25586" y1="17.3501" x2="1.25586"
            y2="19.8188" gradientUnits="userSpaceOnUse">
            <stop stop-color="#F36F56" />
            <stop offset="1" stop-color="#F0401F" />
        </linearGradient>
    </defs>
</svg>
    