<svg width="19" height="19" viewBox="0 0 19 19" fill="none" xmlns="http://www.w3.org/2000/svg">
    <path
        d="M7.12435 1.5835H14.2493C15.1202 1.5835 15.8327 2.296 15.8327 3.16683V15.8335C15.8327 16.7043 15.1202 17.4168 14.2493 17.4168H7.12435C6.25352 17.4168 5.54102 16.7043 5.54102 15.8335V15.0418C5.54102 14.8319 5.62442 14.6305 5.77289 14.482C5.92136 14.3336 6.12272 14.2502 6.33268 14.2502C6.54265 14.2502 6.74401 14.3336 6.89248 14.482C7.04094 14.6305 7.12435 14.8319 7.12435 15.0418V15.8335H14.2493V3.16683H7.12435V3.9585C7.12435 4.16846 7.04094 4.36982 6.89248 4.51829C6.74401 4.66675 6.54265 4.75016 6.33268 4.75016C6.12272 4.75016 5.92136 4.66675 5.77289 4.51829C5.62442 4.36982 5.54102 4.16846 5.54102 3.9585V3.16683C5.54102 2.296 6.25352 1.5835 7.12435 1.5835Z"
        fill="#009BF3" />
    <path
        d="M8.54604 12.9001C8.85479 13.2088 9.35354 13.2088 9.66229 12.9001L12.5028 10.0596C12.6512 9.9111 12.7346 9.70978 12.7346 9.49986C12.7346 9.28993 12.6512 9.08861 12.5028 8.94015L9.66229 6.09965C9.5118 5.96363 9.31481 5.89064 9.11203 5.89576C8.90925 5.90088 8.71619 5.98372 8.57275 6.12715C8.42932 6.27058 8.34648 6.46364 8.34136 6.66643C8.33624 6.86921 8.40924 7.0662 8.54525 7.21669L10.0304 8.70819H3.16667C2.9567 8.70819 2.75534 8.7916 2.60687 8.94006C2.45841 9.08853 2.375 9.28989 2.375 9.49986C2.375 9.70982 2.45841 9.91118 2.60687 10.0596C2.75534 10.2081 2.9567 10.2915 3.16667 10.2915H10.0304L8.54525 11.783C8.39747 11.9314 8.31457 12.1323 8.31471 12.3417C8.31486 12.5511 8.39805 12.7519 8.54604 12.9001Z"
        fill="#009BF3" />
</svg>
    