<svg width="20" height="20" viewBox="0 0 20 20" fill="none" xmlns="http://www.w3.org/2000/svg">
    <path
        d="M8.54206 1.6665C9.84869 1.66636 11.1283 2.03857 12.231 2.73953C13.3337 3.44049 14.2138 4.44117 14.7682 5.62435C15.3227 6.80752 15.5284 8.12419 15.3614 9.42011C15.1945 10.716 14.6616 11.9375 13.8254 12.9415L18.5671 17.6832C18.6493 17.7596 18.7095 17.8567 18.7412 17.9644C18.7728 18.0721 18.7749 18.1864 18.7471 18.2952C18.7193 18.4039 18.6626 18.5032 18.5831 18.5825C18.5036 18.6618 18.4042 18.7181 18.2954 18.7457C18.1867 18.7734 18.0726 18.7714 17.965 18.7399C17.8574 18.7084 17.7602 18.6485 17.6837 18.5665L12.9421 13.8248C12.0936 14.5313 11.0874 15.023 10.0087 15.2584C8.93005 15.4938 7.81052 15.466 6.74486 15.1772C5.67921 14.8884 4.69877 14.3473 3.8865 13.5995C3.07422 12.8517 2.45399 11.9192 2.07828 10.881C1.70256 9.84283 1.58242 8.72942 1.728 7.63497C1.87358 6.54053 2.28061 5.49724 2.91466 4.59337C3.54871 3.68949 4.39112 2.95162 5.37064 2.44216C6.35016 1.9327 7.43798 1.66665 8.54206 1.6665ZM2.91706 8.5415C2.91706 9.28019 3.06256 10.0116 3.34524 10.6941C3.62792 11.3766 4.04226 11.9966 4.56459 12.519C5.08692 13.0413 5.70701 13.4556 6.38947 13.7383C7.07192 14.021 7.80338 14.1665 8.54206 14.1665C9.28075 14.1665 10.0122 14.021 10.6947 13.7383C11.3771 13.4556 11.9972 13.0413 12.5195 12.519C13.0419 11.9966 13.4562 11.3766 13.7389 10.6941C14.0216 10.0116 14.1671 9.28019 14.1671 8.5415C14.1671 7.04966 13.5744 5.61892 12.5195 4.56403C11.4646 3.50914 10.0339 2.9165 8.54206 2.9165C7.05022 2.9165 5.61948 3.50914 4.56459 4.56403C3.50969 5.61892 2.91706 7.04966 2.91706 8.5415Z"
        fill="#282828" />
</svg>
    