<svg clip-rule="evenodd" fill-rule="evenodd" stroke-linejoin="round" stroke-miterlimit="2" viewBox="0 0 512 512" xmlns="http://www.w3.org/2000/svg"><path d="m446.995 320.908c2.86-.755 5.028-1.844 6.606-3.595 2.143-2.377 2.789-5.819 3.324-10.387.798-6.804.765-15.504.765-26.627v-37.83c0-.137-.299-15.058-13.979-27.095-10.342-9.1-27.723-16.175-56.451-16.175-3.472 0-6.775.103-9.936.301-5.509.344-10.26-3.849-10.605-9.357-.344-5.509 3.849-10.26 9.357-10.605 3.559-.222 7.276-.339 11.184-.339 35.618 0 56.841 9.878 69.663 21.16 21.067 18.537 20.767 41.899 20.767 42.11v37.83c0 14.749-.09 25.636-1.613 33.68-1.358 7.169-3.85 12.542-7.621 16.726-4.545 5.041-11.304 8.565-21.891 10.535-.293 5.023-.78 9.147-1.586 12.535-1.869 7.862-5.334 12.862-10.527 16.329-6.434 4.294-17.021 5.834-34.892 5.94-2.807.017-5.822.017-9.06.017-5.519 0-10-4.481-10-10s4.481-10 10-10c3.195 0 6.17 0 8.941-.017 7.013-.041 12.625-.169 17.113-.732 2.907-.366 5.159-.752 6.794-1.843 1.999-1.334 2.237-3.84 2.737-7.395.486-3.459.715-7.593.822-12.531-.005-.043-.009-.087-.013-.131-.076-.803-.054-1.593.056-2.358.059-4.298.05-9.158.05-14.656v-54.337c0-5.519 4.481-10 10-10s10 4.481 10 10v54.337c0 1.548-.001 3.051-.005 4.51zm-381.585 20.315c-10.532-1.974-17.265-5.492-21.796-10.518-3.771-4.184-6.263-9.557-7.621-16.726-1.523-8.044-1.613-18.931-1.613-33.68v-37.83c0-.211-.3-23.573 20.767-42.11 12.823-11.282 34.045-21.16 69.663-21.16 3.908 0 7.625.117 11.184.339 5.508.345 9.701 5.096 9.357 10.605-.345 5.508-5.096 9.701-10.605 9.357-3.161-.198-6.464-.301-9.936-.301-28.728 0-46.109 7.075-56.451 16.175-13.68 12.037-13.979 26.958-13.979 27.095v37.83c0 11.123-.033 19.823.765 26.627.535 4.568 1.181 8.01 3.324 10.387 1.565 1.736 3.71 2.822 6.534 3.576-.002-1.453-.003-2.949-.003-4.491v-54.337c0-5.519 4.481-10 10-10s10 4.481 10 10v54.337c0 5.312-.005 10.035.05 14.233.168.896.216 1.829.126 2.781-.017.184-.039.367-.066.547.091 3.837.258 7.189.563 10.116.432 4.151.712 7.098 2.439 8.943 1.573 1.681 4.144 1.917 7.684 2.337 6.252.742 14.589.706 25.704.706 5.519 0 10 4.481 10 10s-4.481 10-10 10c-14.831 0-25.208-.102-32.475-1.528-7.045-1.382-11.918-4.007-15.512-7.845-3.46-3.695-5.867-8.724-7.113-15.967-.469-2.729-.782-5.874-.99-9.498zm321.85-171.444c-26.72 0-48.38-21.66-48.38-48.379 0-26.72 21.66-48.381 48.38-48.381s48.38 21.661 48.38 48.381c0 26.719-21.66 48.379-48.38 48.379zm0-20c15.674 0 28.38-12.706 28.38-28.379 0-15.674-12.706-28.381-28.38-28.381s-28.38 12.707-28.38 28.381c0 15.673 12.706 28.379 28.38 28.379zm-262.45 20c-26.72 0-48.38-21.66-48.38-48.379 0-26.72 21.66-48.381 48.38-48.381s48.38 21.661 48.38 48.381c0 26.719-21.66 48.379-48.38 48.379zm0-20c15.674 0 28.38-12.706 28.38-28.379 0-15.674-12.706-28.381-28.38-28.381s-28.38 12.707-28.38 28.381c0 15.673 12.706 28.379 28.38 28.379zm133.1 2.841c-28.89 0-52.31-23.42-52.31-52.31s23.42-52.31 52.31-52.31 52.31 23.42 52.31 52.31-23.42 52.31-52.31 52.31zm0-20c17.844 0 32.31-14.466 32.31-32.31s-14.466-32.31-32.31-32.31-32.31 14.466-32.31 32.31 14.466 32.31 32.31 32.31zm98.68 122.036c0 5.519-4.481 10-10 10s-10-4.481-10-10v-20.855c0-.155-.299-17.042-15.761-30.648-11.53-10.147-30.891-18.092-62.919-18.092s-51.389 7.945-62.919 18.092c-15.462 13.606-15.761 30.493-15.761 30.648v20.855c0 5.519-4.481 10-10 10s-10-4.481-10-10v-20.855c0-.229-.3-25.557 22.549-45.663 14.01-12.329 37.213-23.077 76.131-23.077s62.121 10.748 76.131 23.077c22.849 20.106 22.549 45.434 22.549 45.663zm-100.59-2.656c59.055 0 107 47.945 107 107s-47.945 107-107 107-107-47.945-107-107 47.945-107 107-107zm0 20c-48.017 0-87 38.983-87 87s38.983 87 87 87 87-38.983 87-87-38.983-87-87-87zm1.5 34c6.899 0 12.5 5.601 12.5 12.5s-5.601 12.5-12.5 12.5-12.5-5.601-12.5-12.5 5.601-12.5 12.5-12.5zm12.5 51.5v38c0 6.899-5.601 12.5-12.5 12.5s-12.5-5.601-12.5-12.5v-38c0-6.899 5.601-12.5 12.5-12.5s12.5 5.601 12.5 12.5z"/></svg>