<svg width="50" height="50" viewBox="0 0 50 50" fill="none" xmlns="http://www.w3.org/2000/svg">
<g clip-path="url(#clip0_5953_1327)">
<path d="M23.177 49.9998C22.032 49.7878 20.881 49.6003 19.7455 49.3468C19.4455 49.2798 19.122 49.0648 18.9255 48.8228C17.0955 46.5653 15.643 44.0778 14.5205 41.3958C14.458 41.2468 14.4005 41.0963 14.3465 40.9443C14.3345 40.9098 14.3485 40.8663 14.353 40.7773C17.582 40.7773 20.8125 40.7773 24.146 40.7773C24.146 43.8628 24.146 46.9313 24.146 49.9998C23.823 49.9998 23.5 49.9998 23.177 49.9998Z" fill="#3E78B2"/>
<path d="M25.8398 49.9998C25.8488 47.2078 25.8578 44.4153 25.8663 41.6233C25.8673 41.3628 25.8663 41.1023 25.8663 40.7798C29.1408 40.7798 32.3733 40.7798 35.6863 40.7798C35.6068 40.9973 35.5423 41.1983 35.4613 41.3918C34.3433 44.0763 32.8888 46.5633 31.0618 48.8238C30.8653 49.0673 30.5423 49.2863 30.2418 49.3533C29.1053 49.6053 27.9543 49.7903 26.8083 50.0003C26.4858 49.9998 26.1628 49.9998 25.8398 49.9998Z" fill="#3E78B2"/>
<path d="M3.43164 29.2285C5.42614 29.242 7.42114 29.2555 9.41564 29.2685C9.65164 29.27 9.88714 29.2685 10.1776 29.2685C10.2561 32.585 10.7916 35.757 11.7401 38.9415C10.1726 38.9415 8.68364 38.879 7.20414 38.9655C6.35764 39.015 5.96864 38.699 5.62964 37.968C4.54064 35.62 3.79314 33.187 3.54064 30.6055C3.52314 30.428 3.46864 30.254 3.43164 30.078C3.43164 29.7955 3.43164 29.512 3.43164 29.2285Z" fill="#3E78B2"/>
<path d="M37.1523 9.19897C39.4343 9.19897 41.6678 9.19897 43.9448 9.19897C43.9448 15.2915 43.9448 21.365 43.9448 27.4755C41.6763 27.4755 39.4308 27.4755 37.1523 27.4755C37.1523 21.384 37.1523 15.326 37.1523 9.19897Z" fill="#3E78B2"/>
<path d="M16.4395 10.9275C18.7025 10.9275 20.9155 10.9275 23.1775 10.9275C23.1775 16.442 23.1775 21.93 23.1775 27.4655C20.949 27.4655 18.7215 27.4655 16.4395 27.4655C16.4395 21.9805 16.4395 16.477 16.4395 10.9275Z" fill="#3E78B2"/>
<path d="M11.9855 29.3069C16.0145 29.3069 20.017 29.3069 24.069 29.3069C24.069 32.5039 24.069 35.6834 24.069 38.9059C23.8895 38.9179 23.715 38.9404 23.5405 38.9404C20.415 38.9424 17.2895 38.9319 14.164 38.9529C13.719 38.9559 13.548 38.8139 13.4205 38.3929C12.561 35.5539 12.0785 32.6544 11.9575 29.6924C11.9535 29.5764 11.974 29.4594 11.9855 29.3069Z" fill="#3E78B2"/>
<path d="M38.0287 29.3125C37.9472 32.627 37.4027 35.811 36.3817 38.9195C32.8802 38.9195 29.4167 38.9195 25.9102 38.9195C25.9102 35.716 25.9102 32.535 25.9102 29.3125C29.9512 29.3125 33.9692 29.3125 38.0287 29.3125Z" fill="#3E78B2"/>
<path d="M19.6605 4.06741C16.494 6.44041 13.376 8.77741 10.258 11.1139C10.145 11.1984 10.0335 11.2864 9.91697 11.3654C9.39497 11.7194 8.89397 11.6674 8.58447 11.2294C8.28647 10.8084 8.36797 10.3199 8.84897 9.95841C12.2705 7.38591 15.699 4.82291 19.124 2.25591C19.656 1.85691 20.084 2.05391 20.521 2.44641C23.527 5.14641 26.5415 7.83741 29.5535 10.5304C29.7635 10.7179 29.976 10.9029 30.2355 11.1314C33.3935 8.05091 36.535 4.98641 39.6765 1.92141C39.666 1.87141 39.655 1.82091 39.6445 1.77091C39.2545 1.77091 38.8635 1.78591 38.4745 1.76741C37.889 1.73991 37.514 1.38691 37.509 0.888912C37.504 0.372912 37.9145 -0.00908838 38.5235 -8.83758e-05C39.613 0.0169116 40.7025 0.0489116 41.7905 0.0979116C42.463 0.127912 42.7765 0.461412 42.781 1.14291C42.788 2.19491 42.7805 3.24741 42.76 4.29941C42.747 4.97441 42.3905 5.37141 41.853 5.35991C41.3135 5.34841 40.9965 4.94891 40.989 4.26441C40.9855 3.94291 40.9885 3.62141 40.9885 3.15191C40.737 3.37941 40.5645 3.52541 40.4035 3.68241C37.336 6.67241 34.27 9.66441 31.2035 12.6554C30.4125 13.4274 30.153 13.4359 29.322 12.6939C26.2635 9.96191 23.207 7.22691 20.1495 4.49341C20.0005 4.36091 19.8485 4.23141 19.6605 4.06741Z" fill="#3E78B2"/>
<path d="M12.8176 27.482C10.5411 27.482 8.30861 27.482 6.03711 27.482C6.03711 24.2015 6.03711 20.951 6.03711 17.645C8.27561 17.645 10.5216 17.645 12.8176 17.645C12.8176 20.8965 12.8176 24.161 12.8176 27.482Z" fill="#3E78B2"/>
<path d="M38.248 38.9405C39.184 35.773 39.728 32.6005 39.804 29.3145C42.055 29.3145 44.2625 29.3145 46.6115 29.3145C46.431 30.5365 46.296 31.7325 46.0715 32.9115C45.695 34.889 44.989 36.7565 44.035 38.527C43.944 38.6955 43.7445 38.9205 43.592 38.923C41.8395 38.9505 40.0865 38.9405 38.248 38.9405Z" fill="#3E78B2"/>
<path d="M26.7988 27.4643C26.7988 24.6668 26.7988 21.8873 26.7988 19.0713C29.0523 19.0713 31.2813 19.0713 33.5543 19.0713C33.5543 21.8553 33.5543 24.6358 33.5543 27.4643C31.3248 27.4643 29.0818 27.4643 26.7988 27.4643Z" fill="#3E78B2"/>
<path d="M7.27539 40.728C8.68339 40.728 9.94489 40.728 11.2059 40.728C12.3299 40.728 12.2694 40.758 12.7789 41.782C13.7469 43.7285 14.7909 45.637 15.8054 47.56C15.8774 47.697 15.9639 47.8265 16.1319 48.1055C12.4699 46.4035 9.61539 43.9995 7.27539 40.728Z" fill="#3E78B2"/>
<path d="M34.0879 48.0053C35.1024 45.9963 36.1559 43.9798 37.1424 41.9303C37.7104 40.7508 37.6614 40.7273 38.9819 40.7273C40.1694 40.7273 41.3564 40.7273 42.7084 40.7273C40.3824 44.0003 37.5159 46.3943 34.0879 48.0053Z" fill="#3E78B2"/>
</g>
<defs>
<clipPath id="clip0_5953_1327">
<rect width="50" height="50" fill="white"/>
</clipPath>
</defs>
</svg>
