<svg width="50" height="50" viewBox="0 0 50 50" fill="none" xmlns="http://www.w3.org/2000/svg">
<g clip-path="url(#clip0_5953_1309)">
<path d="M0.115234 17.2815C1.07823 16.9035 2.04823 16.5415 2.99873 16.135C3.19773 16.05 3.41523 15.825 3.47223 15.622C3.88873 14.134 4.47523 12.7235 5.23323 11.377C5.33623 11.1935 5.33773 10.8805 5.25673 10.679C4.92273 9.84702 4.54623 9.03152 4.16923 8.21752C4.05473 7.97002 4.04323 7.80102 4.26323 7.58602C5.36373 6.51202 6.45073 5.42302 7.52623 4.32402C7.73423 4.11152 7.89823 4.09702 8.15573 4.21702C8.98423 4.60402 9.81723 4.98252 10.6647 5.32552C10.8512 5.40102 11.1447 5.39252 11.3172 5.29502C12.6617 4.53402 14.0712 3.94502 15.5602 3.53152C15.7637 3.47502 15.9907 3.25902 16.0757 3.06052C16.4287 2.23652 16.7427 1.39502 17.0467 0.551518C17.1502 0.264518 17.2902 0.156518 17.6067 0.160518C19.1102 0.178518 20.6137 0.179518 22.1172 0.160518C22.4462 0.156518 22.6072 0.254018 22.7177 0.565518C23.0182 1.41052 23.3357 2.25052 23.6847 3.07602C23.7632 3.26152 23.9752 3.46302 24.1657 3.51652C25.6687 3.94002 27.0997 4.52252 28.4562 5.29952C28.6267 5.39752 28.9227 5.40052 29.1102 5.32402C29.9407 4.98652 30.7567 4.61152 31.5702 4.23302C31.8337 4.11052 32.0137 4.09402 32.2452 4.33252C33.3047 5.42352 34.3812 6.49752 35.4702 7.55952C35.7007 7.78402 35.7112 7.96102 35.5827 8.23452C35.1947 9.06252 34.8182 9.89652 34.4722 10.7425C34.4022 10.914 34.4152 11.187 34.5067 11.347C35.2822 12.704 35.8667 14.135 36.2937 15.637C36.3477 15.828 36.5447 16.043 36.7292 16.121C37.5707 16.477 38.4342 16.7805 39.2822 17.122C39.4192 17.177 39.6177 17.3255 39.6197 17.434C39.6437 18.6375 39.6347 19.842 39.6347 21.099C38.2682 21.099 36.9592 21.0905 35.6502 21.104C35.2382 21.108 34.8157 21.1215 34.4177 21.214C32.7982 21.5905 31.6587 22.984 31.6392 24.648C31.6292 25.524 31.6657 26.409 31.7907 27.2745C31.8537 27.7115 32.3107 28.1125 32.3142 28.5315C32.3172 28.9305 31.8702 29.314 31.7847 29.7375C31.6562 30.373 31.6467 31.037 31.6347 31.69C31.6292 32.002 31.5302 32.1345 31.2377 32.2365C29.5367 32.827 28.1032 33.8155 26.9287 35.184C26.7892 35.3465 26.5942 35.4885 26.3957 35.5675C25.8037 35.8035 25.2107 36.071 24.5917 36.1975C23.9897 36.3205 23.6852 36.6075 23.5107 37.184C23.2912 37.9085 22.9637 38.5995 22.7132 39.3155C22.6092 39.612 22.4522 39.699 22.1472 39.696C20.6267 39.681 19.1057 39.681 17.5847 39.6965C17.2927 39.6995 17.1562 39.6035 17.0582 39.3345C16.7457 38.4755 16.4247 37.6185 16.0677 36.777C15.9897 36.5935 15.7722 36.399 15.5807 36.3445C14.0787 35.9175 12.6482 35.3315 11.2912 34.556C11.1322 34.465 10.8587 34.455 10.6867 34.5255C9.82473 34.8785 8.98523 35.285 8.12223 35.635C7.96773 35.6975 7.67473 35.651 7.55873 35.5385C6.44173 34.4565 5.34123 33.357 4.25973 32.2395C4.14923 32.1255 4.11473 31.8305 4.17873 31.6735C4.51623 30.843 4.88823 30.0255 5.26673 29.2125C5.39423 28.939 5.40023 28.7235 5.23673 28.4495C4.45323 27.139 3.88923 25.734 3.47873 24.262C3.42123 24.056 3.21373 23.816 3.01773 23.7375C2.06123 23.3555 1.08473 23.0225 0.115734 22.6725C0.115234 20.8765 0.115234 19.079 0.115234 17.2815ZM32.1557 19.9465C32.1632 13.1855 26.6692 7.67152 19.9062 7.65252C13.1532 7.63352 7.62773 13.129 7.59924 19.8925C7.57073 26.6625 13.0987 32.208 19.8777 32.2105C26.6367 32.213 32.1482 26.7075 32.1557 19.9465Z" fill="#3E78B2"/>
<path d="M33.6136 49.9499C33.1966 49.8524 32.7766 49.768 32.3636 49.6565C28.4216 48.591 25.9316 44.979 26.2546 40.8015C26.5466 37.024 29.7191 33.8154 33.5981 33.3744C37.9921 32.8749 42.1561 36.0545 42.7361 40.351C43.3661 45.017 40.3261 49.159 35.7646 49.8545C35.6676 49.8695 35.5751 49.9174 35.4806 49.9499C34.8581 49.9499 34.2356 49.9499 33.6136 49.9499ZM32.9786 39.3484C33.0991 39.2039 33.2866 38.8369 33.5866 38.6464C34.4951 38.0684 35.6141 38.4199 36.1906 39.4024C36.4776 39.8914 36.9301 40.0625 37.3541 39.842C37.7826 39.619 37.9046 39.1484 37.6546 38.6309C37.2781 37.8509 36.6931 37.2809 35.8751 36.9879C35.5391 36.8679 35.3361 36.7484 35.3376 36.3279C35.3386 35.8704 34.9406 35.5494 34.5226 35.5509C34.1121 35.5524 33.7081 35.861 33.7296 36.2795C33.7541 36.755 33.5076 36.8704 33.1421 37.0129C31.9676 37.4719 31.3016 38.4615 31.3186 39.642C31.3351 40.7935 31.9706 41.6494 33.2011 42.0954C33.6846 42.2704 34.2081 42.3314 34.6991 42.4894C35.1366 42.6304 35.5966 42.772 35.9696 43.0265C36.4716 43.369 36.4916 44.0595 36.0711 44.419C35.2056 45.1585 33.0481 45.1059 32.6556 43.6834C32.5066 43.1424 32.0261 42.9364 31.5601 43.1114C31.1301 43.2729 30.9466 43.7099 31.1066 44.2269C31.4521 45.3429 32.2296 46.0189 33.3216 46.3589C33.5476 46.4294 33.7086 46.4845 33.7151 46.792C33.7281 47.399 34.0421 47.7215 34.5266 47.72C35.0046 47.7185 35.2756 47.3969 35.3741 46.7915C35.3966 46.6535 35.5421 46.4944 35.6731 46.4239C35.9136 46.2949 36.1956 46.246 36.4421 46.1259C37.3596 45.6799 37.9616 44.997 38.0026 43.9279C38.0451 42.8234 37.5866 41.9755 36.6186 41.451C36.1846 41.216 35.6986 41.068 35.2236 40.92C34.7146 40.7615 34.1811 40.6795 33.6776 40.5075C33.2661 40.3655 32.9666 40.0784 32.9786 39.3484Z" fill="#3E78B2"/>
<path d="M41.6053 22.7596C43.6273 22.7596 45.6493 22.7556 47.6713 22.7611C49.0938 22.7646 49.8908 23.5616 49.8963 24.9706C49.8978 25.3161 49.8973 25.6621 49.8963 26.0076C49.8918 27.4106 49.0853 28.2391 47.6848 28.2461C45.6283 28.2566 43.5718 28.2491 41.5153 28.2491C39.5453 28.2491 37.5748 28.2521 35.6048 28.2481C34.0588 28.2451 33.2873 27.4666 33.2843 25.9171C33.2838 25.5886 33.2818 25.2606 33.2848 24.9321C33.2958 23.5681 34.0788 22.7676 35.4353 22.7621C37.4918 22.7531 39.5483 22.7596 41.6053 22.7596Z" fill="#3E78B2"/>
<path d="M33.25 31.7075C33.293 31.1605 33.263 30.6505 33.3845 30.1795C33.6185 29.2725 34.382 28.7725 35.4295 28.77C38.1935 28.7635 40.9575 28.7675 43.7215 28.7675C45.0515 28.7675 46.382 28.7615 47.712 28.7695C49.094 28.778 49.89 29.5845 49.896 30.9665C49.8975 31.3465 49.899 31.7265 49.8955 32.1065C49.885 33.383 49.092 34.2055 47.801 34.2495C47.111 34.273 46.419 34.2555 45.728 34.2555C44.3635 34.256 42.9985 34.263 41.634 34.2475C41.427 34.245 41.174 34.1915 41.022 34.0655C38.871 32.275 36.4025 31.505 33.62 31.707C33.5355 31.713 33.45 31.7075 33.25 31.7075Z" fill="#3E78B2"/>
<path d="M44.4036 40.2166C44.0731 38.2016 43.2476 36.4106 41.8086 34.8341C41.9941 34.8081 42.1166 34.7766 42.2391 34.7761C44.0681 34.7731 45.8971 34.7661 47.7261 34.7766C49.1011 34.7846 49.8906 35.5991 49.8951 36.9841C49.8966 37.4326 49.9091 37.8821 49.8896 38.3296C49.8476 39.2896 49.1421 40.1461 48.2056 40.1986C46.9546 40.2696 45.6961 40.2166 44.4036 40.2166Z" fill="#3E78B2"/>
<path d="M44.4754 40.8225C45.7894 40.8225 47.0459 40.765 48.2944 40.8425C49.1484 40.8955 49.8349 41.7425 49.8844 42.631C49.9169 43.2155 49.9149 43.8045 49.8859 44.3895C49.8414 45.276 49.1604 46.151 48.3104 46.1915C46.6979 46.2675 45.0794 46.2135 43.3984 46.2135C44.2304 44.5045 44.5949 42.736 44.4754 40.8225Z" fill="#3E78B2"/>
<path d="M20.715 19.1291C21.3 19.1291 21.8305 19.1276 22.3615 19.1296C23.225 19.1321 24.0885 19.1326 24.952 19.1416C25.562 19.1481 25.935 19.4701 25.93 19.9696C25.925 20.4616 25.542 20.7926 24.9365 20.7916C23.296 20.7881 21.655 20.7786 20.0145 20.7586C19.353 20.7506 19.0635 20.4636 19.06 19.8041C19.05 17.9216 19.0505 16.0391 19.06 14.1566C19.063 13.5676 19.379 13.2291 19.874 13.2261C20.3715 13.2231 20.702 13.5581 20.708 14.1441C20.7235 15.5776 20.714 17.0111 20.7145 18.4446C20.715 18.6481 20.715 18.8516 20.715 19.1291Z" fill="#3E78B2"/>
<path d="M12.8929 12.1055C13.1664 12.2385 13.3744 12.295 13.5224 12.4215C13.8099 12.667 14.0809 12.937 14.3284 13.2235C14.6329 13.577 14.6084 14.038 14.3049 14.347C13.9999 14.6575 13.5354 14.6925 13.1829 14.3905C12.8829 14.1335 12.5614 13.869 12.3584 13.5405C12.2179 13.313 12.1624 12.9335 12.2534 12.6915C12.3434 12.453 12.6654 12.3015 12.8929 12.1055Z" fill="#3E78B2"/>
<path d="M26.8784 27.7525C26.6069 27.628 26.3959 27.5785 26.2479 27.454C25.9584 27.2105 25.6879 26.94 25.4399 26.6545C25.1149 26.281 25.1439 25.805 25.4764 25.4935C25.7939 25.196 26.2439 25.1815 26.6009 25.4955C26.8979 25.757 27.2234 26.0185 27.4204 26.3495C27.5559 26.5775 27.5849 26.957 27.4929 27.206C27.4089 27.43 27.0964 27.57 26.8784 27.7525Z" fill="#3E78B2"/>
<path d="M27.6911 12.934C27.5736 13.206 27.5351 13.405 27.4206 13.539C27.1631 13.839 26.8826 14.124 26.5841 14.3835C26.2351 14.6865 25.7666 14.659 25.4606 14.356C25.1486 14.0465 25.1161 13.593 25.4231 13.235C25.6806 12.935 25.9446 12.6135 26.2731 12.411C26.5001 12.271 26.8801 12.2165 27.1216 12.308C27.3596 12.398 27.5091 12.7205 27.6911 12.934Z" fill="#3E78B2"/>
<path d="M14.5438 25.957C14.5128 26.623 13.4838 27.6885 13.0053 27.6415C12.7488 27.6165 12.4023 27.458 12.2933 27.254C12.1723 27.028 12.1698 26.613 12.3053 26.4035C12.5528 26.022 12.9023 25.6725 13.2843 25.4265C13.4933 25.292 13.8983 25.307 14.1378 25.4195C14.3548 25.5215 14.4668 25.8465 14.5438 25.957Z" fill="#3E78B2"/>
<path d="M29.1038 19.1286C29.3273 19.1286 29.5538 19.1061 29.7743 19.1331C30.2163 19.1876 30.4538 19.4836 30.4713 19.9016C30.4888 20.3221 30.2683 20.6616 29.8348 20.7161C29.3788 20.7736 28.9058 20.7756 28.4493 20.7256C27.9933 20.6751 27.7613 20.3481 27.7848 19.8891C27.8083 19.4271 28.0773 19.1681 28.5363 19.1241C28.7238 19.1061 28.9148 19.1211 29.1043 19.1211C29.1038 19.1236 29.1038 19.1261 29.1038 19.1286Z" fill="#3E78B2"/>
<path d="M19.0449 29.1505C19.0569 28.9265 19.0454 28.699 19.0864 28.481C19.1634 28.0755 19.4304 27.853 19.8424 27.8365C20.2514 27.8195 20.5924 28.0065 20.6449 28.4105C20.7109 28.9155 20.7114 29.442 20.6444 29.9465C20.5909 30.3485 20.2384 30.548 19.8404 30.5265C19.4454 30.5055 19.1559 30.2855 19.0864 29.872C19.0474 29.6355 19.0574 29.3915 19.0449 29.1505Z" fill="#3E78B2"/>
<path d="M19.0667 10.6665C19.0667 10.477 19.0532 10.2865 19.0692 10.0985C19.1092 9.63251 19.3912 9.36601 19.8377 9.34351C20.2842 9.32101 20.6212 9.55701 20.6727 10.0175C20.7217 10.4585 20.7217 10.9135 20.6742 11.3545C20.6247 11.8145 20.2967 12.051 19.8442 12.032C19.3907 12.013 19.1142 11.7485 19.0702 11.2855C19.0507 11.0815 19.0667 10.8735 19.0667 10.6665Z" fill="#3E78B2"/>
<path d="M10.6478 19.1265C10.8543 19.1265 11.0628 19.1075 11.2673 19.1305C11.7078 19.1795 11.9523 19.454 11.9788 19.8815C12.0048 20.308 11.8018 20.6535 11.3683 20.71C10.8963 20.7715 10.4058 20.7695 9.93232 20.718C9.49582 20.6705 9.27432 20.33 9.28982 19.9095C9.30632 19.4655 9.55982 19.1705 10.0283 19.127C10.2333 19.108 10.4413 19.124 10.6478 19.124C10.6478 19.1245 10.6478 19.1255 10.6478 19.1265Z" fill="#3E78B2"/>
</g>
<defs>
<clipPath id="clip0_5953_1309">
<rect width="50" height="50" fill="white"/>
</clipPath>
</defs>
</svg>
