<svg width="50" height="50" viewBox="0 0 50 50" fill="none" xmlns="http://www.w3.org/2000/svg">
<path d="M19.3975 49.6666C18.978 49.4906 18.509 49.3836 18.1495 49.1241C17.534 48.6796 17.344 48.0081 17.4425 47.2256C19.6465 47.2256 21.844 47.2256 24.042 47.2266C24.2795 48.2416 23.612 49.2936 22.564 49.5581C22.433 49.5911 22.304 49.6306 22.174 49.6671C21.2485 49.6666 20.323 49.6666 19.3975 49.6666Z" fill="#3E78B2"/>
<path d="M20.8356 0C21.3871 0.202 21.6081 0.5835 21.5801 1.1815C21.5411 2.0185 21.5756 2.8585 21.5681 3.697C21.5626 4.278 21.2636 4.625 20.7806 4.6395C20.2776 4.6545 19.9376 4.294 19.9286 3.6975C19.9161 2.876 19.9246 2.0545 19.9256 1.233C19.9266 0.444 20.0306 0.287 20.7331 0C20.7671 0 20.8016 0 20.8356 0Z" fill="#3E78B2"/>
<path d="M46.5087 5.17138C46.3062 5.64088 46.1402 6.09138 45.9212 6.51388C45.7142 6.91288 45.7197 7.23339 45.9407 7.65339C46.3057 8.34589 46.5837 9.08988 46.8357 9.83338C46.9467 10.1609 47.0927 10.3519 47.4172 10.4554C47.8237 10.5849 48.2402 10.7169 48.6062 10.9289C48.8042 11.0434 49.0172 11.3194 49.0297 11.5334C49.0782 12.3719 49.0782 13.2164 49.0287 14.0549C49.0162 14.2684 48.7862 14.6119 48.6047 14.6504C47.3447 14.9169 46.6547 15.6679 46.4292 16.9239C46.3707 17.2499 46.1922 17.5754 45.9977 17.8509C45.6947 18.2814 45.7242 18.6569 45.9377 19.1249C46.6897 20.7734 46.7197 20.3304 45.4717 21.6169C45.1612 21.9369 44.8347 22.2419 44.5292 22.5664C44.2842 22.8264 43.9942 22.9229 43.7022 22.7239C42.6742 22.0244 41.6802 22.0234 40.6657 22.7574C40.4382 22.9219 40.1357 23.0284 39.8552 23.0654C39.1057 23.1639 38.8022 23.6234 38.5707 24.2989C38.1527 25.5209 38.3137 25.4379 36.9452 25.4334C36.3967 25.4319 35.8482 25.4234 35.3002 25.4364C34.9277 25.4449 34.6357 25.3154 34.5627 24.9419C34.3292 23.7454 33.6557 23.0544 32.4342 22.8334C31.9802 22.7514 31.5517 22.4639 31.1427 22.2189C30.8707 22.0559 30.6532 22.0604 30.3857 22.1949C30.0037 22.3869 29.6042 22.5424 29.2172 22.7249C28.8987 22.8749 28.6357 22.8379 28.3832 22.5769C27.8227 21.9974 27.2227 21.4544 26.6932 20.8484C26.5407 20.6739 26.4392 20.2504 26.5432 20.0884C27.2237 19.0264 27.2232 18.0259 26.4972 16.9879C26.2977 16.7029 26.1742 16.3294 26.1272 15.9814C26.0512 15.4139 25.7067 15.2104 25.2262 15.0234C23.6357 14.4054 23.8487 14.7679 23.8347 13.0029C23.8312 12.5394 23.8407 12.0754 23.8327 11.6119C23.8267 11.2614 23.9477 10.9834 24.3047 10.9129C25.5152 10.6734 26.2362 9.98639 26.4312 8.73989C26.4772 8.44639 26.6297 8.14189 26.8122 7.90339C27.2477 7.33389 27.1437 6.82388 26.8542 6.21588C26.2452 4.93688 26.2172 5.18688 27.2132 4.18038C27.5992 3.79038 27.9942 3.40888 28.3737 3.01238C28.6207 2.75338 28.9052 2.66488 29.2012 2.86388C30.2317 3.55738 31.2327 3.56388 32.2402 2.81638C32.3992 2.69838 32.6137 2.61538 32.8107 2.59438C33.7632 2.49238 34.1682 1.88838 34.4242 1.03388C34.6902 0.145885 34.7412 0.160885 35.6597 0.160885C36.3107 0.160885 36.9622 0.168385 37.6127 0.158385C37.9822 0.152885 38.2632 0.271385 38.3412 0.656885C38.5757 1.82188 39.2182 2.53688 40.4312 2.73488C40.8052 2.79588 41.1772 3.00638 41.4982 3.22438C41.9322 3.51938 42.3032 3.49788 42.7707 3.28338C44.3997 2.53438 43.9787 2.50388 45.2217 3.71488C45.5532 4.03788 45.8837 4.36288 46.1992 4.70188C46.3207 4.83238 46.3997 5.00288 46.5087 5.17138ZM29.7627 12.7804C29.7577 16.5034 32.7267 19.4879 36.4397 19.4929C40.1412 19.4979 43.1442 16.5014 43.1477 12.7999C43.1512 9.09738 40.1517 6.08388 36.4597 6.07988C32.7562 6.07538 29.7677 9.06538 29.7627 12.7804Z" fill="#3E78B2"/>
<path d="M17.7536 24.4181C17.7536 28.7756 17.7536 33.0491 17.7536 37.3616C16.2776 37.3616 14.8136 37.3616 13.3131 37.3616C13.2296 36.6081 13.1491 35.8441 13.0601 35.0811C12.7346 32.2911 11.7691 29.7321 10.3081 27.3446C9.47407 25.9811 8.77207 24.5636 8.45457 22.9671C7.09657 16.1446 11.8561 9.30206 18.7151 8.23056C20.5556 7.94306 22.3656 8.02956 24.1566 8.53706C24.3186 8.58306 24.4781 8.63956 24.7541 8.72806C24.5716 8.90256 24.4681 9.04956 24.3261 9.12656C24.1176 9.23956 23.8806 9.29906 23.6581 9.38756C22.6906 9.77356 22.2121 10.5016 22.1931 11.5331C22.1796 12.2881 22.1891 13.0436 22.1901 13.7991C22.1921 15.1541 22.6436 15.8071 23.9041 16.2896C24.2786 16.4331 24.7296 16.5006 24.7076 17.0951C24.5886 17.1496 24.4506 17.2101 24.3151 17.2756C22.8816 17.9661 22.1521 19.1226 22.0911 20.7021C22.0651 21.3686 22.0866 22.0366 22.0866 22.7386C21.1911 22.7386 20.3296 22.7386 19.4086 22.7386C19.4086 22.0221 19.4211 21.3231 19.4061 20.6241C19.3661 18.7571 17.9716 17.1906 16.1871 16.9931C14.2171 16.7751 12.5256 17.9436 12.0676 19.8401C11.5206 22.1031 13.2306 24.3491 15.5616 24.4156C16.2766 24.4356 16.9926 24.4181 17.7536 24.4181Z" fill="#3E78B2"/>
<path d="M23.7754 24.421C24.3934 24.421 24.9749 24.4215 25.5564 24.4205C25.7279 24.42 25.9089 24.4515 26.0684 24.407C26.9549 24.1585 27.8059 24.1225 28.7129 24.4345C29.0789 24.5605 29.6174 24.331 30.0249 24.1465C30.4829 23.9395 30.8619 23.885 31.3149 24.1495C31.6934 24.371 32.1279 24.4975 32.6289 24.7035C32.1574 25.583 31.7249 26.4545 31.2334 27.291C30.2394 28.983 29.3374 30.72 28.9264 32.6515C28.5989 34.191 28.3909 35.756 28.1214 37.3625C26.7499 37.3625 25.2849 37.3625 23.7759 37.3625C23.7754 33.0795 23.7754 28.783 23.7754 24.421Z" fill="#3E78B2"/>
<path d="M19.4551 24.4346C20.3281 24.4346 21.1651 24.4346 22.0441 24.4346C22.0441 28.7416 22.0441 33.0381 22.0441 37.3676C21.1976 37.3676 20.3481 37.3676 19.4551 37.3676C19.4551 33.0796 19.4551 28.7831 19.4551 24.4346Z" fill="#3E78B2"/>
<path d="M13.3521 39.0759C18.2916 39.0759 23.2351 39.0759 28.1751 39.0759C28.3696 40.3834 27.5046 41.4289 26.1821 41.4599C24.9661 41.4884 23.7491 41.4674 22.5326 41.4674C20.1681 41.4674 17.8031 41.4779 15.4386 41.4629C14.0261 41.4549 13.1461 40.4419 13.3521 39.0759Z" fill="#3E78B2"/>
<path d="M15.3648 43.1411C18.9703 43.1411 22.5443 43.1411 26.1143 43.1411C26.3793 44.3316 25.5073 45.5111 24.2793 45.5306C21.9333 45.5671 19.5858 45.5661 17.2398 45.5321C16.0428 45.5141 15.2073 44.4251 15.3648 43.1411Z" fill="#3E78B2"/>
<path d="M17.7612 22.7655C16.9587 22.7655 16.2242 22.8045 15.4952 22.7565C14.3672 22.682 13.5607 21.6905 13.6247 20.53C13.6837 19.4555 14.6127 18.597 15.7062 18.606C16.8027 18.615 17.7152 19.469 17.7562 20.5605C17.7827 21.275 17.7612 21.992 17.7612 22.7655Z" fill="#3E78B2"/>
<path d="M10.0449 2.99039C10.1499 3.07589 10.4259 3.20989 10.5634 3.43039C11.0694 4.24089 11.5404 5.07389 12.0024 5.91089C12.2559 6.36989 12.1199 6.84839 11.7199 7.06839C11.3144 7.29089 10.8514 7.15839 10.5839 6.70789C10.1044 5.90039 9.63192 5.08839 9.18092 4.26489C8.83642 3.63389 9.20692 2.97139 10.0449 2.99039Z" fill="#3E78B2"/>
<path d="M1.95643 10.991C2.05293 11.0275 2.23843 11.0725 2.39793 11.1625C3.17293 11.6005 3.94493 12.0445 4.71093 12.498C5.22293 12.801 5.37093 13.28 5.10693 13.7075C4.85643 14.113 4.39693 14.2005 3.89393 13.9155C3.08893 13.46 2.28993 12.995 1.49193 12.5275C1.11843 12.309 0.98593 11.969 1.10043 11.5595C1.20443 11.188 1.48143 11.007 1.95643 10.991Z" fill="#3E78B2"/>
<path d="M25.3673 18.7104C24.3448 20.3044 24.7443 21.5894 26.2758 22.7199C25.3378 22.7199 24.5728 22.7199 23.6953 22.7199C23.7383 21.8609 23.7183 20.973 23.8463 20.107C23.9528 19.39 24.5673 18.8849 25.3673 18.7104Z" fill="#3E78B2"/>
<circle cx="36.5" cy="12.5" r="7.5" fill="#3E78B2"/>
<path d="M35.6783 20C35.3013 19.912 34.9216 19.8358 34.5482 19.7352C30.9845 18.774 28.7334 15.5155 29.0254 11.7468C29.2894 8.33898 32.1574 5.44448 35.6642 5.04664C39.6366 4.59602 43.401 7.46436 43.9254 11.3404C44.4949 15.5498 41.7466 19.2864 37.6228 19.9138C37.5352 19.9274 37.4515 19.9707 37.3661 20C36.8033 20 36.2406 20 35.6783 20ZM35.1042 10.436C35.2131 10.3056 35.3826 9.97456 35.6538 9.8027C36.4752 9.28126 37.4868 9.59837 38.008 10.4847C38.2674 10.9259 38.6765 11.0801 39.0598 10.8812C39.4472 10.68 39.5575 10.2556 39.3315 9.78872C38.9911 9.08505 38.4623 8.57083 37.7227 8.30651C37.419 8.19825 37.2355 8.09044 37.2368 7.7111C37.2377 7.29837 36.8779 7.00878 36.5 7.01014C36.1289 7.01149 35.7637 7.2898 35.7831 7.66734C35.8053 8.09631 35.5824 8.20051 35.252 8.32906C34.1902 8.74314 33.5881 9.63581 33.6035 10.7008C33.6184 11.7396 34.1929 12.5118 35.3053 12.9142C35.7424 13.072 36.2157 13.1271 36.6596 13.2696C37.0551 13.3968 37.471 13.5245 37.8082 13.7541C38.262 14.063 38.2801 14.686 37.8999 15.0103C37.1175 15.6774 35.167 15.6301 34.8122 14.3468C34.6775 13.8587 34.2431 13.6729 33.8218 13.8307C33.4331 13.9764 33.2672 14.3707 33.4118 14.8371C33.7242 15.8439 34.4271 16.4537 35.4143 16.7604C35.6186 16.824 35.7641 16.8736 35.77 17.1511C35.7818 17.6987 36.0656 17.9896 36.5036 17.9882C36.9358 17.9869 37.1808 17.6968 37.2698 17.1506C37.2902 17.0261 37.4217 16.8827 37.5401 16.8191C37.7576 16.7027 38.0125 16.6585 38.2353 16.5502C39.0648 16.1479 39.609 15.5317 39.6461 14.5673C39.6845 13.5709 39.27 12.8059 38.3949 12.3327C38.0025 12.1207 37.5632 11.9872 37.1338 11.8537C36.6736 11.7107 36.1913 11.6367 35.7361 11.4816C35.3641 11.3535 35.0933 11.0946 35.1042 10.436Z" fill="#F8FBFF"/>
</svg>
