<?xml version="1.0" encoding="iso-8859-1"?>
<!-- Generator: Adobe Illustrator 19.0.0, SVG Export Plug-In . SVG Version: 6.00 Build 0)  -->
<svg version="1.1" id="Capa_1" xmlns="http://www.w3.org/2000/svg" xmlns:xlink="http://www.w3.org/1999/xlink" x="0px" y="0px"
	 viewBox="0 0 480 480" style="enable-background:new 0 0 480 480;" xml:space="preserve">
<g>
	<g>
		<path d="M352,128c-0.002,4.887-0.315,9.77-0.938,14.617l15.859,2.063c0.719-5.531,1.08-11.102,1.078-16.68v-0.492L352,128z"/>
	</g>
</g>
<g>
	<g>
		<path d="M138.273,50.305c-3.396,4.435-6.497,9.088-9.281,13.93l13.859,7.984c2.442-4.236,5.156-8.31,8.125-12.195L138.273,50.305z
			"/>
	</g>
</g>
<g>
	<g>
		<path d="M348.219,156.984c-1.262,4.719-2.836,9.349-4.711,13.859l14.781,6.141c2.142-5.167,3.94-10.471,5.383-15.875
			L348.219,156.984z"/>
	</g>
</g>
<g>
	<g>
		<path d="M128.969,142.844l-15.859,2.109c0.734,5.537,1.83,11.02,3.281,16.414l15.453-4.172
			C130.57,152.48,129.61,147.686,128.969,142.844z"/>
	</g>
</g>
<g>
	<g>
		<path d="M240,240c-4.851,0.001-9.697-0.309-14.508-0.93l-2.047,15.875c5.49,0.701,11.02,1.054,16.555,1.055h0.125L240,240z"/>
	</g>
</g>
<g>
	<g>
		<path d="M272.719,4.219l-4.078,15.469c4.724,1.244,9.359,2.802,13.875,4.664l6.094-14.797
			C283.437,7.424,278.129,5.642,272.719,4.219z"/>
	</g>
</g>
<g>
	<g>
		<path d="M363.539,94.375l-15.438,4.203c1.283,4.709,2.252,9.498,2.898,14.336l15.859-2.125
			C366.111,105.251,365.002,99.768,363.539,94.375z"/>
	</g>
</g>
<g>
	<g>
		<path d="M240,0h-0.367L240,16c4.772,0.002,9.539,0.302,14.273,0.898l2.016-15.875C250.886,0.342,245.446,0,240,0z"/>
	</g>
</g>
<g>
	<g>
		<path d="M303.648,16.922l-7.968,13.875c4.239,2.437,8.315,5.146,12.203,8.109l9.703-12.719
			C313.144,22.803,308.488,19.709,303.648,16.922z"/>
	</g>
</g>
<g>
	<g>
		<path d="M171.93,216.953l-9.719,12.703c4.434,3.391,9.082,6.494,13.914,9.289l8-13.859
			C179.892,222.636,175.818,219.92,171.93,216.953z"/>
	</g>
</g>
<g>
	<g>
		<path d="M319.219,207.18c-3.453,3.457-7.127,6.685-11,9.664l9.75,12.688c4.431-3.404,8.633-7.097,12.578-11.055L319.219,207.18z"
			/>
	</g>
</g>
<g>
	<g>
		<path d="M113.039,111.586C112.35,117.03,112.003,122.512,112,128v0.25l16-0.25c0.001-4.814,0.306-9.623,0.914-14.398
			L113.039,111.586z"/>
	</g>
</g>
<g>
	<g>
		<path d="M121.61,79.266c-2.131,5.171-3.919,10.477-5.352,15.883l15.469,4.094c1.252-4.726,2.815-9.364,4.68-13.883L121.61,79.266z
			"/>
	</g>
</g>
<g>
	<g>
		<path d="M136.57,171.055l-14.766,6.156c2.149,5.152,4.634,10.157,7.437,14.984l13.828-8.047
			C140.618,179.932,138.447,175.557,136.57,171.055z"/>
	</g>
</g>
<g>
	<g>
		<path d="M337.023,183.984c-2.44,4.229-5.157,8.293-8.133,12.164l12.672,9.766c3.411-4.432,6.525-9.086,9.32-13.93L337.023,183.984
			z"/>
	</g>
</g>
<g>
	<g>
		<path d="M296.062,224.984c-4.232,2.445-8.615,4.616-13.125,6.5l6.172,14.766c5.144-2.151,10.143-4.63,14.969-7.422
			L296.062,224.984z"/>
	</g>
</g>
<g>
	<g>
		<path d="M330.195,37.18l-11.281,11.344c3.467,3.454,6.71,7.126,9.711,10.992l12.641-9.812
			C337.848,45.296,334.15,41.113,330.195,37.18z"/>
	</g>
</g>
<g>
	<g>
		<path d="M269.094,236.188c-4.723,1.26-9.522,2.215-14.367,2.859l2.094,15.859c5.536-0.731,11.019-1.822,16.414-3.266
			L269.094,236.188z"/>
	</g>
</g>
<g>
	<g>
		<path d="M190.656,9.859c-5.142,2.157-10.14,4.644-14.961,7.445l8.047,13.828c4.222-2.455,8.598-4.634,13.102-6.523L190.656,9.859z
			"/>
	</g>
</g>
<g>
	<g>
		<path d="M197.258,231.555l-6.125,14.781c5.167,2.138,10.471,3.931,15.875,5.367l4.125-15.453
			C206.409,234.995,201.774,233.426,197.258,231.555z"/>
	</g>
</g>
<g>
	<g>
		<path d="M161.812,26.641c-4.418,3.417-8.609,7.118-12.547,11.078L160.61,49c3.447-3.465,7.116-6.701,10.984-9.688L161.812,26.641z
			"/>
	</g>
</g>
<g>
	<g>
		<path d="M222.914,1.125c-5.534,0.746-11.014,1.847-16.406,3.297l4.172,15.453c4.718-1.275,9.515-2.241,14.359-2.891L222.914,1.125
			z"/>
	</g>
</g>
<g>
	<g>
		<path d="M151.219,196.297l-12.656,9.797c3.412,4.41,7.102,8.598,11.047,12.539l11.297-11.328
			C157.446,203.846,154.21,200.169,151.219,196.297z"/>
	</g>
</g>
<g>
	<g>
		<path d="M350.633,63.578l-13.828,8.062c2.462,4.218,4.646,8.592,6.539,13.094l14.75-6.203
			C355.932,73.391,353.439,68.397,350.633,63.578z"/>
	</g>
</g>
<g>
	<g>
		<path d="M325.587,95.392c-1.195-1.166-2.725-1.929-4.375-2.181l-51.063-7.805l-22.906-48.805c-1.877-4-6.641-5.721-10.641-3.844
			c-1.69,0.793-3.05,2.153-3.843,3.844l-22.906,48.805l-51.063,7.805c-2.963,0.454-5.423,2.525-6.375,5.367
			c-0.952,2.843-0.235,5.979,1.859,8.125l37.18,38.102l-8.797,53.906c-0.711,4.361,2.248,8.472,6.608,9.183
			c1.771,0.289,3.587-0.026,5.157-0.894L240,181.813L285.578,207c2.68,1.484,5.973,1.305,8.477-0.461
			c2.502-1.766,3.779-4.805,3.289-7.828l-8.797-53.906l37.18-38.102C328.811,103.541,328.749,98.477,325.587,95.392z
			 M274.273,136.523c-1.774,1.817-2.58,4.369-2.172,6.875l6.797,41.633l-35.031-19.359c-2.406-1.333-5.329-1.333-7.734,0
			l-35.031,19.359l6.797-41.633c0.408-2.506-0.398-5.058-2.172-6.875l-29.125-29.852l39.891-6.094
			c2.637-0.402,4.899-2.093,6.031-4.508L240,58.828l17.477,37.242c1.132,2.415,3.395,4.106,6.031,4.508l39.891,6.094
			L274.273,136.523z"/>
	</g>
</g>
<g>
	<g>
		<path d="M229.242,313.953l-95.977-83.188c-9.059-7.263-21.4-8.9-32.039-4.25c-1.023-3.75-2.422-8.602-4.336-14.914
			C85.738,174.873,80.047,136.704,80,98.32V88c0-22.091-17.909-40-40-40S0,65.909,0,88v228.117
			c-0.018,25.047,13.736,48.076,35.797,59.938L104,412.781V472c-0.003,4.416,3.575,7.997,7.991,8c0.003,0,0.006,0,0.009,0h112
			c4.416,0.003,7.997-3.575,8-7.991c0-0.003,0-0.006,0-0.009V320C231.999,317.68,230.993,315.475,229.242,313.953z M216,464h-96v-56
			c-0.001-2.943-1.614-5.648-4.203-7.047l-72.414-38.992C26.506,352.892,15.984,335.276,16,316.117V88c0-13.255,10.745-24,24-24
			s24,10.745,24,24v10.32c0.048,39.954,5.971,79.684,17.578,117.914c3.883,12.844,5.422,18.914,6.031,21.719
			c-8.474,12.88-6.32,30.01,5.078,40.391l69.93,63.578l10.766-11.844l-69.93-63.578c-6.245-5.678-6.705-15.344-1.027-21.589
			c5.344-5.878,14.3-6.681,20.605-1.849L216,323.656V464z"/>
	</g>
</g>
<g>
	<g>
		<path d="M440,48c-22.081,0.026-39.974,17.919-40,40v10.32c-0.046,38.382-5.737,76.548-16.891,113.273
			c-1.914,6.32-3.312,11.172-4.336,14.922c-10.753-4.641-23.194-2.925-32.289,4.453l-95.727,82.985
			c-1.751,1.522-2.757,3.727-2.758,6.047v152c-0.003,4.416,3.575,7.997,7.991,8c0.003,0,0.006,0,0.009,0h112
			c4.416,0.003,7.997-3.575,8-7.991c0-0.003,0-0.006,0-0.009v-59.219l68.195-36.727c22.065-11.858,35.823-34.888,35.805-59.938V88
			C479.974,65.919,462.081,48.026,440,48z M464,316.117c0.016,19.161-10.509,36.778-27.391,45.844l-72.406,38.992
			c-2.589,1.399-4.202,4.104-4.203,7.047v56h-96V323.648l92.719-80.382c6.588-5.275,16.204-4.211,21.479,2.376
			c2.25,2.809,3.436,6.323,3.349,9.921c-0.083,4.18-1.893,8.14-5,10.938l-69.93,63.578l10.766,11.844l69.93-63.578
			c11.398-10.381,13.552-27.511,5.078-40.391c0.609-2.805,2.148-8.883,6.031-21.727C410.03,177.999,415.952,138.271,416,98.32V88
			c0-13.255,10.745-24,24-24s24,10.745,24,24V316.117z"/>
	</g>
</g>
<g>
</g>
<g>
</g>
<g>
</g>
<g>
</g>
<g>
</g>
<g>
</g>
<g>
</g>
<g>
</g>
<g>
</g>
<g>
</g>
<g>
</g>
<g>
</g>
<g>
</g>
<g>
</g>
<g>
</g>
</svg>
