<svg width="50" height="50" viewBox="0 0 50 50" fill="none" xmlns="http://www.w3.org/2000/svg">
<path d="M45.9523 18.215C45.9523 18.2825 45.9523 18.35 45.9523 18.4175C45.8303 19.7475 45.1408 20.858 44.5613 22.011C44.3343 22.4625 44.1033 22.912 43.8828 23.3665C43.5453 24.063 43.3803 24.7995 43.4613 25.5725C43.5593 26.511 43.6753 27.448 43.7998 28.3835C44.1788 31.2235 43.2903 32.7805 40.6333 33.914C39.8748 34.2375 39.1248 34.583 38.3588 34.889C37.3998 35.2725 36.6663 35.9015 36.1168 36.773C35.5503 37.671 34.9708 38.561 34.3698 39.436C33.2558 41.058 31.4393 41.723 29.5388 41.201C28.4678 40.907 27.4068 40.576 26.3448 40.2495C25.4298 39.9685 24.5243 39.9755 23.6108 40.263C22.6313 40.5715 21.6473 40.8645 20.6618 41.1535C18.5793 41.7645 16.7168 41.0835 15.5168 39.273C14.9863 38.4725 14.4488 37.675 13.9448 36.858C13.3558 35.9035 12.5483 35.24 11.5093 34.8215C10.4948 34.413 9.48083 33.994 8.49983 33.512C7.17133 32.86 6.31783 31.7735 6.17983 30.2965C6.09183 29.355 6.16483 28.3705 6.34083 27.438C6.70633 25.5005 6.51533 23.7165 5.45933 22.0025C4.78433 20.907 4.16783 19.7495 4.04883 18.4165C4.04883 18.3155 4.04883 18.214 4.04883 18.113C4.20533 16.422 5.20783 15.2565 6.43933 14.222C6.91633 13.821 7.34833 13.367 7.80883 12.946C8.54133 12.277 9.00933 11.4655 9.22433 10.493C9.47133 9.37501 9.72133 8.25601 10.0253 7.15251C10.5103 5.39201 12.0213 4.16951 13.8433 4.03051C14.9193 3.94851 15.9968 3.88651 17.0748 3.84051C18.0828 3.79751 18.9893 3.49951 19.7943 2.88551C20.6253 2.25201 21.4623 1.62551 22.3043 1.00651C24.0008 -0.240485 25.9513 -0.254485 27.6553 0.977015C28.5298 1.60901 29.3903 2.26051 30.2488 2.91401C31.0423 3.51751 31.9368 3.79901 32.9258 3.84101C33.9533 3.88451 34.9813 3.93801 36.0063 4.01901C38.1383 4.18801 39.5883 5.45151 40.0833 7.54351C40.3198 8.54301 40.5598 9.54251 40.7858 10.5445C40.9963 11.4785 41.4513 12.262 42.1558 12.911C42.9498 13.6425 43.7333 14.385 44.5163 15.1275C45.1833 15.76 45.6158 16.5285 45.8123 17.4265C45.8713 17.687 45.9068 17.952 45.9523 18.215ZM24.9938 35.093C32.8943 35.102 39.3543 28.6515 39.3638 20.7445C39.3733 12.8275 32.9518 6.38551 25.0323 6.36851C17.0918 6.35151 10.6338 12.795 10.6373 20.731C10.6408 28.64 17.0823 35.0835 24.9938 35.093Z" fill="#B5E1FA"/>
<path d="M37.4449 37.7085C38.3869 39.7295 39.2819 41.6495 40.1769 43.5695C40.5469 44.363 40.9234 45.1535 41.2779 45.9535C41.3369 46.087 41.3629 46.315 41.2894 46.405C41.2129 46.498 40.9889 46.5215 40.8424 46.497C39.5134 46.2775 38.1844 46.0545 36.8619 45.799C36.5404 45.737 36.3794 45.7975 36.2189 46.083C35.5489 47.2715 34.8594 48.449 34.1664 49.624C33.9274 50.0295 33.6814 50.0255 33.4859 49.6085C32.4834 47.4755 31.4909 45.3375 30.4979 43.2005C30.4784 43.159 30.4884 43.104 30.4844 43.0505C30.9894 42.99 31.4944 42.9675 31.9819 42.8645C33.6304 42.5155 34.8959 41.5965 35.8184 40.1955C36.3439 39.395 36.8669 38.592 37.4449 37.7085Z" fill="#B5E1FA"/>
<path d="M12.6229 37.8169C12.9884 38.3714 13.3129 38.8589 13.6329 39.3489C15.4489 42.1299 16.3814 42.7049 19.6664 43.0409C19.6114 43.1864 19.5684 43.3249 19.5079 43.4554C18.5774 45.4549 17.6484 47.4549 16.7044 49.4479C16.6209 49.6244 16.4379 49.7539 16.3014 49.9049C16.1554 49.7599 15.9714 49.6369 15.8694 49.4654C15.2054 48.3514 14.5504 47.2319 13.9124 46.1024C13.7579 45.8289 13.6159 45.7369 13.2814 45.8019C11.9594 46.0579 10.6294 46.2754 9.29942 46.4894C9.14092 46.5149 8.91792 46.4804 8.81342 46.3804C8.74292 46.3129 8.78692 46.0634 8.84992 45.9274C10.0864 43.2549 11.3324 40.5854 12.6229 37.8169Z" fill="#B5E1FA"/>
<path d="M24.9969 33.473C17.9774 33.4695 12.2534 27.7405 12.2559 20.7215C12.2584 13.6935 17.9709 7.98654 25.0024 7.98804C32.0354 7.98904 37.7414 13.6945 37.7434 20.727C37.7459 27.7445 32.0129 33.477 24.9969 33.473ZM23.1409 21.82C23.1074 21.7685 23.0269 21.59 22.8979 21.459C22.0819 20.6295 21.2684 19.797 20.4284 18.992C19.6174 18.2145 18.4529 18.2315 17.7059 18.9955C16.9804 19.738 16.9659 20.907 17.7249 21.6835C19.1159 23.106 20.5239 24.5125 21.9449 25.906C22.7524 26.698 23.8689 26.706 24.6624 25.9115C27.2129 23.3585 29.7524 20.7945 32.2774 18.2165C33.0549 17.423 33.0119 16.227 32.2469 15.4945C31.4914 14.771 30.3514 14.7885 29.5609 15.5465C29.1714 15.92 28.8059 16.3175 28.4189 16.694C26.6929 18.3745 24.9629 20.0515 23.1409 21.82Z" fill="#B5E1FA"/>
</svg>
