<svg width="42" height="42" viewBox="0 0 42 42" fill="none" xmlns="http://www.w3.org/2000/svg">
<g clip-path="url(#clip0_5953_1446)">
<rect width="42" height="42" rx="5" fill="white"/>
<path d="M37.5 0H4.5C3.30653 0 2.16193 0.474106 1.31802 1.31802C0.474106 2.16193 0 3.30653 0 4.5L0 37.5C0 38.6935 0.474106 39.8381 1.31802 40.682C2.16193 41.5259 3.30653 42 4.5 42H17.3672V27.7209H11.4609V21H17.3672V15.8775C17.3672 10.0509 20.8359 6.8325 26.1488 6.8325C28.6931 6.8325 31.3538 7.28625 31.3538 7.28625V13.005H28.4222C25.5338 13.005 24.6328 14.7975 24.6328 16.6359V21H31.0809L30.0497 27.7209H24.6328V42H37.5C38.6935 42 39.8381 41.5259 40.682 40.682C41.5259 39.8381 42 38.6935 42 37.5V4.5C42 3.30653 41.5259 2.16193 40.682 1.31802C39.8381 0.474106 38.6935 0 37.5 0Z" fill="#0080FF"/>
</g>
<defs>
<clipPath id="clip0_5953_1446">
<rect width="42" height="42" fill="white"/>
</clipPath>
</defs>
</svg>
