<svg width="50" height="50" viewBox="0 0 50 50" fill="none" xmlns="http://www.w3.org/2000/svg">
<path d="M0 23.633C0.3895 22.788 1.0585 22.5335 1.967 22.5445C5.009 22.582 8.0515 22.558 11.0935 22.559C12.23 22.5595 12.0325 23.077 12 24.224C12 27.5 13.5005 30.29 15.555 32.6945C18.8935 36.602 23.165 38.0855 28.125 36.7605C33.0545 35.444 36.023 32.0685 37.009 27.04C37.1885 26.124 37.1715 25.165 37.2005 24.224C37.2335 23.1445 37.787 22.56 38.858 22.559C41.9165 22.557 44.9755 22.581 48.0335 22.544C48.941 22.533 49.6115 22.7855 50 23.632C50 25.8455 50 28.059 50 30.2725C49.6725 31.0145 49.114 31.384 48.2925 31.3975C47.7575 31.4065 47.2245 31.5015 46.689 31.5305C45.6515 31.587 44.884 32.057 44.463 33.009C44.04 33.9655 44.2265 34.8515 44.889 35.645C45.2955 36.132 45.7125 36.61 46.118 37.098C46.753 37.862 46.7375 38.611 46.0415 39.3105C43.804 41.5595 41.5615 43.803 39.312 46.0395C38.61 46.7375 37.8635 46.7515 37.0995 46.116C36.5615 45.669 36.0425 45.198 35.49 44.7705C34.716 44.1725 33.859 44.072 32.967 44.482C32.0935 44.884 31.632 45.5895 31.543 46.541C31.4885 47.124 31.41 47.707 31.3995 48.2905C31.3845 49.113 31.016 49.6705 30.2745 49.998C26.759 49.998 23.2435 49.998 19.7275 49.998C18.985 49.671 18.616 49.1125 18.6025 48.2905C18.5935 47.7555 18.5025 47.222 18.471 46.6865C18.41 45.652 17.946 44.8795 16.9915 44.46C16.014 44.0305 15.119 44.234 14.3175 44.917C13.847 45.318 13.379 45.7215 12.9025 46.115C12.132 46.7515 11.39 46.733 10.691 46.0375C8.443 43.7995 6.2 41.556 3.9615 39.3085C3.265 38.609 3.2465 37.8655 3.883 37.0975C4.329 36.559 4.8005 36.04 5.228 35.4875C5.8265 34.7135 5.9255 33.856 5.517 32.9645C5.1165 32.0895 4.4085 31.63 3.4585 31.539C2.876 31.483 2.2925 31.408 1.709 31.3965C0.8875 31.3805 0.328 31.0145 0.0015 30.2715C0 28.06 0 25.8465 0 23.633Z" fill="#B5E1FA"/>
<mask id="path-2-inside-1_5953_1376" fill="white">
<path fill-rule="evenodd" clip-rule="evenodd" d="M7.08321 21C7.02816 21.6098 7 22.2279 7 22.853C7 33.4276 15.0589 42.0001 25 42.0001C34.9411 42.0001 43 33.4276 43 22.853C43 22.2279 42.9718 21.6098 42.9168 21H7.08321Z"/>
</mask>
<path d="M7.08321 21V19.5H5.71253L5.58929 20.8651L7.08321 21ZM42.9168 21L44.4107 20.8651L44.2875 19.5H42.9168V21ZM8.5 22.853C8.5 22.273 8.52613 21.6998 8.57714 21.1349L5.58929 20.8651C5.53019 21.5197 5.5 22.1828 5.5 22.853H8.5ZM25 40.5001C15.9733 40.5001 8.5 32.6879 8.5 22.853H5.5C5.5 34.1674 14.1445 43.5001 25 43.5001V40.5001ZM41.5 22.853C41.5 32.6879 34.0267 40.5001 25 40.5001V43.5001C35.8555 43.5001 44.5 34.1674 44.5 22.853H41.5ZM41.4229 21.1349C41.4739 21.6998 41.5 22.273 41.5 22.853H44.5C44.5 22.1828 44.4698 21.5197 44.4107 20.8651L41.4229 21.1349ZM42.9168 19.5H7.08321V22.5H42.9168V19.5Z" fill="#034268" mask="url(#path-2-inside-1_5953_1376)"/>
<mask id="path-4-inside-2_5953_1376" fill="white">
<path fill-rule="evenodd" clip-rule="evenodd" d="M11.0634 22C11.0215 22.4646 11 22.9355 11 23.4118C11 31.4687 17.1402 38.0002 24.7144 38.0002C32.2887 38.0002 38.4289 31.4687 38.4289 23.4118C38.4289 22.9355 38.4074 22.4646 38.3655 22H11.0634Z"/>
</mask>
<path d="M11.0634 22V20.5H9.69271L9.56947 21.8651L11.0634 22ZM38.3655 22L39.8594 21.8651L39.7362 20.5H38.3655V22ZM12.5 23.4118C12.5 22.9806 12.5194 22.5546 12.5573 22.1349L9.56947 21.8651C9.52349 22.3745 9.5 22.8904 9.5 23.4118H12.5ZM24.7144 36.5002C18.0545 36.5002 12.5 30.7289 12.5 23.4118H9.5C9.5 32.2085 16.2258 39.5002 24.7144 39.5002V36.5002ZM36.9289 23.4118C36.9289 30.7289 31.3743 36.5002 24.7144 36.5002V39.5002C33.2031 39.5002 39.9289 32.2085 39.9289 23.4118H36.9289ZM36.8715 22.1349C36.9094 22.5546 36.9289 22.9806 36.9289 23.4118H39.9289C39.9289 22.8904 39.9054 22.3745 39.8594 21.8651L36.8715 22.1349ZM38.3655 20.5H11.0634V23.5H38.3655V20.5Z" fill="#034268" mask="url(#path-4-inside-2_5953_1376)"/>
<path d="M25.3914 3C25.7774 3.3125 26.1909 3.597 26.5449 3.9425C27.6744 5.0455 28.7924 6.1605 29.8939 7.291C30.7474 8.167 30.3884 9.504 29.2394 9.7895C28.6834 9.9275 28.2119 9.744 27.8174 9.3515C27.3964 8.9325 26.9859 8.503 26.4924 7.998C26.4924 10.6305 26.4924 13.1285 26.4924 15.6765C26.5899 15.6035 26.6789 15.5535 26.7474 15.4835C27.7519 14.4635 28.9154 13.6755 30.2134 13.075C32.5434 11.997 34.8684 10.908 37.1944 9.822C37.3494 9.7495 37.4989 9.667 37.7409 9.543C37.0654 9.293 36.4719 9.089 35.8904 8.8545C35.2449 8.594 34.9089 8.0275 34.9609 7.3495C35.0074 6.7465 35.4489 6.201 36.0714 6.0845C36.3604 6.0305 36.6979 6.052 36.9754 6.149C38.6619 6.7395 40.3399 7.354 42.0144 7.977C42.9144 8.3115 43.2674 9.074 42.9444 9.977C42.3429 11.6595 41.7309 13.3385 41.1084 15.0135C40.8034 15.8345 39.9974 16.221 39.2229 15.9515C38.4574 15.685 38.0794 14.862 38.3569 14.0355C38.5479 13.4675 38.7594 12.907 38.9859 12.2765C38.8369 12.3215 38.7359 12.339 38.6469 12.3805C36.1864 13.5245 33.7129 14.641 31.2714 15.8245C28.5379 17.149 26.9574 19.341 26.5399 22.365C26.4914 22.717 26.5689 22.8675 26.9164 22.9995C29.1434 23.8465 30.5039 25.9865 30.3614 28.36C30.2229 30.666 28.5719 32.628 26.2814 33.2075C23.6039 33.885 20.8424 32.3795 19.9254 29.743C19.0169 27.1295 20.2819 24.2205 22.8129 23.1045C23.5509 22.779 23.5589 22.7775 23.4114 21.98C22.9009 19.224 21.4264 17.154 18.9064 15.916C16.3839 14.677 13.8174 13.526 11.2699 12.3375C11.2149 12.312 11.1539 12.299 11.0134 12.2535C11.2454 12.904 11.4714 13.487 11.6614 14.0815C12.0159 15.1925 11.1409 16.2 10.0084 15.996C9.46489 15.898 9.09739 15.5665 8.91039 15.0605C8.27539 13.3385 7.64289 11.615 7.03289 9.8835C6.74539 9.0675 7.12489 8.2965 7.94089 7.9935C9.63139 7.3665 11.3259 6.7485 13.0239 6.142C13.8699 5.84 14.6909 6.2225 14.9694 7.017C15.2404 7.79 14.8529 8.564 14.0209 8.8895C13.4669 9.106 12.9069 9.3055 12.2544 9.5485C12.5174 9.6775 12.6839 9.7625 12.8534 9.8415C15.1354 10.907 17.4129 11.982 19.7014 13.0335C21.0474 13.652 22.2529 14.4605 23.2879 15.521C23.3404 15.575 23.4009 15.6215 23.5059 15.7135C23.5059 13.146 23.5059 10.6405 23.5059 8C23.0384 8.481 22.6534 8.89 22.2539 9.2845C21.5519 9.9785 20.6539 10.018 20.0469 9.3925C19.4519 8.7795 19.4974 7.902 20.1744 7.2205C21.3904 5.997 22.6079 4.7745 23.8379 3.565C24.0629 3.344 24.3509 3.1875 24.6099 3.001C24.8709 3 25.1309 3 25.3914 3Z" fill="#B5E1FA"/>
</svg>
