<svg width="50" height="47" viewBox="0 0 50 47" fill="none" xmlns="http://www.w3.org/2000/svg">
<path d="M0 20.633C0.3895 19.788 1.0585 19.5335 1.967 19.5445C5.009 19.582 8.0515 19.558 11.0935 19.559C12.23 19.5595 12.0325 20.077 12 21.224C12 24.5 13.5005 27.29 15.555 29.6945C18.8935 33.602 23.165 35.0855 28.125 33.7605C33.0545 32.444 36.023 29.0685 37.009 24.04C37.1885 23.124 37.1715 22.165 37.2005 21.224C37.2335 20.1445 37.787 19.56 38.858 19.559C41.9165 19.557 44.9755 19.581 48.0335 19.544C48.941 19.533 49.6115 19.7855 50 20.632C50 22.8455 50 25.059 50 27.2725C49.6725 28.0145 49.114 28.384 48.2925 28.3975C47.7575 28.4065 47.2245 28.5015 46.689 28.5305C45.6515 28.587 44.884 29.057 44.463 30.009C44.04 30.9655 44.2265 31.8515 44.889 32.645C45.2955 33.132 45.7125 33.61 46.118 34.098C46.753 34.862 46.7375 35.611 46.0415 36.3105C43.804 38.5595 41.5615 40.803 39.312 43.0395C38.61 43.7375 37.8635 43.7515 37.0995 43.116C36.5615 42.669 36.0425 42.198 35.49 41.7705C34.716 41.1725 33.859 41.072 32.967 41.482C32.0935 41.884 31.632 42.5895 31.543 43.541C31.4885 44.124 31.41 44.707 31.3995 45.2905C31.3845 46.113 31.016 46.6705 30.2745 46.998C26.759 46.998 23.2435 46.998 19.7275 46.998C18.985 46.671 18.616 46.1125 18.6025 45.2905C18.5935 44.7555 18.5025 44.222 18.471 43.6865C18.41 42.652 17.946 41.8795 16.9915 41.46C16.014 41.0305 15.119 41.234 14.3175 41.917C13.847 42.318 13.379 42.7215 12.9025 43.115C12.132 43.7515 11.39 43.733 10.691 43.0375C8.443 40.7995 6.2 38.556 3.9615 36.3085C3.265 35.609 3.2465 34.8655 3.883 34.0975C4.329 33.559 4.8005 33.04 5.228 32.4875C5.8265 31.7135 5.9255 30.856 5.517 29.9645C5.1165 29.0895 4.4085 28.63 3.4585 28.539C2.876 28.483 2.2925 28.408 1.709 28.3965C0.8875 28.3805 0.328 28.0145 0.0015 27.2715C0 25.06 0 22.8465 0 20.633Z" fill="#B5E1FA"/>
<mask id="path-2-inside-1_6861_1359" fill="white">
<path fill-rule="evenodd" clip-rule="evenodd" d="M7.08321 18C7.02816 18.6098 7 19.2279 7 19.853C7 30.4276 15.0589 39.0001 25 39.0001C34.9411 39.0001 43 30.4276 43 19.853C43 19.2279 42.9718 18.6098 42.9168 18H7.08321Z"/>
</mask>
<path d="M7.08321 18V16.5H5.71253L5.58929 17.8651L7.08321 18ZM42.9168 18L44.4107 17.8651L44.2875 16.5H42.9168V18ZM8.5 19.853C8.5 19.273 8.52613 18.6998 8.57714 18.1349L5.58929 17.8651C5.53019 18.5197 5.5 19.1828 5.5 19.853H8.5ZM25 37.5001C15.9733 37.5001 8.5 29.6879 8.5 19.853H5.5C5.5 31.1674 14.1445 40.5001 25 40.5001V37.5001ZM41.5 19.853C41.5 29.6879 34.0267 37.5001 25 37.5001V40.5001C35.8555 40.5001 44.5 31.1674 44.5 19.853H41.5ZM41.4229 18.1349C41.4739 18.6998 41.5 19.273 41.5 19.853H44.5C44.5 19.1828 44.4698 18.5197 44.4107 17.8651L41.4229 18.1349ZM42.9168 16.5H7.08321V19.5H42.9168V16.5Z" fill="#0366A3" mask="url(#path-2-inside-1_6861_1359)"/>
<mask id="path-4-inside-2_6861_1359" fill="white">
<path fill-rule="evenodd" clip-rule="evenodd" d="M11.0634 19C11.0215 19.4646 11 19.9356 11 20.4119C11 28.4688 17.1402 35.0003 24.7144 35.0003C32.2887 35.0003 38.4289 28.4688 38.4289 20.4119C38.4289 19.9356 38.4074 19.4646 38.3655 19H11.0634Z"/>
</mask>
<path d="M11.0634 19V17.5H9.69273L9.56948 18.8651L11.0634 19ZM38.3655 19L39.8594 18.8651L39.7361 17.5H38.3655V19ZM12.5 20.4119C12.5 19.9807 12.5194 19.5547 12.5573 19.1349L9.56948 18.8651C9.52349 19.3745 9.5 19.8905 9.5 20.4119H12.5ZM24.7144 33.5003C18.0545 33.5003 12.5 27.7291 12.5 20.4119H9.5C9.5 29.2086 16.2258 36.5003 24.7144 36.5003V33.5003ZM36.9289 20.4119C36.9289 27.7291 31.3743 33.5003 24.7144 33.5003V36.5003C33.2031 36.5003 39.9289 29.2086 39.9289 20.4119H36.9289ZM36.8715 19.1349C36.9094 19.5547 36.9289 19.9807 36.9289 20.4119H39.9289C39.9289 19.8905 39.9054 19.3745 39.8594 18.8651L36.8715 19.1349ZM38.3655 17.5H11.0634V20.5H38.3655V17.5Z" fill="#0366A3" mask="url(#path-4-inside-2_6861_1359)"/>
<path d="M25.3914 0C25.7774 0.3125 26.1909 0.597 26.5449 0.9425C27.6744 2.0455 28.7924 3.1605 29.8939 4.291C30.7474 5.167 30.3884 6.504 29.2394 6.7895C28.6834 6.9275 28.2119 6.744 27.8174 6.3515C27.3964 5.9325 26.9859 5.503 26.4924 4.998C26.4924 7.6305 26.4924 10.1285 26.4924 12.6765C26.5899 12.6035 26.6789 12.5535 26.7474 12.4835C27.7519 11.4635 28.9154 10.6755 30.2134 10.075C32.5434 8.997 34.8684 7.908 37.1944 6.822C37.3494 6.7495 37.4989 6.667 37.7409 6.543C37.0654 6.293 36.4719 6.089 35.8904 5.8545C35.2449 5.594 34.9089 5.0275 34.9609 4.3495C35.0074 3.7465 35.4489 3.201 36.0714 3.0845C36.3604 3.0305 36.6979 3.052 36.9754 3.149C38.6619 3.7395 40.3399 4.354 42.0144 4.977C42.9144 5.3115 43.2674 6.074 42.9444 6.977C42.3429 8.6595 41.7309 10.3385 41.1084 12.0135C40.8034 12.8345 39.9974 13.221 39.2229 12.9515C38.4574 12.685 38.0794 11.862 38.3569 11.0355C38.5479 10.4675 38.7594 9.907 38.9859 9.2765C38.8369 9.3215 38.7359 9.339 38.6469 9.3805C36.1864 10.5245 33.7129 11.641 31.2714 12.8245C28.5379 14.149 26.9574 16.341 26.5399 19.365C26.4914 19.717 26.5689 19.8675 26.9164 19.9995C29.1434 20.8465 30.5039 22.9865 30.3614 25.36C30.2229 27.666 28.5719 29.628 26.2814 30.2075C23.6039 30.885 20.8424 29.3795 19.9254 26.743C19.0169 24.1295 20.2819 21.2205 22.8129 20.1045C23.5509 19.779 23.5589 19.7775 23.4114 18.98C22.9009 16.224 21.4264 14.154 18.9064 12.916C16.3839 11.677 13.8174 10.526 11.2699 9.3375C11.2149 9.312 11.1539 9.299 11.0134 9.2535C11.2454 9.904 11.4714 10.487 11.6614 11.0815C12.0159 12.1925 11.1409 13.2 10.0084 12.996C9.46489 12.898 9.09739 12.5665 8.91039 12.0605C8.27539 10.3385 7.64289 8.615 7.03289 6.8835C6.74539 6.0675 7.12489 5.2965 7.94089 4.9935C9.63139 4.3665 11.3259 3.7485 13.0239 3.142C13.8699 2.84 14.6909 3.2225 14.9694 4.017C15.2404 4.79 14.8529 5.564 14.0209 5.8895C13.4669 6.106 12.9069 6.3055 12.2544 6.5485C12.5174 6.6775 12.6839 6.7625 12.8534 6.8415C15.1354 7.907 17.4129 8.982 19.7014 10.0335C21.0474 10.652 22.2529 11.4605 23.2879 12.521C23.3404 12.575 23.4009 12.6215 23.5059 12.7135C23.5059 10.146 23.5059 7.6405 23.5059 5C23.0384 5.481 22.6534 5.89 22.2539 6.2845C21.5519 6.9785 20.6539 7.018 20.0469 6.3925C19.4519 5.7795 19.4974 4.902 20.1744 4.2205C21.3904 2.997 22.6079 1.7745 23.8379 0.565C24.0629 0.344 24.3509 0.1875 24.6099 0.001C24.8709 0 25.1309 0 25.3914 0Z" fill="#B5E1FA"/>
</svg>
