<?xml version="1.0"?>
<svg xmlns="http://www.w3.org/2000/svg" id="line" viewBox="0 0 64 64"><path d="M7,19.5H30a3.00328,3.00328,0,0,0,3-3V7a3.00328,3.00328,0,0,0-3-3H7A3.00328,3.00328,0,0,0,4,7v9.5A3.00328,3.00328,0,0,0,7,19.5ZM6,7A1.001,1.001,0,0,1,7,6H30a1.001,1.001,0,0,1,1,1v9.5a1.001,1.001,0,0,1-1,1H7a1.001,1.001,0,0,1-1-1Z"/><path d="M17.5,27.25v9.5a3.00328,3.00328,0,0,0,3,3h23a3.00328,3.00328,0,0,0,3-3v-9.5a3.00328,3.00328,0,0,0-3-3h-23A3.00328,3.00328,0,0,0,17.5,27.25Zm27,0v9.5a1.001,1.001,0,0,1-1,1h-23a1.001,1.001,0,0,1-1-1v-9.5a1.001,1.001,0,0,1,1-1h23A1.001,1.001,0,0,1,44.5,27.25Z"/><path d="M57,44.5H34a3.00328,3.00328,0,0,0-3,3V57a3.00328,3.00328,0,0,0,3,3H57a3.00328,3.00328,0,0,0,3-3V47.5A3.00328,3.00328,0,0,0,57,44.5ZM58,57a1.001,1.001,0,0,1-1,1H34a1.001,1.001,0,0,1-1-1V47.5a1.001,1.001,0,0,1,1-1H57a1.001,1.001,0,0,1,1,1Z"/><path d="M54.5,10.75h-18a1,1,0,0,0,0,2h18a3.50424,3.50424,0,0,1,3.5,3.5V27.5A3.50424,3.50424,0,0,1,54.5,31H52.41406l1.668-1.668A.99989.99989,0,1,0,52.668,27.918l-3.375,3.375a.99962.99962,0,0,0,0,1.41406l3.375,3.375A.99989.99989,0,0,0,54.082,34.668L52.41406,33H54.5A5.50654,5.50654,0,0,0,60,27.5V16.25A5.50654,5.50654,0,0,0,54.5,10.75Z"/><path d="M24.832,48.168A.99989.99989,0,0,0,23.418,49.582l1.668,1.668H9.5A3.50424,3.50424,0,0,1,6,47.75V36.5A3.50424,3.50424,0,0,1,9.5,33H14a1,1,0,0,0,0-2H9.5A5.50654,5.50654,0,0,0,4,36.5V47.75a5.50654,5.50654,0,0,0,5.5,5.5H25.08594l-1.668,1.668A.99989.99989,0,1,0,24.832,56.332l3.375-3.375a.99962.99962,0,0,0,0-1.41406Z"/></svg>
