<svg height="512" viewBox="0 0 64 64" width="512" xmlns="http://www.w3.org/2000/svg"><g id="Help_Support" data-name="Help Support"><path d="m49.05762 56.39258-12.04737-9.23047h-24.99658c-4.54687 0-8.24609-3.41309-8.24609-7.60742v-24.6084c0-4.19434 3.69922-7.60742 8.24609-7.60742h39.876c4.6001 0 8.34277 3.41308 8.34277 7.60742v24.6084c0 4.19433-3.74267 7.60742-8.34277 7.60742h-.73486v8.19238a1.30571 1.30571 0 0 1 -2.09719 1.03809zm-37.04395-47.05371c-3.44433 0-6.24609 2.51562-6.24609 5.60742v24.6084c0 3.09179 2.80176 5.60742 6.24609 5.60742h25.144a1.57554 1.57554 0 0 1 .94971.32129l11.04737 8.46484v-7.30859a1.50366 1.50366 0 0 1 1.5249-1.47754h1.21c3.49756 0 6.34277-2.51563 6.34277-5.60742v-24.6084c0-3.0918-2.84521-5.60742-6.34277-5.60742z"/><path d="m49.17236 20.85938h-3.63236a.99973.99973 0 0 0 -1 1v10.78222a1 1 0 0 0 2 0v-3.53125h2.63232a4.12549 4.12549 0 1 0 0-8.251zm0 6.251h-2.63236v-4.251h2.63232a2.12549 2.12549 0 1 1 0 4.251z"/><path d="m41.0293 33.6416h-6.353a.99973.99973 0 0 1 -1-1v-10.78222a1 1 0 0 1 2 0v9.78222h5.353a1 1 0 0 1 0 2z"/><path d="m30.16553 31.6416h-5.59864v-3.3906h3.61911a1 1 0 0 0 0-2h-3.61911v-3.3916h5.59864a1 1 0 0 0 0-2h-6.59864a.99974.99974 0 0 0 -1 1v10.7822a.99974.99974 0 0 0 1 1h6.59864a1 1 0 0 0 0-2z"/><path d="m18.05615 21.85938v4.39162h-5.35449v-4.3916a1 1 0 0 0 -2 0v10.7822a1 1 0 0 0 2 0v-4.3906h5.35449v4.3906a1 1 0 0 0 2 0v-10.78222a1 1 0 0 0 -2 0z"/></g></svg>