<svg id="House" enable-background="new 0 0 64 64" viewBox="0 0 64 64" xmlns="http://www.w3.org/2000/svg"><path d="m38.21417 29.32544c-.00867 0-.0191 0-.02777 0-2.9845.00085-5.08441 1.61981-6.1886 2.96014-1.10248-1.34033-3.20148-2.96014-6.18768-2.96014-2.00092-.02173-3.78748.77777-5.07831 2.21014-1.45575 1.61633-2.17371 3.97235-1.92108 6.30402.89935 8.27979 11.33978 12.94489 13.18707 12.94489 1.84814 0 12.28949-4.6651 13.18707-12.94489.25348-2.33167-.46527-4.68768-1.92194-6.30402-1.28478-1.42627-3.07647-2.21014-5.04876-2.21014zm5.20331 8.32318c-.76569 7.05579-10.05328 11.35797-11.41968 11.35797-1.36633 0-10.65314-4.30219-11.41962-11.35797-.19879-1.83685.35242-3.67725 1.47485-4.92291.9566-1.06165 2.24487-1.62244 3.73102-1.62244h.02258c3.20929 0 5.10522 2.44104 5.35522 3.13202.12756.35071.46179.58508.83594.58508s.70752-.23438.83508-.58508c.25177-.69098 2.14856-3.13202 5.35699-3.13202.0069-.00262.01562-.00092.026 0 1.48096 0 2.77094.56079 3.72583 1.62244 1.12331 1.24566 1.67544 3.08606 1.47579 4.92291zm20.42078-13.67578c-.3316-1.26569-1.13715-2.32648-2.2674-2.98627l-9.06085-5.29663v-11.28998c0-1.63995-1.33002-2.96997-2.97003-2.96997h-4.16998c-1.64001 0-2.97998 1.33002-2.97998 2.96997v5.37427l-7.92078-4.63019c-1.52435-.88977-3.41675-.88977-4.94287 0l-27.10157 15.84253c-2.33081 1.36292-3.11902 4.36823-1.75702 6.69904.65973 1.13025 1.71967 1.93494 2.98535 2.26654.41407.10852.83338.16235 1.25007.16235.83734 0 1.66107-.21991 2.4068-.64307v27.68854c0 2.98999 2.42999 5.41003 5.40997 5.41003h38.56006c2.97998 0 5.39996-2.42004 5.39996-5.41003v-27.69226c.73602.41949 1.56818.64417 2.41681.64417 1.73615 0 3.35773-.92969 4.23102-2.42542.65979-1.12848.84204-2.448.51044-3.71362zm-19.66828-19.57288c0-.65997.54004-1.19995 1.20001-1.19995h4.16998c.66003 0 1.20001.53998 1.20001 1.19995v10.25531l-6.57001-3.84058v-6.41473zm7.11005 56.40003h-38.56006c-2 0-3.62994-1.63-3.62994-3.64001v-28.72419l22.90777-13.39123 22.91217 13.39294v28.72247c0 2.01001-1.62994 3.64002-3.62994 3.64002zm10.51306-34.01026c-.83167 1.42889-2.82996 1.95844-4.26752 1.1181l-25.07898-14.66021c-.27777-.16144-.61981-.16144-.89758 0l-25.07898 14.66022c-.7196.42102-1.5625.53821-2.36548.32465-.80646-.21094-1.48181-.72394-1.90198-1.4436-.8681-1.48529-.36548-3.39941 1.11981-4.26752l27.10072-15.84254c.48615-.28302 1.03046-.42535 1.57471-.42535.54431 0 1.08856.14233 1.57385.42535l27.10333 15.84253c.71875.42102 1.23096 1.09637 1.44275 1.90198.21179.80646.09546 1.64679-.32465 2.36639z"/></svg>