<svg width="616" height="633" viewBox="0 0 616 633" fill="none" xmlns="http://www.w3.org/2000/svg">
<path d="M321.49 607.274C329.233 566.371 339.299 530.969 367.504 502.628C381.718 488.353 400.023 483.058 420.376 480.567C436.967 478.542 454.001 475.22 469.266 469.095C486.521 462.191 491.001 445.062 481.433 429.749C474.796 419.108 470.648 409.92 477.783 397.462C483.368 387.652 474.464 383.084 463.956 381.111C465.892 378.516 466.887 376.647 468.381 375.194C482.871 360.919 482.705 358.947 464.952 349.395C457.873 345.554 455.826 341.09 462.131 335.069C462.795 334.446 463.348 333.771 464.122 333.252C487.904 317.264 483.755 304.651 453.835 294.788C432.875 287.885 413.518 279.06 406.218 257.311C403.342 248.746 402.236 239.61 400.411 230.734C388.244 171.559 347.981 136.573 289.082 118.613C249.096 106.414 207.949 105.065 163.539 112.488C163.539 97.7977 163.207 83.9383 163.926 70.1308C164.037 68.0544 168.738 65.2514 171.89 64.369C182.84 61.1507 193.901 57.9843 205.128 56.0637C214.751 54.4546 217.959 49.8866 218.457 41.1661C219.065 30.4212 220.282 19.5724 222.826 9.13893C223.711 5.60919 229.242 0.626036 232.892 0.470313C252.193 -0.360214 271.495 0.2627 290.851 0.00316022C298.152 -0.100656 301.802 2.33898 302.465 9.45036C303.571 21.0258 304.678 32.757 307.387 44.0729C308.438 48.3294 313.25 53.624 317.619 55.0255C332.33 59.853 347.484 63.6941 362.748 66.7048C366.841 67.5353 373.422 65.1995 376.298 62.137C384.206 53.7798 391.175 44.5402 397.701 35.1967C402.955 27.6701 408.153 27.3586 415.951 31.9265C431.547 41.0104 447.531 49.5752 463.624 57.8805C470.538 61.4621 472.916 64.7843 468.823 72.1033C463.293 82.0177 459.864 92.9184 454.278 102.781C450.462 109.529 451.845 113.785 457.154 118.613C468.381 128.787 478.944 139.635 490.613 149.29C493.766 151.886 500.679 153.028 504.771 151.73C516.496 147.993 527.834 143.113 538.895 137.871C545.752 134.6 549.624 135.535 553.329 141.868C562.676 157.699 572.299 173.428 582.365 188.896C587.066 196.111 585.185 200.472 578.106 204.832C568.925 210.542 560.464 217.29 551.338 223.103C544.37 227.619 541.992 232.032 545.255 240.389C550.177 252.847 553.495 265.979 556.537 279.008C558.307 286.743 562.565 289.649 570.64 290.22C582.088 291.051 593.425 293.075 604.874 293.958C612.782 294.581 616.211 297.488 615.99 305.274C615.547 322.974 615.658 340.675 615.935 358.376C616.045 365.175 613.833 368.809 605.98 369.224C597.297 369.743 588.614 372.339 579.986 372.027C562.786 371.404 555.652 379.191 553.551 394.348C552.279 403.639 549.624 413.138 545.476 421.651C540.941 430.995 544.149 435.874 552.223 440.805C561.459 446.463 569.865 453.263 578.991 459.077C585.627 463.282 586.9 467.642 582.641 474.182C573.129 488.924 563.727 503.77 554.933 518.927C550.619 526.402 546.139 528.841 537.457 524.585C527.28 519.653 516.717 515.034 505.767 512.075C500.955 510.777 493.323 512.179 489.452 515.189C478.557 523.754 469.21 533.928 458.868 543.116C452.895 548.41 450.13 552.978 454.831 560.972C460.583 570.679 464.952 581.32 468.491 591.961C469.653 595.387 467.717 602.187 464.841 603.952C447.807 614.178 430.331 623.729 412.412 632.501C409.315 634.007 401.793 631.878 399.194 629.127C391.009 620.459 384.87 610.025 376.464 601.564C373.145 598.242 365.513 596.425 360.425 597.256C348.59 599.176 336.976 603.173 321.49 607.274Z" fill="#345799"/>
<path d="M140.532 227.048C136.274 222.584 131.573 219.625 131.96 217.601C132.624 214.486 136.771 211.995 139.426 209.244C141.915 211.58 146.063 213.708 146.505 216.407C146.948 218.95 143.519 222.065 140.532 227.048Z" fill="white"/>
<path d="M288.749 192.685C296.381 192.685 304.013 192.634 311.645 192.685C319.111 192.737 321.323 194.814 321.323 201.614C321.379 210.334 321.379 219.107 321.323 227.827C321.268 235.198 318.669 237.534 310.815 237.534C296.16 237.534 281.504 237.534 266.848 237.482C260.045 237.482 257.723 235.354 257.612 229.021C257.446 219.729 257.557 210.386 257.446 201.095C257.336 193.827 255.178 191.855 247.602 191.855C239.527 191.855 231.397 191.907 223.323 191.855C217.018 191.803 214.142 189 214.087 183.083C214.032 178.93 213.976 174.777 214.087 170.625C214.197 165.122 216.852 162.06 222.549 161.852C231.232 161.489 239.97 161.437 248.652 161.696C254.349 161.852 256.782 164.655 256.838 169.95C256.893 174.673 256.782 179.397 256.893 184.121C257.059 190.246 259.437 192.426 265.797 192.426C273.429 192.426 281.061 192.426 288.693 192.426C288.749 192.582 288.749 192.634 288.749 192.685Z" fill="url(#paint0_linear_6931_1255)"/>
<path d="M200.262 405.508C207.894 405.508 215.527 405.456 223.159 405.508C230.625 405.56 232.837 407.636 232.837 414.436C232.892 423.157 232.892 431.929 232.837 440.65C232.782 448.021 230.182 450.357 222.329 450.357C207.673 450.357 193.017 450.357 178.361 450.305C171.559 450.305 169.236 448.177 169.126 441.844C168.96 432.552 169.07 423.209 168.96 413.917C168.849 406.65 166.692 404.678 159.115 404.678C151.041 404.678 142.911 404.73 134.836 404.678C128.532 404.626 125.656 401.823 125.6 395.905C125.545 391.753 125.49 387.6 125.6 383.447C125.711 377.945 128.366 374.882 134.062 374.675C142.745 374.312 151.483 374.26 160.166 374.519C165.863 374.675 168.296 377.478 168.351 382.772C168.407 387.496 168.296 392.22 168.407 396.943C168.572 403.069 170.951 405.249 177.311 405.249C184.943 405.249 192.575 405.249 200.207 405.249C200.262 405.404 200.262 405.456 200.262 405.508Z" fill="url(#paint1_linear_6931_1255)"/>
<path d="M200.482 293.959C192.186 293.959 183.891 293.803 175.595 294.011C167.133 294.167 162.322 298.579 162.1 306.521C161.879 316.695 162.101 326.869 161.99 336.991C161.935 345.555 158.45 348.722 149.436 348.722C137.434 348.722 125.488 348.826 113.487 348.722C105.191 348.67 102.205 345.867 102.15 338.184C102.039 327.18 102.039 316.124 102.094 305.119C102.15 298.215 105.523 294.945 113.211 294.789C125.212 294.634 137.158 294.738 149.159 294.686C159.059 294.634 162.93 291.104 163.041 281.761C163.151 272.261 163.041 262.71 163.151 253.211C163.262 244.075 168.239 239.04 178.028 238.885C194.62 238.625 211.211 238.729 227.803 238.833C234.605 238.885 240.191 242.207 240.689 248.384C241.684 260.115 241.906 272.054 240.965 283.785C240.412 290.481 234.108 293.699 225.425 293.855C217.074 294.115 208.778 293.959 200.482 293.959Z" fill="url(#paint2_linear_6931_1255)"/>
<path d="M293.395 312.438C289.302 312.438 285.21 312.541 281.117 312.386C276.084 312.23 272.987 309.998 272.932 304.963C272.821 297.073 272.711 289.183 272.655 281.345C272.6 275.791 275.808 273.247 281.56 273.247C289.523 273.247 297.487 273.247 305.451 273.351C311.092 273.403 314.245 275.842 314.189 281.5C314.079 288.768 314.3 296.035 314.134 303.354C314.024 310.257 311.701 312.334 304.401 312.438C300.75 312.541 297.045 312.489 293.395 312.438Z" fill="url(#paint3_linear_6931_1255)"/>
<path d="M73.9449 208.258C80.305 208.258 86.6098 208.154 92.9699 208.31C99.4406 208.465 103.146 211.84 103.257 217.913C103.423 225.699 103.257 233.485 103.312 241.219C103.367 247.76 106.022 250.199 112.935 250.199C122.116 250.199 131.241 250.303 140.422 250.199C146.782 250.148 149.049 248.019 149.105 242.102C149.16 233.641 149.16 225.232 149.16 216.771C149.16 211.476 146.505 208.985 140.698 208.881C131.518 208.725 122.392 208.829 113.212 208.777C105.635 208.725 102.704 206.026 102.593 198.914C102.483 191.647 102.593 184.38 102.538 177.061C102.427 170.054 98.6666 166.212 91.2004 166.109C78.5355 165.901 65.8153 166.005 53.1505 166.109C47.9518 166.161 43.6931 168.704 43.2506 173.428C42.4764 182.408 42.3106 191.543 43.0295 200.524C43.4167 205.662 48.2833 208.102 54.9199 208.206C61.28 208.362 67.5848 208.258 73.9449 208.258Z" fill="url(#paint4_linear_6931_1255)"/>
<path d="M243.841 367.719C239.14 367.719 234.494 367.823 229.793 367.667C223.986 367.512 220.502 364.916 220.391 359.154C220.281 350.122 220.17 341.09 220.115 332.11C220.06 325.726 223.765 322.871 230.291 322.819C239.416 322.819 248.542 322.819 257.667 322.923C264.138 322.975 267.732 325.778 267.622 332.266C267.456 340.571 267.732 348.928 267.566 357.234C267.456 365.124 264.801 367.512 256.395 367.667C252.247 367.823 248.044 367.719 243.841 367.719Z" fill="url(#paint5_linear_6931_1255)"/>
<path d="M55.8025 300.239C51.1016 300.239 46.4561 300.343 41.7552 300.187C35.9481 300.031 32.4639 297.436 32.3532 291.674C32.2426 282.642 32.1321 273.61 32.0768 264.63C32.0215 258.245 35.7267 255.39 42.2527 255.338C51.3781 255.338 60.5035 255.338 69.6288 255.442C76.0995 255.494 79.6943 258.297 79.5837 264.786C79.4178 273.091 79.6942 281.448 79.5283 289.753C79.4177 297.643 76.7633 300.031 68.3569 300.187C64.209 300.343 60.0057 300.239 55.8025 300.239Z" fill="url(#paint6_linear_6931_1255)"/>
<path d="M155.354 180.85C150.653 180.85 146.008 180.954 141.307 180.798C135.5 180.642 132.016 178.047 131.905 172.285C131.794 163.253 131.684 154.221 131.629 145.241C131.573 138.857 135.278 136.002 141.804 135.95C150.93 135.95 160.055 135.95 169.181 136.053C175.651 136.105 179.246 138.908 179.135 145.397C178.97 153.702 179.246 162.059 179.08 170.365C178.969 178.255 176.315 180.642 167.909 180.798C163.761 180.954 159.557 180.85 155.354 180.85Z" fill="url(#paint7_linear_6931_1255)"/>
<path d="M293.839 411.061C289.691 411.061 285.488 411.165 281.34 411.009C276.196 410.853 273.044 408.569 272.989 403.43C272.878 395.385 272.767 387.391 272.712 379.345C272.657 373.687 275.92 371.092 281.782 371.092C289.912 371.092 298.042 371.092 306.172 371.196C311.924 371.248 315.131 373.739 315.076 379.501C314.965 386.924 315.187 394.347 315.021 401.769C314.91 408.777 312.587 410.905 305.066 411.061C301.305 411.165 297.599 411.113 293.839 411.061Z" fill="url(#paint8_linear_6931_1255)"/>
<path d="M39.4323 354.015C36.3352 354.015 33.2382 354.067 30.1964 354.015C26.3804 353.911 24.0576 352.198 24.0023 348.409C23.8917 342.44 23.8365 336.522 23.7812 330.553C23.7259 326.348 26.1591 324.428 30.4729 324.428C36.5012 324.428 42.4742 324.428 48.5024 324.48C52.7609 324.532 55.139 326.348 55.0837 330.657C54.9731 336.159 55.139 341.661 55.0837 347.111C54.9731 352.302 53.2586 353.86 47.7281 353.963C44.9628 354.067 42.1976 354.015 39.4323 354.015Z" fill="url(#paint9_linear_6931_1255)"/>
<path d="M80.6358 400.733C78.0364 400.733 75.4373 400.785 72.8379 400.733C69.6302 400.629 67.6945 399.228 67.6392 396.009C67.5839 391.026 67.5284 386.043 67.4731 381.06C67.4731 377.53 69.4642 375.921 73.1144 375.921C78.1471 375.921 83.1798 375.921 88.2679 375.973C91.8627 376.025 93.8537 377.53 93.7984 381.164C93.7431 385.783 93.8537 390.403 93.7984 394.971C93.7431 399.331 92.2499 400.629 87.6043 400.733C85.2815 400.733 82.9586 400.733 80.6358 400.733Z" fill="#F20900"/>
<path d="M16.482 250.199C13.219 250.199 9.95596 250.251 6.74826 250.199C2.71099 250.095 0.277607 248.278 0.222301 244.281C0.111691 238.001 0.0561701 231.772 0.000864984 225.491C-0.0544401 221.079 2.54501 219.054 7.02472 219.054C13.3295 219.054 19.6895 219.054 25.9943 219.106C30.474 219.158 33.0181 221.079 32.9075 225.595C32.7969 231.356 32.9628 237.17 32.9075 242.932C32.7969 248.382 30.972 250.043 25.165 250.147C22.2891 250.251 19.3579 250.199 16.482 250.199Z" fill="url(#paint10_linear_6931_1255)"/>
<defs>
<linearGradient id="paint0_linear_6931_1255" x1="218.787" y1="167.669" x2="298.388" y2="242.384" gradientUnits="userSpaceOnUse">
<stop stop-color="#FFC444"/>
<stop offset="1" stop-color="#F2994A"/>
</linearGradient>
<linearGradient id="paint1_linear_6931_1255" x1="128.463" y1="378.67" x2="227.995" y2="458.204" gradientUnits="userSpaceOnUse">
<stop stop-color="#FF928E"/>
<stop offset="1" stop-color="#FB6FBB"/>
</linearGradient>
<linearGradient id="paint2_linear_6931_1255" x1="240.867" y1="237.376" x2="107.97" y2="358.743" gradientUnits="userSpaceOnUse">
<stop stop-color="#D600F9"/>
<stop offset="1" stop-color="#C00694"/>
</linearGradient>
<linearGradient id="paint3_linear_6931_1255" x1="293.427" y1="273.247" x2="293.427" y2="312.498" gradientUnits="userSpaceOnUse">
<stop stop-color="#94D2FF"/>
<stop offset="1" stop-color="#3BA5F3"/>
</linearGradient>
<linearGradient id="paint4_linear_6931_1255" x1="44.16" y1="165.786" x2="142.963" y2="254.86" gradientUnits="userSpaceOnUse">
<stop stop-color="#2554FD"/>
<stop offset="1" stop-color="#161CD8"/>
</linearGradient>
<linearGradient id="paint5_linear_6931_1255" x1="243.869" y1="322.819" x2="243.869" y2="367.753" gradientUnits="userSpaceOnUse">
<stop stop-color="#1824DD"/>
<stop offset="1" stop-color="#2E12BC"/>
</linearGradient>
<linearGradient id="paint6_linear_6931_1255" x1="55.8312" y1="255.338" x2="55.8312" y2="300.273" gradientUnits="userSpaceOnUse">
<stop stop-color="#F36F56"/>
<stop offset="1" stop-color="#F0401F"/>
</linearGradient>
<linearGradient id="paint7_linear_6931_1255" x1="155.383" y1="135.95" x2="155.383" y2="180.884" gradientUnits="userSpaceOnUse">
<stop stop-color="#4ADAFD"/>
<stop offset="1" stop-color="#06C2DC"/>
</linearGradient>
<linearGradient id="paint8_linear_6931_1255" x1="293.898" y1="371.092" x2="293.898" y2="411.121" gradientUnits="userSpaceOnUse">
<stop stop-color="#F2994A"/>
<stop offset="1" stop-color="#FF7A03"/>
</linearGradient>
<linearGradient id="paint9_linear_6931_1255" x1="39.4378" y1="324.428" x2="39.4378" y2="354.038" gradientUnits="userSpaceOnUse">
<stop stop-color="#FFC444"/>
<stop offset="1" stop-color="#F2994A"/>
</linearGradient>
<linearGradient id="paint10_linear_6931_1255" x1="16.4596" y1="219.054" x2="16.4596" y2="250.222" gradientUnits="userSpaceOnUse">
<stop stop-color="#F36F56"/>
<stop offset="1" stop-color="#F0401F"/>
</linearGradient>
</defs>
</svg>
