<svg id="Capa_1" enable-background="new 0 0 512 512" height="512" viewBox="0 0 512 512" width="512" xmlns="http://www.w3.org/2000/svg"><g><path d="m238.866 239.934c0-8.284-6.716-15-15-15h-17.133v-65.334c0-8.284-6.716-15-15-15h-32.133c-8.284 0-15 6.716-15 15s6.716 15 15 15h17.134v50.334h-17.134c-8.284 0-15 6.716-15 15s6.716 15 15 15h64.267c8.283 0 14.999-6.716 14.999-15z"/><path d="m191.733 118.366c8.284 0 15-6.716 15-15v-16.066c0-8.284-6.716-15-15-15s-15 6.716-15 15v16.066c0 8.284 6.716 15 15 15z"/><path d="m464.866 80.325h-81.399v-33.196c0-25.594-20.699-47.129-47.134-47.129h-289.199c-26.429 0-47.134 21.527-47.134 47.129v240.975c0 26.08 21.102 47.128 47.134 47.128h32.133c9.584 0 17.134 7.813 17.134 17.132v64.26c0 6.245 3.869 11.835 9.713 14.036 9.884 3.724 16.422-3.983 16.561-4.141l39.77-45.307c5.588 19.793 23.798 34.345 45.356 34.345h79.088c14.177 0 27.675 6.113 37.029 16.767l65.409 74.52c.145.165 6.68 7.863 16.561 4.141 5.844-2.201 9.713-7.791 9.713-14.036v-64.26c0-9.314 7.545-17.132 17.134-17.132h32.133c26.03 0 47.134-21.047 47.134-47.128v-240.975c-.002-25.594-20.701-47.129-47.136-47.129zm-299.334 251.889-39.132 44.586v-24.436c0-25.594-20.699-47.129-47.134-47.129h-32.132c-9.43 0-17.134-7.615-17.134-17.131v-240.975c0-9.318 7.547-17.132 17.134-17.132h289.199c9.59 0 17.134 7.821 17.134 17.132v240.975c0 9.446-7.687 17.131-17.134 17.131h-111.221c-22.808 0-44.522 9.832-59.58 26.979zm316.468 36.215c0 9.486-7.673 17.131-17.134 17.131h-32.133c-26.406 0-47.134 21.504-47.134 47.129v24.436l-39.136-44.589c-15.054-17.144-36.768-26.976-59.576-26.976h-79.087c-9.447 0-17.133-7.685-17.133-17.131v-19.156c9.173-8.966 21.527-14.041 34.445-14.041h111.221c25.989 0 47.134-21.141 47.134-47.128v-177.782h81.399c9.591 0 17.134 7.821 17.134 17.132z"/></g></svg>