<svg id="Layer_5" enable-background="new 0 0 64 64" height="512" viewBox="0 0 64 64" width="512" xmlns="http://www.w3.org/2000/svg"><g><path d="m31 18c0-7.168-5.832-13-13-13s-13 5.832-13 13 5.832 13 13 13 13-5.832 13-13zm-13 1c.925 0 1.813.164 2.643.455-.51.962-1.516 1.608-2.643 1.608s-2.133-.646-2.643-1.608c.83-.291 1.718-.455 2.643-.455zm-3-5c0-1.654 1.346-3 3-3s3 1.346 3 3-1.346 3-3 3-3-1.346-3-3zm4 14.949v-5.999c1.478-.307 2.736-1.276 3.426-2.608 1.79 1.19 3.074 3.084 3.45 5.321-1.781 1.83-4.189 3.043-6.876 3.286zm-1-21.949c6.065 0 11 4.935 11 11 0 2.071-.586 4.003-1.585 5.659-.996-2.821-3.203-5.031-5.978-6.045.958-.912 1.563-2.191 1.563-3.614 0-2.757-2.243-5-5-5s-5 2.243-5 5c0 1.423.605 2.702 1.563 3.613-2.775 1.015-4.981 3.224-5.978 6.045-.999-1.655-1.585-3.587-1.585-5.658 0-6.065 4.935-11 11-11zm-7.876 18.663c.376-2.236 1.66-4.13 3.45-5.321.69 1.332 1.948 2.301 3.426 2.608v5.999c-2.687-.243-5.095-1.456-6.876-3.286z"/><path d="m50 1h2v4h-2z"/><path d="m40.5 4.379h2v4.243h-2z" transform="matrix(.707 -.707 .707 .707 7.559 31.249)"/><path d="m58.379 5.5h4.243v2h-4.243z" transform="matrix(.707 -.707 .707 .707 13.124 44.684)"/><path d="m55 33v28h-2v-24h-8v24h-2v-14h-8v14h-2v-16h-8v16h-3.026c.635-.838 1.026-1.87 1.026-3v-16c0-1.065-.562-1.997-1.401-2.529.248-.437.401-.934.401-1.471v-3.495c2.476-.6 4.744-1.732 6.666-3.286l5.31 5.841c-.606.827-.976 1.838-.976 2.94 0 2.757 2.243 5 5 5s5-2.243 5-5c0-1.083-.355-2.08-.943-2.9l6.196-6.672c.493.356 1.094.572 1.747.572h2c1.654 0 3-1.346 3-3v-2.792c0-.669.33-1.297.861-1.639 2.592-1.665 4.139-4.495 4.139-7.569 0-2.56-1.096-5.007-3.006-6.714-1.909-1.705-4.474-2.519-7.039-2.227-4.051.458-7.365 3.723-7.88 7.763-.447 3.508 1.118 6.865 4.084 8.761.519.331.84.97.84 1.667v2.75c0 .253.041.495.1.73l-6.513 7.013c-.756-.462-1.636-.743-2.586-.743-.931 0-1.794.273-2.541.718l-5.314-5.845c2.998-3.067 4.855-7.255 4.855-11.873 0-9.374-7.626-17-17-17s-17 7.626-17 17c0 7.994 5.553 14.699 13 16.505v3.495c0 .537.153 1.034.401 1.471-.839.532-1.401 1.464-1.401 2.529v16c0 2.757 2.243 5 5 5h45v-30zm-8 6h4v22h-4zm-10 10h4v12h-4zm-10-2h4v14h-4zm25-18h-2c-.551 0-1-.449-1-1v-1h4v1c0 .551-.449 1-1 1zm-2-13c0-.551.449-1 1-1s1 .449 1 1-.449 1-1 1-1-.449-1-1zm-5.94-.925c.4-3.137 2.974-5.673 6.12-6.029.278-.031.554-.046.829-.046 1.725 0 3.353.617 4.652 1.778 1.486 1.327 2.339 3.231 2.339 5.222 0 2.39-1.204 4.591-3.22 5.887-1.057.68-1.702 1.833-1.767 3.113h-1.013v-6.184c1.161-.414 2-1.514 2-2.816 0-1.654-1.346-3-3-3s-3 1.346-3 3c0 1.302.839 2.402 2 2.816v6.184h-1.015c-.074-1.291-.711-2.439-1.748-3.102-2.309-1.475-3.526-4.089-3.177-6.823zm-3.06 24.925c0 1.654-1.346 3-3 3s-3-1.346-3-3 1.346-3 3-3 3 1.346 3 3zm-38-22c0-8.271 6.729-15 15-15s15 6.729 15 15-6.729 15-15 15-15-6.729-15-15zm15 17c.678 0 1.343-.051 2-.128v3.128c0 .551-.449 1-1 1h-2c-.551 0-1-.449-1-1v-3.128c.657.077 1.322.128 2 .128zm-3 23v-16c0-.551.449-1 1-1h1 2 1c.551 0 1 .449 1 1v16c0 1.654-1.346 3-3 3s-3-1.346-3-3zm46 3h-4v-26h4z"/></g></svg>