<svg width="42" height="42" viewBox="0 0 42 42" fill="none" xmlns="http://www.w3.org/2000/svg">
<g clip-path="url(#clip0_5953_1451)">
<rect width="42" height="42" rx="5" fill="white"/>
<path d="M38.0625 0H3.9375C1.77188 0 0 1.77188 0 3.9375V38.0625C0 40.2281 1.77188 42 3.9375 42H38.0625C40.2281 42 42 40.2281 42 38.0625V3.9375C42 1.77188 40.2281 0 38.0625 0ZM15.75 34.125H10.5V15.75H15.75V34.125ZM13.125 13.125C12.4288 13.125 11.7611 12.8484 11.2688 12.3562C10.7766 11.8639 10.5 11.1962 10.5 10.5C10.5 9.80381 10.7766 9.13613 11.2688 8.64384C11.7611 8.15156 12.4288 7.875 13.125 7.875C13.8212 7.875 14.4889 8.15156 14.9812 8.64384C15.4734 9.13613 15.75 9.80381 15.75 10.5C15.75 11.1962 15.4734 11.8639 14.9812 12.3562C14.4889 12.8484 13.8212 13.125 13.125 13.125ZM34.125 34.125H28.875V23.625C28.875 22.9288 28.5984 22.2611 28.1062 21.7688C27.6139 21.2766 26.9462 21 26.25 21C25.5538 21 24.8861 21.2766 24.3938 21.7688C23.9016 22.2611 23.625 22.9288 23.625 23.625V34.125H18.375V15.75H23.625V19.0076C24.7065 17.5219 26.3655 15.75 28.2188 15.75C31.4842 15.75 34.125 18.6874 34.125 22.3125V34.125Z" fill="#0274B3"/>
</g>
<defs>
<clipPath id="clip0_5953_1451">
<rect width="42" height="42" fill="white"/>
</clipPath>
</defs>
</svg>
