<svg width="20" height="20" viewBox="0 0 20 20" fill="none" xmlns="http://www.w3.org/2000/svg">
<path d="M17.7778 0H2.22222C0.988889 0 0 0.988889 0 2.22222V6.66667H2.22222V2.22222H17.7778V17.7778H2.22222V13.3333H0V17.7778C0 18.3671 0.234126 18.9324 0.650874 19.3491C1.06762 19.7659 1.63285 20 2.22222 20H17.7778C18.3671 20 18.9324 19.7659 19.3491 19.3491C19.7659 18.9324 20 18.3671 20 17.7778V2.22222C20 0.988889 19 0 17.7778 0ZM7.86667 13.9778L9.44444 15.5556L15 10L9.44444 4.44444L7.86667 6.01111L10.7444 8.88889H0V11.1111H10.7444L7.86667 13.9778Z" fill="#339FED"/>
</svg>
