<svg width="40" height="40" viewBox="0 0 40 40" fill="none" xmlns="http://www.w3.org/2000/svg">
<circle cx="20" cy="20" r="20" fill="#EEF7FA"/>
<path d="M22.2873 30.1034C20.4708 30.1034 18.6542 30.1034 16.8377 30.1034C16.9258 28.6605 16.4239 28.154 16.1649 27.9667C15.6462 27.5916 14.5368 27.3616 13.654 27.4012C13.4482 27.4106 13.029 27.4433 12.6449 27.2126C12.3751 27.0505 12.2425 26.8274 12.1739 26.7099C11.7938 26.0582 12.1282 25.602 11.8375 24.7618C11.8045 24.6669 11.6357 24.1962 11.6357 24.1962C11.6357 24.1962 11.7177 24.1183 11.7702 24.0705C11.931 23.9254 11.9842 23.9122 11.9795 23.8732C11.9741 23.8248 11.8833 23.833 11.7702 23.7563C11.5771 23.6256 11.4614 23.4515 11.4338 23.3793C11.3894 23.2636 11.4486 23.0701 11.5684 22.688C11.6646 22.3826 11.748 22.1752 11.6357 21.9967C11.6357 21.9967 11.631 21.9892 11.6229 21.9785C11.6229 21.9785 11.6074 21.9578 11.5893 21.9377C11.5704 21.9169 11.012 21.6517 10.2383 21.3055C10.646 20.5181 11.0598 19.9355 11.3659 19.5459C11.7278 19.0853 11.9014 18.9464 12.0918 18.5769C12.4679 17.8479 12.4424 17.1811 12.4424 16.7808C12.4424 15.2117 12.8427 13.8486 12.9806 13.4502C13.5814 11.7164 15.2836 10.7637 15.8736 10.4338C18.6852 8.8602 21.6663 9.63882 22.399 9.82986C23.4674 10.1089 25.1776 10.7543 26.6383 12.2562C27.0588 12.6885 28.7589 14.5292 28.9345 17.3364C28.9648 17.8177 29.102 20.6808 27.1092 22.9394C25.5416 24.7165 24.3259 24.8642 23.207 26.8356C22.5127 28.061 22.329 29.26 22.2873 30.1034ZM17.8799 17.6078C17.6848 16.7972 18.0137 15.9727 18.7 15.524C19.2544 15.162 20.02 15.0602 20.6511 15.3355C21.5123 15.7113 21.8863 16.6746 21.7948 17.4093C21.6791 18.3355 20.8637 18.5794 19.911 19.9229C19.3418 20.7254 19.0411 21.4726 18.881 21.9515C19.6049 21.9515 20.3221 21.9515 21.0393 21.9515C21.6065 20.9693 22.1817 20.261 22.6022 19.7973C23.3093 19.0161 23.6309 18.8691 23.8805 18.289C24.371 17.1497 23.9061 16.0154 23.8058 15.7848C23.0994 14.166 21.3562 13.6576 21.0548 13.5759C20.7466 13.4917 18.4181 12.8959 16.9507 14.3928C15.694 15.6754 16.1077 17.4344 16.1515 17.6078C16.6863 17.6078 17.2353 17.6078 17.8799 17.6078ZM19.5625 25.8986C19.7583 25.9024 19.9548 25.9055 20.1505 25.9093C20.4822 25.4172 21.1146 24.895 21.0635 24.4407C21.009 23.9605 20.3033 23.5445 19.8821 23.1009C19.4475 23.5332 18.7215 23.9335 18.6623 24.4067C18.6058 24.8655 19.2349 25.3984 19.5625 25.8986Z" fill="#19ACE3"/>
<path d="M32.4881 19.286C34.1214 19.286 35.7547 19.286 37.388 19.286C37.3247 17.7472 37.0225 15.1809 35.6866 12.3444C34.4889 9.80187 32.9406 8.06104 31.8756 7.03613C30.9003 8.14746 29.9244 9.25948 28.9492 10.3708C29.7455 11.2331 30.9568 12.7691 31.7395 14.9985C32.3424 16.7149 32.4785 18.2366 32.4881 19.286Z" fill="#4AD6A3"/>
<path d="M37.3204 20.8511C37.2768 21.6596 37.172 22.7362 36.912 23.9816C36.7031 24.9834 36.3533 26.6017 35.4148 28.4732C34.8718 29.5559 33.9333 31.1178 32.3524 32.6926C31.1049 31.3315 29.8568 29.9704 28.6094 28.6093C29.4009 27.8301 30.5612 26.4887 31.3996 24.526C32.0107 23.0962 32.253 21.7991 32.3524 20.8511C34.0088 20.8511 35.6646 20.8511 37.3204 20.8511Z" fill="#4AD6A3"/>
<path d="M27.3853 29.5623C28.6559 30.9458 29.9258 32.33 31.1964 33.7136C30.0218 34.8038 28.3374 36.0451 26.0923 36.8441C25.6241 37.0108 25.1688 37.1449 24.7312 37.2524C24.6407 37.0939 24.5495 36.9346 24.459 36.776C24.5937 35.8029 24.7332 34.9147 24.8673 34.1219C25.1919 32.2014 25.4254 31.2024 26.0242 30.6511C26.0549 30.6225 26.3808 30.3299 26.8409 29.9706C27.0655 29.7957 27.2553 29.6562 27.3853 29.5623Z" fill="#4AD6A3"/>
<path d="M6.96829 19.2858C5.33498 19.2858 3.70167 19.2858 2.06836 19.2858C2.13778 17.7552 2.4481 15.2175 3.76972 12.4123C4.96817 9.86906 6.51709 8.12755 7.58078 7.104C8.57915 8.21534 9.57683 9.32735 10.5752 10.4387C9.7701 11.2812 8.51858 12.8138 7.71689 15.0664C7.11665 16.7541 6.97918 18.2534 6.96829 19.2858Z" fill="#4AD6A3"/>
<path d="M2 20.8511C2.0769 22.042 2.28243 23.4589 2.7486 25.0024C3.85925 28.6794 5.88796 31.2097 7.24021 32.6245C8.46519 31.241 9.69017 29.8567 10.9152 28.4732C10.1373 27.711 9.04842 26.4595 8.19297 24.6621C7.48792 23.1813 7.17964 21.8297 7.03604 20.8511C5.35782 20.8511 3.67891 20.8511 2 20.8511Z" fill="#4AD6A3"/>
<path d="M12.1392 29.4941C10.8686 30.9008 9.5987 32.3068 8.32812 33.7135C9.42721 34.733 10.9754 35.9035 13.0239 36.776C13.6139 37.0271 14.1849 37.2279 14.7253 37.3885C14.8389 37.1619 14.9519 36.9345 15.0655 36.7079C14.9308 35.7347 14.7913 34.8466 14.6572 34.0538C14.3326 32.1333 14.0992 31.1343 13.5003 30.583C13.4697 30.5544 13.1437 30.2618 12.6836 29.9025C12.4597 29.7276 12.2698 29.5881 12.1392 29.4941Z" fill="#4AD6A3"/>
<path d="M18.8787 2C18.8787 3.47474 18.8787 4.94881 18.8787 6.42355C17.9532 6.50453 16.6533 6.71959 15.2038 7.30826C13.6249 7.94933 12.4714 8.78777 11.733 9.41795C10.7578 8.32908 9.78186 7.2402 8.80664 6.15133C9.76689 5.31426 11.2348 4.22402 13.2302 3.36109C15.4937 2.38247 17.5272 2.08847 18.8787 2Z" fill="#4AD6A3"/>
<path d="M30.7196 6.01522C29.7444 7.1041 28.7685 8.19297 27.7933 9.28184C27.0896 8.68024 25.9578 7.85474 24.3905 7.24021C22.7933 6.6141 21.3764 6.45554 20.4434 6.42355C20.4434 4.94881 20.4434 3.47474 20.4434 2C21.7888 2.05921 23.8168 2.30625 26.0919 3.22498C28.1914 4.07226 29.7301 5.17951 30.7196 6.01522Z" fill="#4AD6A3"/>
<path d="M22.4414 33.305C22.4414 33.7358 22.4414 34.1673 22.4414 34.5981C20.6094 34.6001 18.7773 34.6022 16.9453 34.6042C16.9453 34.1891 16.9453 33.7896 16.9453 33.2969C18.7773 33.3003 20.6094 33.303 22.4414 33.305Z" fill="#19ACE3"/>
<path d="M22.4414 35.2827C22.4414 35.7135 22.4414 36.145 22.4414 36.5758C20.6094 36.5669 18.7773 36.5574 16.9453 36.5485C16.9453 36.1334 16.9453 35.7339 16.9453 35.2412C18.7773 35.2548 20.6094 35.2684 22.4414 35.2827Z" fill="#19ACE3"/>
<path d="M17.6777 37.1841C18.9932 37.1841 20.3094 37.1841 21.6249 37.1841C21.6249 37.2977 21.6249 37.4107 21.6249 37.5244C21.5575 37.6162 20.8348 38.5663 19.5833 38.5452C18.4345 38.5254 17.7648 37.7033 17.6777 37.5924C17.6777 37.4563 17.6777 37.3202 17.6777 37.1841Z" fill="#19ACE3"/>
</svg>
