<svg width="120" height="30" viewBox="0 0 120 30" fill="none" xmlns="http://www.w3.org/2000/svg">
<path d="M35.9822 22C35.7058 22 35.4729 21.9082 35.2838 21.7246C35.0946 21.541 35 21.315 35 21.0466V7.97458C35 7.70621 35.0946 7.48023 35.2838 7.29661C35.4729 7.09887 35.7058 7 35.9822 7C36.2587 7 36.4916 7.09887 36.6807 7.29661C36.8844 7.48023 36.9863 7.70621 36.9863 7.97458V21.0466C36.9863 21.315 36.8844 21.541 36.6807 21.7246C36.4916 21.9082 36.2587 22 35.9822 22Z" fill="white"/>
<path d="M42.2065 22C41.93 22 41.6972 21.9082 41.508 21.7246C41.3189 21.541 41.2243 21.315 41.2243 21.0466V8.3983C41.2243 8.01695 41.3625 7.69209 41.639 7.42373C41.9155 7.14124 42.2502 7 42.6431 7H43.3634C43.6544 7 43.9163 7.08475 44.1492 7.25424C44.3965 7.42373 44.5784 7.63559 44.6949 7.88983L49.6497 19.8814L54.6046 7.88983C54.721 7.63559 54.8956 7.42373 55.1284 7.25424C55.3758 7.08475 55.645 7 55.9361 7H56.6564C57.0493 7 57.384 7.14124 57.6604 7.42373C57.9369 7.69209 58.0752 8.01695 58.0752 8.3983V21.0466C58.0752 21.315 57.9806 21.541 57.7914 21.7246C57.6022 21.9082 57.3694 22 57.0929 22C56.8164 22 56.5763 21.9082 56.3726 21.7246C56.1834 21.541 56.0889 21.315 56.0889 21.0466V9.01271L51.0467 21.1102C50.9303 21.3785 50.7411 21.5975 50.4792 21.7669C50.2318 21.9223 49.9553 22 49.6497 22C49.3441 22 49.0604 21.9223 48.7984 21.7669C48.5511 21.5975 48.3692 21.3785 48.2528 21.1102L43.2106 9.01271V21.0466C43.2106 21.315 43.1087 21.541 42.905 21.7246C42.7158 21.9082 42.483 22 42.2065 22Z" fill="white"/>
<path d="M62.2621 22C61.9711 22 61.731 21.9082 61.5418 21.7246C61.3672 21.541 61.2799 21.315 61.2799 21.0466C61.2799 20.9336 61.3163 20.7924 61.389 20.6229L66.9551 7.86864C67.0715 7.61441 67.2316 7.4096 67.4353 7.25424C67.6535 7.08475 67.9155 7 68.2211 7H68.4393C68.7449 7 68.9996 7.08475 69.2033 7.25424C69.4216 7.4096 69.5889 7.61441 69.7053 7.86864L75.2714 20.6229C75.3441 20.7924 75.3805 20.9336 75.3805 21.0466C75.3805 21.315 75.2859 21.541 75.0968 21.7246C74.9221 21.9082 74.6893 22 74.3983 22C74.1945 22 74.0054 21.9506 73.8308 21.8517C73.6707 21.7387 73.547 21.5904 73.4597 21.4068L72.0409 18.1017H64.6195L63.2007 21.4068C63.1134 21.5904 62.9824 21.7387 62.8078 21.8517C62.6478 21.9506 62.4659 22 62.2621 22ZM65.3835 16.3432H71.2769L68.3302 9.45763L65.3835 16.3432Z" fill="white"/>
<path d="M82.8488 22C82.2522 22 81.8011 21.6751 81.4955 21.0254L76.1041 8.33474C76.0604 8.22175 76.0386 8.1017 76.0386 7.97458C76.0386 7.67797 76.1259 7.44491 76.3005 7.27542C76.4751 7.09181 76.7152 7 77.0208 7C77.2245 7 77.4064 7.06356 77.5665 7.19068C77.7411 7.30367 77.8721 7.45904 77.9594 7.65678L83.0889 20.072L88.2184 7.65678C88.3057 7.45904 88.4294 7.30367 88.5894 7.19068C88.7641 7.06356 88.9532 7 89.157 7C89.4625 7 89.7026 7.09181 89.8773 7.27542C90.0519 7.44491 90.1392 7.67797 90.1392 7.97458C90.1392 8.1017 90.1174 8.22175 90.0737 8.33474L84.6823 21.0254C84.3767 21.6751 83.9256 22 83.329 22H82.8488Z" fill="white"/>
<path d="M93.7699 21.8941C93.4934 21.8941 93.2606 21.8023 93.0714 21.6186C92.8823 21.435 92.7877 21.209 92.7877 20.9407V8.08051C92.7877 7.81215 92.8823 7.58616 93.0714 7.40254C93.2606 7.2048 93.4934 7.10593 93.7699 7.10593H102.523C102.785 7.10593 103.003 7.19774 103.178 7.38135C103.367 7.55085 103.461 7.76271 103.461 8.01695C103.461 8.27119 103.367 8.48305 103.178 8.65254C103.003 8.82203 102.785 8.90678 102.523 8.90678H94.774V13.589H101.737C101.999 13.589 102.217 13.6808 102.392 13.8644C102.581 14.0339 102.676 14.2458 102.676 14.5C102.676 14.7542 102.581 14.9661 102.392 15.1356C102.217 15.3051 101.999 15.3898 101.737 15.3898H94.774V20.0932H102.523C102.785 20.0932 103.003 20.185 103.178 20.3686C103.367 20.5381 103.461 20.75 103.461 21.0042C103.461 21.2585 103.367 21.4703 103.178 21.6398C103.003 21.8093 102.785 21.8941 102.523 21.8941H93.7699Z" fill="white"/>
<path d="M107.689 22C107.413 22 107.18 21.9082 106.991 21.7246C106.802 21.541 106.707 21.315 106.707 21.0466V8.3983C106.707 8.01695 106.845 7.69209 107.122 7.42373C107.398 7.14124 107.733 7 108.126 7H108.41C108.875 7 109.275 7.21186 109.61 7.63559L118.014 19.4153V7.97458C118.014 7.70621 118.108 7.48023 118.297 7.29661C118.487 7.09887 118.719 7 118.996 7C119.272 7 119.505 7.09887 119.694 7.29661C119.898 7.48023 120 7.70621 120 7.97458V20.6229C120 21.0042 119.854 21.3291 119.563 21.5975C119.287 21.8658 118.952 22 118.559 22H118.297C118.065 22 117.846 21.9506 117.643 21.8517C117.439 21.7387 117.272 21.5975 117.141 21.428L108.693 9.58475V21.0466C108.693 21.315 108.591 21.541 108.388 21.7246C108.199 21.9082 107.966 22 107.689 22Z" fill="white"/>
<path d="M15.2162 28.7439C15.5827 26.8079 16.0591 25.1322 17.3942 23.7908C18.0669 23.1151 18.9334 22.8645 19.8967 22.7465C20.6821 22.6507 21.4883 22.4935 22.2108 22.2036C23.0276 21.8768 23.2396 21.066 22.7867 20.3412C22.4726 19.8375 22.2763 19.4026 22.614 18.813C22.8784 18.3486 22.4569 18.1324 21.9595 18.039C22.0511 17.9162 22.0983 17.8277 22.1689 17.7589C22.8548 17.0833 22.8469 16.9899 22.0066 16.5378C21.6716 16.356 21.5747 16.1447 21.8731 15.8597C21.9045 15.8302 21.9307 15.7983 21.9674 15.7737C23.093 15.017 22.8967 14.42 21.4805 13.9531C20.4883 13.6264 19.5721 13.2087 19.2266 12.1792C19.0905 11.7738 19.0381 11.3414 18.9517 10.9213C18.3758 8.12035 16.4701 6.46437 13.6822 5.61427C11.7896 5.03688 9.84199 4.97301 7.73995 5.32435C7.73995 4.62903 7.72424 3.97303 7.75827 3.31948C7.76351 3.2212 7.98602 3.08853 8.13523 3.04676C8.65354 2.89443 9.17709 2.74456 9.70849 2.65365C10.164 2.57749 10.3158 2.36127 10.3394 1.94851C10.3682 1.43992 10.4258 0.926417 10.5462 0.432571C10.5881 0.265498 10.8498 0.029632 11.0226 0.0222612C11.9362 -0.0170499 12.8498 0.0124343 13.766 0.000149582C14.1115 -0.00476431 14.2843 0.11071 14.3157 0.447312C14.3681 0.99521 14.4204 1.55048 14.5487 2.08609C14.5984 2.28756 14.8262 2.53817 15.033 2.60451C15.7293 2.833 16.4466 3.01482 17.1691 3.15732C17.3628 3.19663 17.6743 3.08607 17.8104 2.94111C18.1847 2.54555 18.5146 2.10821 18.8235 1.66596C19.0722 1.3097 19.3182 1.29496 19.6873 1.51117C20.4255 1.94113 21.1821 2.34653 21.9438 2.73964C22.271 2.90917 22.3836 3.06642 22.1899 3.41285C21.9281 3.88212 21.7658 4.39808 21.5014 4.8649C21.3208 5.1843 21.3862 5.38577 21.6375 5.61427C22.1689 6.09583 22.6689 6.60933 23.2213 7.06632C23.3705 7.18917 23.6977 7.24322 23.8914 7.1818C24.4464 7.0049 24.983 6.77395 25.5066 6.5258C25.8312 6.37101 26.0144 6.41523 26.1898 6.71498C26.6322 7.46435 27.0877 8.2088 27.5641 8.94097C27.7866 9.28249 27.6976 9.48887 27.3625 9.69525C26.928 9.96552 26.5275 10.2849 26.0956 10.5601C25.7657 10.7739 25.6532 10.9827 25.8076 11.3783C26.0406 11.9679 26.1976 12.5895 26.3416 13.2062C26.4254 13.5723 26.627 13.7099 27.0091 13.7369C27.551 13.7762 28.0877 13.8721 28.6295 13.9138C29.0039 13.9433 29.1662 14.0809 29.1557 14.4494C29.1348 15.2873 29.14 16.1251 29.1531 16.9629C29.1583 17.2848 29.0536 17.4567 28.6819 17.4764C28.2709 17.501 27.8599 17.6238 27.4515 17.6091C26.6374 17.5796 26.2997 17.9481 26.2003 18.6656C26.1401 19.1054 26.0144 19.555 25.8181 19.9579C25.6034 20.4002 25.7553 20.6311 26.1374 20.8645C26.5746 21.1323 26.9725 21.4542 27.4044 21.7294C27.7186 21.9284 27.7788 22.1348 27.5772 22.4443C27.127 23.1421 26.6819 23.8448 26.2657 24.5622C26.0615 24.916 25.8495 25.0315 25.4385 24.83C24.9568 24.5966 24.4569 24.378 23.9385 24.2379C23.7108 24.1765 23.3495 24.2428 23.1663 24.3853C22.6506 24.7907 22.2082 25.2723 21.7187 25.7072C21.436 25.9578 21.3051 26.174 21.5276 26.5524C21.7999 27.0118 22.0066 27.5155 22.1742 28.0192C22.2292 28.1813 22.1375 28.5032 22.0014 28.5867C21.1952 29.0707 20.3679 29.5228 19.5198 29.938C19.3732 30.0093 19.0172 29.9085 18.8941 29.7783C18.5067 29.368 18.2162 28.8742 17.8183 28.4737C17.6612 28.3164 17.3 28.2304 17.0591 28.2698C16.4989 28.3607 15.9492 28.5499 15.2162 28.7439Z" fill="white"/>
<path d="M6.65095 10.7467C6.44938 10.5354 6.22688 10.3953 6.2452 10.2995C6.27661 10.1521 6.47294 10.0341 6.59859 9.90393C6.71639 10.0145 6.91273 10.1152 6.93367 10.243C6.95461 10.3634 6.79231 10.5108 6.65095 10.7467Z" fill="white"/>
<path d="M13.6659 9.12029C14.0271 9.12029 14.3884 9.11783 14.7496 9.12029C15.103 9.12274 15.2077 9.22102 15.2077 9.54288C15.2104 9.95565 15.2104 10.3709 15.2077 10.7836C15.2051 11.1325 15.0821 11.2431 14.7104 11.2431C14.0167 11.2431 13.323 11.2431 12.6292 11.2406C12.3073 11.2406 12.1973 11.1399 12.1921 10.8401C12.1842 10.4004 12.1895 9.9581 12.1842 9.51831C12.179 9.17434 12.0769 9.08098 11.7183 9.08098C11.3361 9.08098 10.9513 9.08343 10.5691 9.08098C10.2707 9.07852 10.1345 8.94585 10.1319 8.66576C10.1293 8.4692 10.1267 8.27264 10.1319 8.07609C10.1372 7.81565 10.2628 7.67069 10.5325 7.66086C10.9434 7.64366 11.357 7.64121 11.768 7.65349C12.0376 7.66086 12.1528 7.79354 12.1554 8.04414C12.1581 8.26773 12.1528 8.49131 12.1581 8.71489C12.1659 9.00481 12.2785 9.108 12.5795 9.108C12.9408 9.108 13.302 9.108 13.6633 9.108C13.6659 9.11537 13.6659 9.11783 13.6659 9.12029Z" fill="url(#paint0_linear_6117_1234)"/>
<path d="M9.48033 19.1938C9.84158 19.1938 10.2028 19.1913 10.5641 19.1938C10.9175 19.1963 11.0222 19.2945 11.0222 19.6164C11.0248 20.0292 11.0248 20.4444 11.0222 20.8572C11.0196 21.206 10.8965 21.3166 10.5248 21.3166C9.83111 21.3166 9.1374 21.3166 8.4437 21.3141C8.12172 21.3141 8.01178 21.2134 8.00654 20.9137C7.99869 20.4739 8.00393 20.0316 7.9987 19.5918C7.99346 19.2479 7.89136 19.1545 7.53273 19.1545C7.15054 19.1545 6.76573 19.1569 6.38354 19.1545C6.08512 19.152 5.949 19.0194 5.94638 18.7393C5.94376 18.5427 5.94115 18.3462 5.94638 18.1496C5.95162 17.8892 6.07728 17.7442 6.3469 17.7344C6.75789 17.7172 7.17149 17.7147 7.58247 17.727C7.8521 17.7344 7.96727 17.8671 7.96989 18.1177C7.97251 18.3412 7.96728 18.5648 7.97251 18.7884C7.98037 19.0783 8.09292 19.1815 8.39396 19.1815C8.75521 19.1815 9.11646 19.1815 9.47771 19.1815C9.48033 19.1889 9.48033 19.1913 9.48033 19.1938Z" fill="url(#paint1_linear_6117_1234)"/>
<path d="M9.48875 13.9138C9.09609 13.9138 8.70343 13.9064 8.31077 13.9162C7.91026 13.9236 7.68251 14.1325 7.67204 14.5084C7.66157 14.9899 7.67205 15.4715 7.66682 15.9506C7.6642 16.356 7.49928 16.5059 7.07258 16.5059C6.50453 16.5059 5.9391 16.5108 5.37105 16.5059C4.97839 16.5034 4.83703 16.3707 4.83442 16.0071C4.82918 15.4862 4.82918 14.9629 4.8318 14.442C4.83441 14.1153 4.9941 13.9605 5.35797 13.9531C5.92602 13.9457 6.49145 13.9506 7.0595 13.9482C7.52807 13.9457 7.71132 13.7787 7.71655 13.3364C7.72179 12.8868 7.71654 12.4347 7.72178 11.9851C7.72701 11.5527 7.96261 11.3143 8.42595 11.307C9.21127 11.2947 9.9966 11.2996 10.7819 11.3045C11.1039 11.307 11.3683 11.4642 11.3919 11.7566C11.439 12.3119 11.4494 12.877 11.4049 13.4322C11.3788 13.7492 11.0803 13.9015 10.6694 13.9089C10.2741 13.9212 9.88142 13.9138 9.48875 13.9138Z" fill="url(#paint2_linear_6117_1234)"/>
<path d="M13.8879 14.7884C13.6942 14.7884 13.5005 14.7933 13.3068 14.7859C13.0686 14.7786 12.922 14.6729 12.9194 14.4346C12.9141 14.0611 12.9089 13.6877 12.9063 13.3167C12.9037 13.0538 13.0555 12.9334 13.3277 12.9334C13.7047 12.9334 14.0816 12.9334 14.4586 12.9383C14.7256 12.9408 14.8748 13.0563 14.8722 13.3241C14.867 13.668 14.8774 14.012 14.8696 14.3584C14.8644 14.6852 14.7544 14.7835 14.4089 14.7884C14.2361 14.7933 14.0607 14.7909 13.8879 14.7884Z" fill="url(#paint3_linear_6117_1234)"/>
<path d="M3.50065 9.85725C3.80169 9.85725 4.10011 9.85233 4.40115 9.8597C4.70743 9.86708 4.88283 10.0268 4.88806 10.3142C4.89592 10.6828 4.88805 11.0513 4.89067 11.4174C4.89329 11.727 5.01895 11.8425 5.34617 11.8425C5.78071 11.8425 6.21263 11.8474 6.64718 11.8425C6.94822 11.84 7.05555 11.7393 7.05817 11.4592C7.06078 11.0587 7.06079 10.6607 7.06079 10.2602C7.06079 10.0096 6.93513 9.89165 6.66026 9.88673C6.22572 9.87936 5.7938 9.88428 5.35925 9.88182C5.00062 9.87936 4.86189 9.7516 4.85665 9.415C4.85142 9.07103 4.85665 8.72706 4.85403 8.38063C4.8488 8.04894 4.67079 7.86712 4.3174 7.86221C3.71793 7.85238 3.11585 7.8573 2.51639 7.86221C2.27032 7.86467 2.06875 7.98506 2.0478 8.20864C2.01116 8.63369 2.00331 9.06611 2.03734 9.49116C2.05566 9.7344 2.28601 9.84988 2.60014 9.85479C2.90118 9.86216 3.19961 9.85725 3.50065 9.85725Z" fill="url(#paint4_linear_6117_1234)"/>
<path d="M11.541 17.405C11.3185 17.405 11.0986 17.4099 10.8761 17.4025C10.6012 17.3952 10.4363 17.2723 10.4311 16.9996C10.4258 16.5721 10.4206 16.1446 10.418 15.7195C10.4154 15.4173 10.5908 15.2822 10.8997 15.2797C11.3316 15.2797 11.7635 15.2797 12.1954 15.2846C12.5017 15.2871 12.6719 15.4198 12.6666 15.7269C12.6588 16.12 12.6719 16.5156 12.664 16.9087C12.6588 17.2821 12.5331 17.3952 12.1352 17.4025C11.9389 17.4099 11.74 17.405 11.541 17.405Z" fill="url(#paint5_linear_6117_1234)"/>
<path d="M2.64061 14.211C2.4181 14.211 2.19822 14.2159 1.97571 14.2085C1.70085 14.2012 1.53593 14.0783 1.53069 13.8056C1.52546 13.3781 1.52022 12.9506 1.51761 12.5255C1.51499 12.2233 1.69037 12.0882 1.99926 12.0857C2.43119 12.0857 2.86312 12.0857 3.29505 12.0906C3.60132 12.0931 3.77147 12.2258 3.76624 12.5329C3.75839 12.926 3.77147 13.3216 3.76362 13.7147C3.75838 14.0881 3.63274 14.2012 3.23485 14.2085C3.03851 14.2159 2.83956 14.211 2.64061 14.211Z" fill="url(#paint6_linear_6117_1234)"/>
<path d="M7.35155 8.55992C7.12904 8.55992 6.90916 8.56483 6.68665 8.55746C6.41179 8.55009 6.24687 8.42724 6.24163 8.15452C6.23639 7.72702 6.23116 7.2995 6.22854 6.87445C6.22593 6.57225 6.40131 6.43712 6.7102 6.43466C7.14213 6.43466 7.57406 6.43466 8.00599 6.43957C8.31226 6.44203 8.48241 6.57471 8.47718 6.88182C8.46932 7.27494 8.48241 7.6705 8.47456 8.06361C8.46932 8.43707 8.34368 8.55009 7.94578 8.55746C7.74945 8.56483 7.5505 8.55992 7.35155 8.55992Z" fill="url(#paint7_linear_6117_1234)"/>
<path d="M13.9082 19.4566C13.7119 19.4566 13.5129 19.4615 13.3166 19.4541C13.0732 19.4467 12.924 19.3386 12.9213 19.0954C12.9161 18.7146 12.9109 18.3362 12.9082 17.9554C12.9056 17.6876 13.0601 17.5647 13.3375 17.5647C13.7224 17.5647 14.1072 17.5647 14.492 17.5696C14.7642 17.5721 14.9161 17.69 14.9134 17.9628C14.9082 18.3141 14.9187 18.6654 14.9108 19.0168C14.9056 19.3485 14.7956 19.4492 14.4396 19.4566C14.2616 19.4615 14.0862 19.459 13.9082 19.4566Z" fill="url(#paint8_linear_6117_1234)"/>
<path d="M1.86781 16.7565C1.72121 16.7565 1.57462 16.759 1.43065 16.7565C1.25002 16.7516 1.14008 16.6705 1.13746 16.4912C1.13223 16.2086 1.12961 15.9285 1.127 15.646C1.12438 15.447 1.23955 15.3561 1.44373 15.3561C1.72907 15.3561 2.01179 15.3561 2.29712 15.3585C2.49869 15.361 2.61125 15.447 2.60863 15.6509C2.6034 15.9113 2.61125 16.1718 2.60863 16.4298C2.6034 16.6755 2.52224 16.7492 2.26047 16.7541C2.12958 16.759 1.99869 16.7565 1.86781 16.7565Z" fill="url(#paint9_linear_6117_1234)"/>
<path d="M3.81638 18.9677C3.69335 18.9677 3.57032 18.9701 3.44729 18.9677C3.29546 18.9627 3.20384 18.8964 3.20122 18.7441C3.1986 18.5082 3.19598 18.2723 3.19336 18.0365C3.19336 17.8694 3.2876 17.7932 3.46037 17.7932C3.69859 17.7932 3.9368 17.7932 4.17763 17.7957C4.34779 17.7982 4.44203 17.8694 4.43941 18.0414C4.43679 18.2601 4.44203 18.4787 4.43941 18.6949C4.43679 18.9013 4.36611 18.9627 4.14622 18.9677C4.03628 18.9677 3.92633 18.9677 3.81638 18.9677Z" fill="#F20900"/>
<path d="M0.780139 11.8427C0.625692 11.8427 0.471243 11.8451 0.319414 11.8427C0.128319 11.8378 0.0131399 11.7518 0.0105221 11.5626C0.00528665 11.2653 0.00265868 10.9705 4.09421e-05 10.6732C-0.0025768 10.4643 0.120462 10.3685 0.332499 10.3685C0.630922 10.3685 0.93196 10.3685 1.23038 10.371C1.44242 10.3734 1.56284 10.4643 1.5576 10.6781C1.55237 10.9508 1.56022 11.226 1.5576 11.4987C1.55237 11.7567 1.46599 11.8353 1.19113 11.8402C1.055 11.8451 0.916262 11.8427 0.780139 11.8427Z" fill="url(#paint10_linear_6117_1234)"/>
<defs>
<linearGradient id="paint0_linear_6117_1234" x1="10.3544" y1="7.93621" x2="14.1222" y2="11.4727" gradientUnits="userSpaceOnUse">
<stop stop-color="#FFC444"/>
<stop offset="1" stop-color="#F2994A"/>
</linearGradient>
<linearGradient id="paint1_linear_6117_1234" x1="6.08188" y1="17.9235" x2="10.793" y2="21.6881" gradientUnits="userSpaceOnUse">
<stop stop-color="#FF928E"/>
<stop offset="1" stop-color="#FB6FBB"/>
</linearGradient>
<linearGradient id="paint2_linear_6117_1234" x1="11.4003" y1="11.2356" x2="5.10991" y2="16.9802" gradientUnits="userSpaceOnUse">
<stop stop-color="#D600F9"/>
<stop offset="1" stop-color="#C00694"/>
</linearGradient>
<linearGradient id="paint3_linear_6117_1234" x1="13.8894" y1="12.9334" x2="13.8894" y2="14.7912" gradientUnits="userSpaceOnUse">
<stop stop-color="#94D2FF"/>
<stop offset="1" stop-color="#3BA5F3"/>
</linearGradient>
<linearGradient id="paint4_linear_6117_1234" x1="2.09085" y1="7.84693" x2="6.76747" y2="12.063" gradientUnits="userSpaceOnUse">
<stop stop-color="#2554FD"/>
<stop offset="1" stop-color="#161CD8"/>
</linearGradient>
<linearGradient id="paint5_linear_6117_1234" x1="11.5424" y1="15.2797" x2="11.5424" y2="17.4066" gradientUnits="userSpaceOnUse">
<stop stop-color="#1824DD"/>
<stop offset="1" stop-color="#2E12BC"/>
</linearGradient>
<linearGradient id="paint6_linear_6117_1234" x1="2.64197" y1="12.0857" x2="2.64197" y2="14.2126" gradientUnits="userSpaceOnUse">
<stop stop-color="#F36F56"/>
<stop offset="1" stop-color="#F0401F"/>
</linearGradient>
<linearGradient id="paint7_linear_6117_1234" x1="7.3529" y1="6.43466" x2="7.3529" y2="8.56152" gradientUnits="userSpaceOnUse">
<stop stop-color="#4ADAFD"/>
<stop offset="1" stop-color="#06C2DC"/>
</linearGradient>
<linearGradient id="paint8_linear_6117_1234" x1="13.911" y1="17.5647" x2="13.911" y2="19.4594" gradientUnits="userSpaceOnUse">
<stop stop-color="#F2994A"/>
<stop offset="1" stop-color="#FF7A03"/>
</linearGradient>
<linearGradient id="paint9_linear_6117_1234" x1="1.86807" y1="15.3561" x2="1.86807" y2="16.7576" gradientUnits="userSpaceOnUse">
<stop stop-color="#FFC444"/>
<stop offset="1" stop-color="#F2994A"/>
</linearGradient>
<linearGradient id="paint10_linear_6117_1234" x1="0.779076" y1="10.3685" x2="0.779076" y2="11.8438" gradientUnits="userSpaceOnUse">
<stop stop-color="#F36F56"/>
<stop offset="1" stop-color="#F0401F"/>
</linearGradient>
</defs>
</svg>
