<svg id="Layer_1" enable-background="new 0 0 128 128" height="512" viewBox="0 0 128 128" width="512" xmlns="http://www.w3.org/2000/svg"><g><path d="m91 82.1-10.3-1-1.7-2.2-.3-3.8c12.4-8 12.4-21.3 12.4-21.4 3.8-.5 6.7-3.8 6.7-7.7 0-3.5-2.4-6.6-5.8-7.5 0-.2.2-1.1-.2-2.3.4-.7.9-1.4 1.3-2.1 1.9-2.8 3.6-5.8 5.1-8.9 1-2.3.1-5-2.1-6.2-2.8-1.5-5.4-3.3-7.9-5-6.7-4.5-13.7-9.2-24.2-9.2s-17.5 4.7-24.2 9.2c-2.5 1.7-5.1 3.5-7.9 5-2.2 1.2-3.1 3.9-2.1 6.2 1.5 3.1 3.2 6.1 5.1 8.9.4.8.9 1.5 1.4 2.2-.4 1.1-.2 1.9-.2 2.2-3.4.9-5.9 4-5.9 7.5 0 3.9 2.9 7.2 6.8 7.7.1.3 0 6.7 4.2 13.2 2.1 3.2 4.8 6 8.1 8.1l-.3 3.9-1.7 2.2-10.3 1c-13.3 1.2-23.4 12.3-23.4 25.6v13.8c0 1 .8 1.8 1.8 1.8h97.3c1 0 1.8-.8 1.8-1.8v-13.8c0-13.3-10.2-24.5-23.5-25.6zm16.7 14.1c1.7 2.9 2.8 6.1 3.1 9.4-4-1.1-6.2-3.7-6.9-7.9-.1-.8.4-1.5 1.2-1.5zm-43.7 6.7-3.9-3.9 3.9-3 3.9 3.1zm-13.1-20.7 10.6 11.3-7 5.5-4.4-15.8zm15.7 11.4 10.6-11.3.7.9-4.4 15.8zm-27.7-59.7c6.4-3.1 12.7-4.1 25.1-4.1s18.7 1 25.1 4.1c-3.5 5.6-6.9 6.7-25.1 6.7s-21.6-1.1-25.1-6.7zm55.4 12.1c0 1.9-1.3 3.5-3 4l.5-7.9c1.5.7 2.5 2.2 2.5 3.9zm-60.7-23.9c2.9-1.6 5.6-3.4 8.2-5.2 6.6-4.5 12.8-8.7 22.2-8.7s15.6 4.2 22.2 8.7c2.6 1.8 5.3 3.6 8.2 5.2.6.3.8 1 .6 1.6-1.2 2.5-2.5 4.9-4 7.2-7-3.5-13.7-4.6-27-4.6s-20 1.1-27 4.6c-1.5-2.3-2.8-4.7-4-7.2-.3-.6 0-1.3.6-1.6zm.1 23.9c0-1.7 1-3.2 2.6-3.9l.5 8c-1.9-.6-3.1-2.2-3.1-4.1zm6.8 7.7-.8-13.6c4.4 3.5 10.8 4 24.3 4 13.8 0 20.1-.4 24.4-4l-.8 13.7c-.7 12.7-11.5 22.1-23.6 22.1-12.6 0-22.8-9.9-23.5-22.2zm23.5 25.7c3.9 0 7.7-.8 11.3-2.5l.1 2-11.4 12.3-11.5-12.3.1-2c3.6 1.6 7.5 2.5 11.4 2.5zm-41.2 16.8c.8 0 1.4.7 1.2 1.5-.7 4.2-2.9 6.8-6.9 7.9.3-3.3 1.4-6.5 3.1-9.4zm-5.7 13c5.9-1.3 9.4-5 10.4-10.9.5-2.9-1.7-5.5-4.6-5.6 3.7-4.1 8.9-6.6 14.4-7.1l9.6-.9 4.9 17.8c.3 1.2 1.8 1.7 2.8.9l2.8-2.2 1.4 1.4-5.8 17.2h-18.3v-10.3c0-1-.8-1.8-1.8-1.8s-1.8.8-1.8 1.8v10.3h-14zm39.6 10.6 4.8-14.3 1.2 1.2c.7.7 1.8.7 2.5 0l1.2-1.2 4.8 14.3zm40.1 0v-10.3c0-1-.8-1.8-1.8-1.8s-1.8.8-1.8 1.8v10.3h-18.2l-5.8-17.1 1.4-1.4 2.8 2.2c1 .8 2.4.3 2.8-.9l4.9-17.8 9.6.9c5.5.5 10.7 3 14.4 7.1-2.9 0-5.1 2.7-4.6 5.6 1 6 4.5 9.6 10.4 10.9v10.6h-14.1z"/><path d="m46 21.3c1.4-1 2.6-1.7 3.8-2.5.8-.5 1.1-1.6.6-2.4s-1.6-1.1-2.4-.6c-1.2.8-2.4 1.6-3.9 2.5-.8.5-1 1.6-.5 2.4.5.9 1.6 1.1 2.4.6z"/><path d="m63 24.8c.6.4 1.4.4 2 0 4.2-2.8 6.7-7.4 6.8-12.4 0-1-.8-1.8-1.7-1.8h-12.1c-1 0-1.8.8-1.8 1.8.1 5 2.7 9.7 6.8 12.4zm5.1-10.7c-.5 2.8-1.9 5.3-4.1 7.1-2.2-1.8-3.6-4.3-4.1-7.1z"/></g></svg>