<svg width="50" height="50" viewBox="0 0 50 50" fill="none" xmlns="http://www.w3.org/2000/svg">
<g clip-path="url(#clip0_5953_1390)">
<path d="M45.9682 8.972C45.9682 14.785 45.9682 20.5985 45.9682 26.4115C45.9432 26.609 45.9177 26.8065 45.8937 27.004C45.7492 28.201 45.7127 29.423 45.4447 30.592C43.2952 39.9645 37.6522 46.1915 28.5072 49.202C27.4647 49.545 26.3722 49.738 25.3032 50.0005C25.1017 50.0005 24.9002 50.0005 24.6982 50.0005C24.6067 49.967 24.5182 49.919 24.4242 49.9025C20.1912 49.164 16.3802 47.4795 13.0677 44.7385C8.3772 40.856 5.4637 35.915 4.4287 29.9015C4.2302 28.7495 4.1617 27.575 4.0332 26.411C4.0332 20.598 4.0332 14.7845 4.0332 8.9715C4.0657 8.9665 4.1012 8.9675 4.1307 8.955C9.7527 6.5435 15.3757 4.133 20.9962 1.7165C22.3022 1.155 23.5992 0.5725 24.8997 0C24.9667 0 25.0342 0 25.1012 0C25.1712 0.0425 25.2377 0.0945 25.3127 0.1265C32.1977 3.076 39.0832 6.0235 45.9682 8.972ZM42.2552 19.8075C42.2727 19.8075 42.2907 19.8075 42.3082 19.8075C42.3082 17.288 42.2967 14.768 42.3167 12.2485C42.3217 11.6295 42.1047 11.263 41.5197 11.0145C36.2107 8.759 30.9107 6.485 25.6127 4.205C25.1972 4.026 24.8377 4.0155 24.4137 4.198C19.1322 6.474 13.8477 8.7435 8.5522 10.987C7.9082 11.26 7.6797 11.6445 7.6832 12.325C7.7037 16.7425 7.6762 21.1605 7.7057 25.5785C7.7132 26.733 7.7982 27.8965 7.9647 29.0385C9.1357 37.073 15.3092 43.912 23.1927 45.9155C23.9292 46.1025 24.7432 46.3345 25.4572 46.2015C29.8847 45.38 33.6507 43.2845 36.7107 39.9785C40.0822 36.3365 41.9947 32.0315 42.2347 27.0615C42.3512 24.649 42.2552 22.226 42.2552 19.8075Z" fill="#B5E1FA"/>
<path d="M40.6404 20.1591C40.6404 22.4601 40.7599 24.7681 40.6169 27.0601C40.2549 32.8711 37.6569 37.5441 33.0774 41.1086C30.8184 42.8671 28.2669 44.0526 25.4444 44.5516C24.7919 44.6671 24.0414 44.5016 23.3884 44.2971C15.7314 41.8966 11.0834 36.7696 9.57589 28.8671C9.37589 27.8191 9.32589 26.7306 9.31839 25.6601C9.29039 21.4271 9.31289 17.1941 9.29689 12.9611C9.29539 12.5676 9.40489 12.3711 9.77339 12.2146C14.7259 10.1071 19.6694 7.98007 24.6239 5.87707C24.8504 5.78107 25.1904 5.79007 25.4194 5.88757C30.3734 7.99357 35.3174 10.1226 40.2694 12.2336C40.6009 12.3751 40.7064 12.5496 40.7039 12.9031C40.6884 15.3221 40.6959 17.7406 40.6959 20.1596C40.6779 20.1591 40.6589 20.1591 40.6404 20.1591ZM18.2064 19.8591C17.7519 19.8591 17.3179 19.8541 16.8839 19.8601C16.0004 19.8721 15.5169 20.3501 15.5159 21.2376C15.5119 25.5196 15.5119 29.8021 15.5159 34.0841C15.5169 34.9686 15.9974 35.4611 16.8869 35.4621C22.2939 35.4686 27.7014 35.4686 33.1084 35.4621C33.9989 35.4611 34.4844 34.9696 34.4854 34.0891C34.4899 29.8071 34.4899 25.5246 34.4854 21.2426C34.4844 20.3296 34.0029 19.8676 33.0719 19.8596C32.6419 19.8556 32.2119 19.8591 31.7954 19.8591C31.7499 18.8736 31.7699 17.9466 31.6539 17.0366C31.2404 13.7921 28.3374 11.2961 25.0274 11.2891C21.6834 11.2816 18.7679 13.7651 18.3459 17.0316C18.2294 17.9416 18.2519 18.8691 18.2064 19.8591Z" fill="#B5E1FA"/>
<path d="M28.6454 19.8335C26.2074 19.8335 23.8169 19.8335 21.3544 19.8335C21.4014 18.7355 21.1834 17.634 21.6544 16.576C22.3519 15.0085 24.0264 14.116 25.6894 14.4375C27.3544 14.7595 28.5899 16.205 28.6424 17.9125C28.6614 18.544 28.6454 19.177 28.6454 19.8335Z" fill="#B5E1FA"/>
<path d="M23.7394 29.395C23.7394 29.093 23.7219 28.79 23.7429 28.4895C23.7859 27.8745 23.6719 27.3905 23.1864 26.8955C22.2534 25.945 22.4384 24.401 23.4589 23.538C24.4519 22.698 25.9429 22.8135 26.8059 23.7975C27.6669 24.779 27.5969 26.2725 26.6059 27.1395C26.3299 27.381 26.2504 27.617 26.2554 27.957C26.2699 28.9965 26.2839 30.0375 26.2464 31.0765C26.2124 32.0235 25.3474 32.5925 24.5264 32.2425C24.0344 32.033 23.7659 31.6425 23.7519 31.106C23.7369 30.536 23.7484 29.9655 23.7484 29.3955C23.7449 29.395 23.7419 29.395 23.7394 29.395Z" fill="#B5E1FA"/>
</g>
<defs>
<clipPath id="clip0_5953_1390">
<rect width="50" height="50" fill="white"/>
</clipPath>
</defs>
</svg>
