<svg id="Layer_1" enable-background="new 0 0 66 66" height="512" viewBox="0 0 66 66" width="512" xmlns="http://www.w3.org/2000/svg"><g><path d="m64.15 26.95-5.24-1.05c-.49-1.84-1.18-3.6-2.04-5.25l3.18-4.3c.28-.38.25-.9-.08-1.24l-7.89-8.26c-.33-.34-.85-.4-1.24-.14l-4.46 2.98c-1.63-.93-3.36-1.69-5.14-2.25l-.8-5.5c-.06-.49-.46-.84-.94-.84h-11.46c-.46 0-.86.32-.95.78l-1.06 5.25c-1.83.5-3.59 1.18-5.26 2.04l-4.3-3.15c-.38-.28-.9-.24-1.24.08l-8.29 7.92c-.34.32-.4.84-.14 1.23l2.94 4.44c-.35.61-.7 1.28-1.03 1.99-.49 1.04-.9 2.11-1.24 3.17l-5.58.84c-.47.07-.82.48-.82.96v11.44c0 .46.33.86.78.95l5.24 1.03c.47 1.78 1.14 3.54 2.02 5.25l-3.18 4.32c-.28.38-.24.9.08 1.24l7.89 8.26c.32.34.84.4 1.24.14l4.47-2.99c1.64.95 3.36 1.71 5.14 2.27l.79 5.52c.07.48.48.83.96.83h11.46c.46 0 .86-.33.95-.78l1.06-5.27c1.81-.49 3.58-1.18 5.26-2.04l4.31 3.14c.38.28.9.24 1.24-.08l8.29-7.92c.34-.32.4-.84.14-1.23l-2.95-4.45c.94-1.63 1.7-3.35 2.27-5.14l5.59-.82c.48-.07.83-.48.83-.96v-11.47c-.02-.46-.34-.85-.8-.94zm-1.15 11.57-5.37.79c-.38.05-.68.32-.79.69-.59 2.03-1.45 3.98-2.56 5.8-.2.32-.19.73.02 1.04l2.84 4.28-7.12 6.8-4.14-3.02c-.3-.22-.71-.25-1.03-.07-1.88 1.02-3.88 1.8-5.94 2.31-.36.09-.64.38-.72.75l-1.02 5.09h-9.82l-.76-5.3c-.05-.38-.33-.69-.69-.79-2.02-.58-3.97-1.44-5.8-2.56-.32-.2-.73-.19-1.04.02l-4.31 2.88-6.77-7.09 3.06-4.15c.22-.3.25-.7.07-1.03-1.04-1.92-1.8-3.91-2.27-5.93-.09-.37-.38-.65-.76-.73l-5.07-1v-9.81l5.36-.8c.37-.06.68-.32.79-.69.34-1.17.79-2.34 1.32-3.49.4-.86.82-1.64 1.24-2.33.2-.32.19-.73-.02-1.04l-2.83-4.28 7.11-6.8 4.14 3.03c.3.22.7.25 1.04.07 1.73-.95 3.59-1.69 5.57-2.21.09-.03.17-.05.25-.07l.13-.03c.36-.09.63-.38.7-.74l1.02-5.06h9.83l.77 5.28c.05.38.32.68.69.79 2.03.59 3.99 1.45 5.81 2.55.32.19.73.19 1.04-.02l4.29-2.87 6.77 7.09-3.06 4.14c-.23.3-.25.71-.07 1.04 1.01 1.83 1.79 3.83 2.3 5.93.09.37.38.65.75.72l5.05.99z"/><path d="m33 15c-9.92 0-18 8.07-18 18 0 8.4 5.71 15.61 13.87 17.52 1.34.32 2.72.48 4.13.48s2.8-.16 4.12-.48c8.17-1.91 13.88-9.12 13.88-17.52 0-9.92-8.07-18-18-18zm-2.93 33.77v-6.29c0-.39-.24-.74-.6-.89-3.49-1.44-5.74-4.81-5.74-8.58 0-3.26 1.69-6.22 4.4-7.9v5.64c0 .53.43.97.97.97h7.8c.53 0 .97-.43.97-.97v-5.64c2.71 1.67 4.4 4.63 4.4 7.9 0 3.77-2.25 7.14-5.74 8.58-.36.15-.6.5-.6.89v6.29c-1.91.36-3.94.36-5.86 0zm7.8-.47v-5.2c3.87-1.87 6.34-5.77 6.34-10.1 0-4.55-2.72-8.62-6.94-10.37-.3-.12-.64-.09-.91.09s-.43.48-.43.8v6.25h-5.86v-6.25c0-.32-.16-.63-.43-.8-.27-.18-.61-.21-.91-.09-4.21 1.75-6.93 5.82-6.93 10.37 0 4.33 2.47 8.23 6.34 10.1v5.2c-6.65-2.09-11.2-8.22-11.2-15.3 0-8.86 7.21-16.06 16.06-16.06s16.07 7.2 16.07 16.06c0 7.08-4.55 13.21-11.2 15.3z"/></g></svg>