<svg width="18" height="18" viewBox="0 0 18 18" fill="none" xmlns="http://www.w3.org/2000/svg">
    <g clip-path="url(#clip0_5688_1280)">
        <path
            d="M14.25 9C13.8352 9 13.5 9.336 13.5 9.75V15.75C13.5 16.1633 13.164 16.5 12.75 16.5H2.25C1.836 16.5 1.5 16.1633 1.5 15.75V5.25C1.5 4.83675 1.836 4.5 2.25 4.5H8.25C8.66475 4.5 9 4.164 9 3.75C9 3.336 8.66475 3 8.25 3H2.25C1.0095 3 0 4.0095 0 5.25V15.75C0 16.9905 1.0095 18 2.25 18H12.75C13.9905 18 15 16.9905 15 15.75V9.75C15 9.33525 14.6647 9 14.25 9Z"
            fill="#3ED57D" />
        <path
            d="M7.03289 8.31681C6.98039 8.36931 6.94514 8.43606 6.93014 8.50806L6.39989 11.1601C6.37514 11.2831 6.41414 11.4098 6.50264 11.4991C6.57389 11.5703 6.66989 11.6086 6.76814 11.6086C6.79214 11.6086 6.81689 11.6063 6.84164 11.6011L9.49289 11.0708C9.56639 11.0558 9.63314 11.0206 9.68489 10.9681L15.6189 5.03406L12.9676 2.38281L7.03289 8.31681Z"
            fill="#3ED57D" />
        <path
            d="M17.451 0.548926C16.7197 -0.182324 15.5302 -0.182324 14.7997 0.548926L13.7617 1.58693L16.413 4.23818L17.451 3.20018C17.805 2.84693 18 2.37593 18 1.87493C18 1.37393 17.805 0.902926 17.451 0.548926Z"
            fill="#3ED57D" />
    </g>
    <defs>
        <clipPath id="clip0_5688_1280">
            <rect width="18" height="18" fill="white" />
        </clipPath>
    </defs>
</svg>
    