<svg width="40" height="40" viewBox="0 0 40 40" fill="none" xmlns="http://www.w3.org/2000/svg">
<path d="M37.8705 18.3214C32.7933 21.257 27.7157 24.1922 22.5897 27.1554C21.7413 25.6866 20.8989 24.2286 20.0077 22.6866C19.1345 24.199 18.2941 25.6538 17.4273 27.155C12.3305 24.2058 7.24808 21.2654 2.14648 18.3138C3.00928 16.8158 3.85208 15.353 4.71968 13.8462C4.86208 13.9246 4.99248 13.993 5.11968 14.0666C9.95608 16.8634 14.7941 19.6578 19.6237 22.4662C19.9201 22.6386 20.1221 22.6242 20.4089 22.4574C25.2153 19.6642 30.0289 16.8834 34.8413 14.0998C34.9737 14.0234 35.1069 13.949 35.2837 13.8486C35.3645 13.981 35.4441 14.105 35.5177 14.2322C36.2229 15.4558 36.9261 16.6806 37.6333 17.903C37.7013 18.0206 37.7909 18.1258 37.8709 18.237C37.8705 18.2654 37.8705 18.2934 37.8705 18.3214Z" fill="#3E78B2"/>
<path d="M9.94375 0C10.4462 0.1092 10.9626 0.1768 11.449 0.3356C13.345 0.954 14.6358 2.2276 15.3838 4.0716C15.4982 4.3532 15.4666 4.5232 15.2126 4.7388C13.1466 6.496 12.2466 8.7424 12.5046 11.4444C12.529 11.698 12.439 11.7872 12.2454 11.884C8.75095 13.634 4.31975 11.5036 3.49095 7.6712C2.68935 3.9664 5.11775 0.5348 8.86895 0.0684C8.94935 0.0584 9.02655 0.0232 9.10495 0C9.38455 0 9.66415 0 9.94375 0ZM10.2378 2.5944C10.2282 2.48 10.2214 2.3832 10.2122 2.2872C10.1766 1.9148 9.97615 1.6956 9.60295 1.6604C9.23775 1.626 8.92375 1.844 8.90615 2.2272C8.89055 2.5664 8.71295 2.6576 8.45335 2.7656C7.58575 3.1264 7.08495 3.8752 7.09415 4.7472C7.10375 5.6172 7.59015 6.2872 8.50055 6.6352C8.81095 6.754 9.14695 6.804 9.46615 6.9024C9.82335 7.0124 10.2006 7.0952 10.5222 7.2748C10.9266 7.5004 10.9902 7.9852 10.7098 8.2732C10.1994 8.7976 8.59575 8.8968 8.21295 7.8224C8.04335 7.3468 7.70095 7.1752 7.31415 7.3208C6.93975 7.4616 6.80735 7.836 6.97255 8.31C7.22935 9.0472 7.75055 9.5276 8.46855 9.7904C8.72055 9.8824 8.89175 9.9528 8.90455 10.2852C8.91935 10.6708 9.22935 10.8936 9.59255 10.8636C9.96495 10.8328 10.1714 10.6188 10.2114 10.246C10.2218 10.15 10.2306 10.054 10.2398 9.9624C10.5022 9.8652 10.757 9.7904 10.9946 9.6784C11.701 9.3456 12.1662 8.8204 12.2066 8.0068C12.2498 7.1444 11.8898 6.4728 11.1326 6.068C10.7574 5.8672 10.329 5.7616 9.91855 5.6324C9.58695 5.528 9.21655 5.5076 8.92015 5.3456C8.70975 5.2308 8.46495 4.9392 8.46935 4.7316C8.47455 4.4956 8.68815 4.1828 8.90215 4.0484C9.55775 3.6368 10.3338 3.896 10.7546 4.6024C10.9998 5.0136 11.3398 5.142 11.6922 4.956C12.045 4.7696 12.141 4.3984 11.9402 3.978C11.593 3.25 10.9982 2.8184 10.2378 2.5944Z" fill="#3E78B2"/>
<path d="M35.2611 21.3813C35.2719 21.5749 35.2843 21.6957 35.2843 21.8169C35.2855 24.9253 35.2811 28.0333 35.2919 31.1417C35.2931 31.4329 35.1983 31.5881 34.9491 31.7317C30.3283 34.3961 25.7131 37.0701 21.0959 39.7409C20.9799 39.8081 20.8571 39.8641 20.7031 39.9425C20.7031 35.5005 20.7031 31.1049 20.7031 26.5825C21.2007 27.4421 21.6375 28.1965 22.0991 28.9937C26.4835 26.4577 30.8487 23.9333 35.2611 21.3813Z" fill="#3E78B2"/>
<path d="M19.323 26.7171C19.323 31.1071 19.323 35.4971 19.323 39.9391C19.187 39.8711 19.0778 39.8239 18.9758 39.7647C14.3342 37.0811 9.69342 34.3955 5.05102 31.7135C4.86262 31.6047 4.72342 31.5107 4.72462 31.2443C4.73542 28.0383 4.73182 24.8323 4.73302 21.6263C4.73302 21.5711 4.74462 21.5163 4.75942 21.3799C9.14862 23.9183 13.5038 26.4375 17.917 28.9899C18.3626 28.2215 18.8062 27.4567 19.2498 26.6915C19.2742 26.6999 19.2986 26.7087 19.323 26.7171Z" fill="#3E78B2"/>
<path d="M20.0431 4.3599C23.4731 4.3711 26.2279 7.1535 26.2227 10.6011C26.2171 14.0587 23.4319 16.8275 19.9715 16.8151C16.5283 16.8027 13.7731 13.9999 13.7931 10.5291C13.8131 7.0947 16.5955 4.3483 20.0431 4.3599ZM19.3211 14.2527C19.3335 14.4167 19.3247 14.5467 19.3559 14.6663C19.4431 15.0027 19.6687 15.2011 20.0175 15.1979C20.3471 15.1951 20.6331 15.0015 20.6395 14.6879C20.6483 14.2707 20.8827 14.2131 21.1871 14.1111C22.1011 13.8055 22.6383 13.1239 22.6747 12.2823C22.7123 11.4187 22.2315 10.6507 21.3615 10.2703C20.9947 10.1099 20.5923 10.0303 20.2043 9.9187C19.9371 9.8419 19.6587 9.7959 19.4007 9.6963C19.1163 9.5863 18.8955 9.3987 18.8979 9.0467C18.9003 8.6919 19.0999 8.4779 19.3931 8.3327C20.0571 8.0039 20.8031 8.2419 21.1931 8.9019C21.4459 9.3295 21.8067 9.4679 22.1615 9.2731C22.5103 9.0815 22.5891 8.6959 22.3675 8.2539C22.0863 7.6927 21.6571 7.2855 21.0723 7.0627C20.8223 6.9675 20.6603 6.8871 20.6543 6.5559C20.6479 6.1963 20.3771 5.9763 20.0063 5.9763C19.6359 5.9763 19.3679 6.1955 19.3587 6.5563C19.3503 6.8767 19.2063 6.9687 18.9519 7.0691C18.0423 7.4291 17.5375 8.1855 17.5583 9.1067C17.5787 10.0027 18.1107 10.6851 19.0663 11.0023C19.4091 11.1159 19.7735 11.1623 20.1183 11.2707C20.4339 11.3699 20.7683 11.4639 21.0363 11.6455C21.4387 11.9183 21.4319 12.3931 21.0783 12.6759C20.3107 13.2903 19.0487 12.9647 18.6399 12.0755C18.5523 11.8847 18.3411 11.6859 18.1447 11.6231C17.6699 11.4711 17.2451 11.9483 17.3783 12.4567C17.6399 13.4551 18.3563 13.9775 19.3211 14.2527Z" fill="#3E78B2"/>
<path d="M30.4101 13.5545C29.5097 13.5657 28.5113 13.2985 27.5697 12.7921C27.3689 12.6841 27.3081 12.5877 27.3601 12.3385C27.9545 9.48214 27.2157 7.02494 25.1085 4.99934C24.9369 4.83454 24.9129 4.72054 25.0181 4.50414C26.1757 2.12254 28.8193 0.778144 31.5881 1.17694C34.1097 1.53974 36.2993 3.71174 36.6957 6.24334C37.3041 10.1333 34.4433 13.5533 30.4101 13.5545ZM29.8761 3.65774C29.6625 3.74974 29.4621 3.81774 29.2801 3.91814C28.5209 4.33654 28.0981 4.96374 28.1201 5.85494C28.1417 6.74414 28.6193 7.32174 29.4033 7.64774C29.7857 7.80694 30.2069 7.86854 30.6045 7.99454C30.9337 8.09894 31.2849 8.18374 31.5709 8.36534C31.9973 8.63574 32.0077 9.14334 31.6317 9.41934C30.9209 9.94054 29.4505 9.81014 29.2009 8.80934C29.1017 8.41174 28.7217 8.25574 28.3757 8.37134C28.0045 8.49534 27.8357 8.83534 27.9505 9.24414C28.1857 10.0813 28.7545 10.6057 29.5521 10.8801C29.7985 10.9649 29.9041 11.0557 29.9153 11.3321C29.9301 11.6989 30.1717 11.9177 30.5445 11.9333C30.9209 11.9489 31.1953 11.7365 31.2129 11.3801C31.2305 11.0285 31.4029 10.9629 31.6777 10.8769C32.6345 10.5781 33.1997 9.88254 33.2353 9.01374C33.2709 8.13814 32.7701 7.37614 31.8757 6.98854C31.5965 6.86774 31.2949 6.79574 31.0005 6.71334C30.6521 6.61574 30.2729 6.58374 29.9593 6.42214C29.7465 6.31214 29.5425 6.04894 29.4793 5.81534C29.3893 5.48374 29.6345 5.24294 29.9269 5.08854C30.5861 4.74054 31.3557 4.96534 31.7417 5.61574C32.0149 6.07654 32.3693 6.21814 32.7309 6.01174C33.0841 5.80974 33.1657 5.39974 32.9045 4.95094C32.7657 4.71214 32.6053 4.46214 32.3929 4.29614C32.0481 4.02694 31.6525 3.82294 31.2549 3.57694C31.2109 3.00454 30.9801 2.70294 30.5593 2.70934C30.1425 2.71574 29.9341 3.00014 29.8761 3.65774Z" fill="#3E78B2"/>
<path d="M12.8425 13.0962C15.3265 19.5906 23.9837 19.7902 26.8401 13.9298C28.0013 14.5658 29.2481 14.9046 30.5977 14.9986C30.1697 15.2466 29.7413 15.4946 29.3133 15.7426C26.3165 17.4766 23.3185 19.2086 20.3257 20.9494C20.1105 21.0746 19.9525 21.101 19.7217 20.967C15.3393 18.4222 10.9505 15.8878 6.56372 13.3502C6.46972 13.2958 6.38132 13.2314 6.29492 13.1446C8.48052 14.083 10.6561 14.0878 12.8425 13.0962Z" fill="#3E78B2"/>
</svg>
