<svg width="40" height="40" viewBox="0 0 40 40" fill="none" xmlns="http://www.w3.org/2000/svg">
<g clip-path="url(#clip0_5946_1258)">
<path d="M19.7824 40.0001C18.9496 39.7761 18.09 39.6217 17.288 39.3169C11.216 37.0089 7.73761 32.6245 6.95561 26.1441C6.83681 25.1609 6.88161 24.1561 6.87881 23.1609C6.87001 20.2841 6.88161 17.4073 6.86721 14.5305C6.86561 14.2153 6.96721 14.0789 7.24801 13.9589C11.4144 12.1789 15.574 10.3841 19.7412 8.6053C19.9052 8.5353 20.1492 8.5297 20.3116 8.5989C24.504 10.3877 28.6888 12.1945 32.8816 13.9829C33.1628 14.1029 33.1896 14.2669 33.1892 14.5189C33.184 17.8937 33.1892 21.2681 33.1848 24.6429C33.1748 32.2481 27.9284 38.5477 20.4696 39.9181C20.3764 39.9353 20.2872 39.9725 20.1964 40.0001C20.0584 40.0001 19.9204 40.0001 19.7824 40.0001ZM30.718 21.0085C30.7196 21.0085 30.7212 21.0085 30.7228 21.0085C30.7228 19.4457 30.7096 17.8833 30.7308 16.3209C30.7372 15.8373 30.5632 15.5553 30.1192 15.3661C26.9024 13.9957 23.6952 12.6033 20.4736 11.2453C20.2172 11.1373 19.8356 11.1429 19.578 11.2517C16.3684 12.6061 13.174 13.9953 9.96801 15.3581C9.50761 15.5537 9.32801 15.8341 9.33081 16.3353C9.34801 19.1285 9.33441 21.9221 9.34321 24.7153C9.34481 25.2533 9.37481 25.7937 9.43241 26.3281C10.0064 31.6637 14.0944 36.2969 19.2884 37.4885C19.6676 37.5753 20.0928 37.6357 20.4636 37.5557C26.3572 36.2825 30.606 31.0857 30.7148 25.0329C30.7388 23.6917 30.718 22.3497 30.718 21.0085Z" fill="#3E78B2"/>
<path d="M20.1978 -8.82813e-05C20.357 0.327512 20.553 0.642312 20.6694 0.984312C21.1846 2.49471 20.8694 2.23391 22.441 2.26111C22.675 2.26511 22.9202 2.22511 23.1394 2.28351C23.2994 2.32631 23.4934 2.47311 23.545 2.61871C23.5878 2.73951 23.4886 2.97991 23.3754 3.07471C22.985 3.40111 22.567 3.69591 22.147 3.98511C21.8514 4.18871 21.7738 4.43071 21.8958 4.76831C22.0458 5.18271 22.1694 5.60671 22.3062 6.02631C22.3898 6.28311 22.4714 6.54551 22.1966 6.73711C21.943 6.91391 21.7298 6.77151 21.5226 6.61911C21.1454 6.34111 20.7614 6.07231 20.3878 5.78951C20.1434 5.60471 19.9194 5.60471 19.675 5.79071C19.313 6.06591 18.939 6.32511 18.5734 6.59511C18.3578 6.75431 18.1382 6.92671 17.867 6.73551C17.5746 6.52951 17.6846 6.25431 17.7738 5.98711C17.9134 5.56871 18.043 5.14711 18.1822 4.72831C18.2822 4.42791 18.2178 4.19471 17.9494 4.00951C17.5754 3.75111 17.2114 3.47831 16.8442 3.20951C16.6294 3.05231 16.3974 2.89311 16.5134 2.57231C16.6254 2.26351 16.8998 2.26071 17.1686 2.26111C17.5954 2.26191 18.023 2.24591 18.4494 2.26551C18.8234 2.28271 19.0406 2.14431 19.1398 1.77031C19.249 1.35791 19.3858 0.951112 19.5394 0.552712C19.6154 0.355512 19.7554 0.183112 19.8666 -0.000488281C19.977 -8.82813e-05 20.0874 -8.82813e-05 20.1978 -8.82813e-05Z" fill="#3E78B2"/>
<path d="M31.8188 3.49296C31.696 4.07536 31.6124 4.56696 31.4852 5.04616C31.3784 5.44896 31.4916 5.70256 31.8612 5.88896C32.2416 6.08096 32.6004 6.31656 32.972 6.52736C33.198 6.65536 33.4092 6.79376 33.3488 7.09896C33.2888 7.40336 33.0484 7.45536 32.7856 7.47976C32.3192 7.52296 31.8548 7.58816 31.3884 7.62736C31.0856 7.65256 30.908 7.78616 30.848 8.09336C30.7528 8.58096 30.6692 9.07416 30.522 9.54656C30.4636 9.73456 30.2688 9.96496 30.0972 10.0038C29.9688 10.0326 29.7184 9.81856 29.628 9.65376C29.3968 9.23176 29.2176 8.78056 29.0308 8.33496C28.9072 8.04056 28.7136 7.90656 28.388 7.94736C27.9096 8.00776 27.4292 8.07776 26.9492 8.08336C26.7496 8.08576 26.4444 7.98136 26.3772 7.83696C26.312 7.69616 26.4364 7.39296 26.5704 7.24696C26.8964 6.89296 27.2712 6.58336 27.636 6.26656C27.8816 6.05336 27.9244 5.82256 27.786 5.52976C27.5796 5.09336 27.362 4.65816 27.2096 4.20176C27.1476 4.01576 27.1724 3.71176 27.29 3.58296C27.3808 3.48336 27.7012 3.51696 27.878 3.59136C28.2056 3.72896 28.5032 3.93856 28.8124 4.11936C29.544 4.54736 29.5436 4.54696 30.1592 3.98536C30.4448 3.72496 30.7168 3.44536 31.0272 3.21856C31.1604 3.12136 31.4024 3.06576 31.5448 3.12096C31.6816 3.17496 31.7532 3.39616 31.8188 3.49296Z" fill="#3E78B2"/>
<path d="M13.3397 8.11532C12.6933 8.05172 12.1849 8.01012 11.6789 7.94852C11.3557 7.90932 11.1569 8.03252 11.0325 8.32972C10.8461 8.77492 10.6697 9.22852 10.4341 9.64732C10.3381 9.81772 10.0961 10.0025 9.92245 10.0005C9.78845 9.99892 9.59285 9.73572 9.53885 9.55452C9.39685 9.08012 9.31005 8.58812 9.21525 8.10052C9.15605 7.79572 8.98445 7.65492 8.68005 7.62852C8.19965 7.58692 7.71565 7.55372 7.24485 7.45852C7.05125 7.41932 6.77325 7.25172 6.74365 7.10052C6.71285 6.94412 6.89605 6.68052 7.05725 6.56452C7.42485 6.30052 7.82965 6.08492 8.23245 5.87452C8.58685 5.68932 8.67765 5.43212 8.57805 5.05292C8.46205 4.61292 8.35525 4.16652 8.30245 3.71572C8.28045 3.52852 8.35765 3.21052 8.48085 3.15452C8.63885 3.08292 8.93405 3.15492 9.09085 3.27172C9.47645 3.55892 9.82125 3.90212 10.1737 4.23292C10.4097 4.45452 10.6489 4.47652 10.9229 4.31252C11.3369 4.06492 11.7433 3.79812 12.1793 3.59772C12.3569 3.51612 12.6601 3.51012 12.8009 3.61372C12.9089 3.69332 12.9169 4.02052 12.8561 4.19852C12.7053 4.64092 12.5065 5.06972 12.2949 5.48772C12.1193 5.83452 12.1969 6.08172 12.4801 6.32092C12.8489 6.63212 13.2185 6.94772 13.5473 7.29972C13.6641 7.42492 13.7445 7.68852 13.6933 7.83852C13.6425 7.98532 13.4045 8.06852 13.3397 8.11532Z" fill="#3E78B2"/>
<path d="M29.3914 21.2835C29.3914 22.5275 29.4074 23.7719 29.3886 25.0155C29.309 30.3639 25.5386 35.0323 20.341 36.2203C20.1478 36.2643 19.927 36.2635 19.7342 36.2187C14.4526 34.9895 10.7278 30.3475 10.6746 24.9035C10.6486 22.2219 10.673 19.5403 10.6626 16.8583C10.6614 16.5951 10.7494 16.4727 10.9874 16.3711C13.9126 15.1239 16.8314 13.8627 19.7586 12.6203C19.9226 12.5507 20.169 12.5571 20.335 12.6275C23.2486 13.8651 26.1546 15.1215 29.067 16.3627C29.3226 16.4715 29.405 16.6099 29.4022 16.8875C29.3874 18.3527 29.395 19.8179 29.395 21.2831C29.3938 21.2835 29.3926 21.2835 29.3914 21.2835ZM22.7742 20.9987C22.7742 20.1991 22.8138 19.4643 22.7658 18.7355C22.6674 17.2311 21.3222 15.9767 19.8254 15.9423C19.3222 15.9307 19.0458 16.1831 19.0382 16.6831C19.0294 17.2775 19.0214 17.8727 19.0394 18.4667C19.061 19.1687 18.795 19.7383 18.277 20.1835C17.8802 20.5247 17.4618 20.8431 17.0322 21.1415C16.8754 21.2503 16.6602 21.3203 16.4694 21.3255C15.6978 21.3459 14.9258 21.3299 14.1538 21.3355C13.6098 21.3395 13.3546 21.5771 13.3526 22.1151C13.3454 24.2723 13.3458 26.4295 13.3522 28.5867C13.3538 29.1495 13.6026 29.3771 14.177 29.3795C14.935 29.3827 15.6934 29.3747 16.4514 29.3855C16.593 29.3875 16.7662 29.4167 16.869 29.5011C17.8378 30.2979 18.9582 30.5283 20.1674 30.3911C21.589 30.2299 23.0042 30.0639 24.443 30.0911C25.4862 30.1111 26.1562 29.1919 26.0102 28.1403C25.9898 27.9943 26.0534 27.7955 26.1494 27.6811C26.5082 27.2539 26.673 26.7891 26.593 26.2263C26.5746 26.0963 26.6478 25.9095 26.7434 25.8139C27.4266 25.1303 27.4834 24.2903 26.8938 23.4987C26.827 23.4087 26.7918 23.2527 26.8158 23.1435C27.0862 21.9171 26.3646 21.0031 25.1066 20.9987C24.339 20.9967 23.5702 20.9987 22.7742 20.9987Z" fill="#3E78B2"/>
<path d="M21.1442 29.0157C20.4974 29.0281 19.7738 29.0501 19.0498 29.0493C18.8762 29.0489 18.6978 28.9865 18.5302 28.9273C17.7446 28.6489 17.6506 28.5105 17.6506 27.6809C17.6502 26.0229 17.6558 24.3645 17.6426 22.7065C17.6406 22.4401 17.7198 22.2785 17.9386 22.1297C18.3138 21.8745 18.6742 21.5941 19.023 21.3033C19.9478 20.5321 20.431 19.5553 20.3642 18.3289C20.3486 18.0433 20.3618 17.7565 20.3618 17.4097C21.0006 17.7181 21.377 18.1669 21.4354 18.8165C21.4858 19.3789 21.5026 19.9533 21.4426 20.5125C21.4114 20.8025 21.219 21.1001 21.0322 21.3417C20.777 21.6709 20.7406 21.9621 20.9458 22.3261C21.335 23.0169 21.2506 23.5333 20.6706 24.0645C20.459 24.2585 20.211 24.4141 19.9746 24.5793C19.6054 24.8377 19.5006 25.2125 19.7142 25.5393C19.9186 25.8521 20.2918 25.9241 20.6622 25.7181C20.7934 25.6453 20.919 25.5617 21.0418 25.4865C21.2938 25.6629 21.3374 25.8525 21.2826 26.1613C21.2234 26.4945 21.2926 26.8681 21.3818 27.2041C21.4358 27.4077 21.4738 27.5481 21.3926 27.7677C21.2626 28.1169 21.2386 28.5053 21.1442 29.0157Z" fill="#3E78B2"/>
<path d="M16.2904 28.0285C15.7564 28.0285 15.2404 28.0285 14.7012 28.0285C14.7012 26.2465 14.7012 24.4857 14.7012 22.6953C15.2324 22.6953 15.7464 22.6953 16.2904 22.6953C16.2904 24.4617 16.2904 26.2229 16.2904 28.0285Z" fill="#3E78B2"/>
<path d="M24.0424 24.8896C23.5472 24.8896 23.05 24.912 22.5576 24.8756C22.4148 24.8652 22.2844 24.686 22.1484 24.584C22.2844 24.4828 22.4184 24.2976 22.5572 24.294C23.5472 24.2688 24.5384 24.2688 25.5284 24.2928C25.6756 24.2964 25.9228 24.4516 25.942 24.5672C25.9848 24.8252 25.7588 24.892 25.5284 24.8908C25.0332 24.8876 24.5376 24.8896 24.0424 24.8896Z" fill="#3E78B2"/>
<path d="M24.0437 22.9404C23.7009 22.9404 23.3577 22.9404 23.0149 22.9408C22.7989 22.9408 22.5657 22.9256 22.5625 22.646C22.5589 22.3408 22.8041 22.3296 23.0353 22.33C23.7213 22.3316 24.4081 22.3124 25.0925 22.344C25.2521 22.3512 25.5153 22.508 25.5361 22.6292C25.5805 22.888 25.3377 22.9412 25.1137 22.9404C24.7569 22.9392 24.4001 22.94 24.0437 22.9404Z" fill="#3E78B2"/>
<path d="M23.9096 26.8186C23.5808 26.819 23.2488 26.847 22.9252 26.8054C22.7908 26.7882 22.6752 26.623 22.5508 26.525C22.6716 26.4238 22.7892 26.2406 22.9144 26.2354C23.5844 26.2066 24.2568 26.2066 24.9264 26.2362C25.0468 26.2414 25.1592 26.4322 25.2752 26.5374C25.1624 26.631 25.0568 26.7922 24.9352 26.8054C24.5972 26.8422 24.252 26.8182 23.9096 26.8186Z" fill="#3E78B2"/>
<path d="M23.6103 28.7737C23.3779 28.7737 23.1367 28.8105 22.9155 28.7601C22.7791 28.7293 22.6723 28.5657 22.5527 28.4613C22.6627 28.3601 22.7675 28.1793 22.8839 28.1717C23.3743 28.1389 23.8691 28.1389 24.3595 28.1705C24.4783 28.1781 24.5867 28.3533 24.6999 28.4513C24.5831 28.5585 24.4799 28.7305 24.3463 28.7593C24.1107 28.8105 23.8567 28.7737 23.6103 28.7737Z" fill="#3E78B2"/>
</g>
<defs>
<clipPath id="clip0_5946_1258">
<rect width="40" height="40" fill="white"/>
</clipPath>
</defs>
</svg>
