<svg width="40" height="40" viewBox="0 0 40 40" fill="none" xmlns="http://www.w3.org/2000/svg">
<g clip-path="url(#clip0_5946_1291)">
<path d="M0.0332031 20.6226C2.1492 20.6226 4.2652 20.6226 6.4132 20.6226C6.4964 21.219 6.52 21.8162 6.6708 22.3794C6.9556 23.443 7.292 24.4942 7.6468 25.537C7.9752 26.5018 8.3432 27.4538 8.7176 28.4018C9.0972 29.363 9.5068 30.313 9.886 31.2266C8.3396 31.9098 6.7812 32.599 5.1784 33.307C4.1948 32.2486 3.3204 31.0278 2.5824 29.709C1.1652 27.1754 0.330803 24.463 0.102403 21.5662C0.0928031 21.4442 0.0568031 21.3246 0.0332031 21.2038C0.0332031 21.0098 0.0332031 20.8162 0.0332031 20.6226Z" fill="#3E78B2"/>
<path d="M0.0336031 18.7129C0.170803 17.7853 0.266003 16.8489 0.452803 15.9313C1.164 12.4417 2.7192 9.36768 5.0876 6.70648C5.1324 6.65608 5.1864 6.61368 5.1868 6.61328C6.7724 7.31448 8.322 7.99928 9.9092 8.70088C9.892 8.74368 9.846 8.85208 9.8036 8.96168C9.2564 10.3765 8.7092 11.7917 8.1628 13.2069C8.1132 13.3353 8.0828 13.4733 8.0192 13.5941C7.1268 15.2937 6.5992 17.0961 6.4696 19.0137C6.464 19.0953 6.4404 19.1761 6.4184 19.2941C4.2896 19.2941 2.1616 19.2941 0.0332031 19.2941C0.0336031 19.1005 0.0336031 18.9065 0.0336031 18.7129Z" fill="#3E78B2"/>
<path d="M32.1578 19.9944C32.1542 26.7232 26.6718 32.1544 19.8798 32.1568C13.2138 32.1592 7.74942 26.644 7.75782 19.922C7.76622 13.2268 13.2554 7.7516 19.9522 7.7588C26.7074 7.766 32.1614 13.2332 32.1578 19.9944ZM12.9002 20.3372C12.8926 21.1732 13.2546 21.7404 14.0482 22.0244C15.0266 22.3748 15.7694 22.9368 16.2962 23.858C16.865 24.8528 17.483 25.0696 18.5666 24.686C19.5118 24.3516 20.4182 24.2968 21.3426 24.6972C21.4058 24.7244 21.473 24.7436 21.5394 24.762C22.3882 24.9952 23.0814 24.796 23.5066 24.036C24.0698 23.0296 24.8322 22.3224 25.9462 22.0064C25.9854 21.9952 26.021 21.9708 26.0578 21.952C26.719 21.622 27.1342 21.0704 26.9946 20.3528C26.7482 19.0864 26.9802 17.9692 27.6182 16.8652C27.967 16.2612 27.7818 15.624 27.3026 15.1104C27.067 14.858 26.8126 14.622 26.5522 14.3948C26.151 14.0444 25.9042 13.6124 25.797 13.0932C25.7442 12.8364 25.6798 12.5816 25.6178 12.3268C25.385 11.3688 24.895 10.9092 23.9086 10.904C22.8206 10.898 21.9018 10.582 21.069 9.8664C20.329 9.2308 19.5878 9.2296 18.8514 9.8644C18.019 10.582 17.1006 10.9408 16.0118 10.8916C15.957 10.8892 15.9014 10.8968 15.8462 10.9012C15.1102 10.9564 14.5002 11.364 14.3774 12.0852C14.1654 13.3328 13.6074 14.3152 12.6262 15.1208C12.0758 15.5728 12.0118 16.2432 12.301 16.908C12.4386 17.2244 12.5954 17.5328 12.7578 17.8372C13.0138 18.3172 13.1146 18.8136 13.0126 19.3576C12.9466 19.7092 12.9294 20.0704 12.9002 20.3372ZM16.6682 29.3424C17.1714 28.2588 17.6438 27.2412 18.1246 26.2052C17.8346 26.1848 17.5982 26.1868 17.3686 26.1484C16.4274 25.9912 15.7218 25.4912 15.2258 24.674C15.0046 24.3096 14.7422 23.97 14.431 23.5224C13.787 24.9064 13.211 26.144 12.601 27.4544C13.4346 27.3064 14.1806 27.1836 14.9222 27.0364C15.1922 26.9828 15.3462 27.0404 15.4842 27.294C15.8514 27.9692 16.251 28.6264 16.6682 29.3424ZM23.1974 28.4996C23.6422 27.7848 24.0454 27.1584 24.4242 26.5176C24.567 26.2764 24.6922 26.1456 25.005 26.248C25.3566 26.3632 25.7314 26.4104 26.0966 26.482C26.4758 26.5564 26.8566 26.6252 27.3078 26.7096C26.8182 25.5768 26.3674 24.5328 25.9166 23.4904C25.447 23.626 25.1334 23.8708 24.933 24.2644C24.3694 25.3716 23.521 26.09 22.2034 26.194C22.5318 26.9552 22.8462 27.6848 23.1974 28.4996Z" fill="#3E78B2"/>
<path d="M39.8716 20.642C39.7336 24.0092 38.8768 27.1264 37.1628 29.9728C36.4964 31.0796 35.6636 32.0868 34.8904 33.1272C34.8188 33.2236 34.5944 33.3132 34.5024 33.2712C33.012 32.592 31.5316 31.8908 30.0176 31.18C30.0248 31.1628 30.0756 31.0532 30.1192 30.9404C30.6488 29.5792 31.1748 28.2164 31.7076 26.8564C31.848 26.498 32.0004 26.1436 32.1632 25.7948C32.8584 24.3044 33.3044 22.7484 33.4256 21.104C33.4368 20.9536 33.4624 20.804 33.4828 20.6416C35.6112 20.642 37.7208 20.642 39.8716 20.642Z" fill="#3E78B2"/>
<path d="M33.5273 19.2601C33.3805 18.4133 33.2805 17.5605 33.0749 16.7337C32.8861 15.9745 32.5985 15.2381 32.3281 14.5009C31.8733 13.2597 31.4109 12.0209 30.9261 10.7909C30.6433 10.0737 30.3113 9.37649 29.9805 8.62289C30.2729 8.52009 30.5737 8.43809 30.8541 8.31129C32.0353 7.77889 33.2117 7.23569 34.3869 6.68969C34.5545 6.61169 34.6765 6.52169 34.8481 6.71729C37.9933 10.2977 39.6425 14.4741 39.8785 19.2597C37.7401 19.2601 35.6213 19.2601 33.5273 19.2601Z" fill="#3E78B2"/>
<path d="M11.9492 32.1095C12.3956 32.0071 12.7692 31.9079 13.1484 31.8411C13.2868 31.8167 13.46 31.8299 13.582 31.8935C15.2936 32.7875 17.1068 33.3179 19.0348 33.4487C19.1028 33.4535 19.1704 33.4711 19.266 33.4879C19.266 35.5139 19.266 37.5371 19.266 39.6303C16.2568 37.6743 13.8468 35.1911 11.9492 32.1095Z" fill="#3E78B2"/>
<path d="M20.6426 33.5463C21.6118 33.3631 22.5734 33.2395 23.5014 32.9891C24.3218 32.7675 25.1278 32.4543 25.895 32.0875C26.3654 31.8627 26.7874 31.7787 27.2726 31.9387C27.4806 32.0071 27.6966 32.0507 27.9594 32.1187C26.0834 35.1807 23.6694 37.6643 20.6426 39.6383C20.6426 37.5483 20.6426 35.5247 20.6426 33.5463Z" fill="#3E78B2"/>
<path d="M11.959 7.8004C13.8358 4.7432 16.2474 2.2668 19.259 0.287598C19.259 2.3528 19.259 4.3692 19.259 6.4188C18.6686 6.5012 18.041 6.5196 17.455 6.6856C16.305 7.0116 15.157 7.3668 14.0522 7.8176C13.5478 8.0236 13.1102 8.1416 12.5982 7.964C12.4066 7.8976 12.2042 7.862 11.959 7.8004Z" fill="#3E78B2"/>
<path d="M20.6426 0.275391C23.6726 2.26779 26.0846 4.74539 27.9646 7.81179C27.5094 7.91299 27.109 8.01139 26.7046 8.08619C26.5922 8.10699 26.4506 8.08779 26.3502 8.03419C24.6306 7.12059 22.8014 6.59819 20.8594 6.46539C20.7914 6.46059 20.725 6.43819 20.6426 6.42059C20.6426 4.39339 20.6426 2.36979 20.6426 0.275391Z" fill="#3E78B2"/>
<path d="M29.29 7.43608C27.6432 4.66088 25.5676 2.31688 23.0352 0.345283C25.3572 0.103283 31.7188 3.22648 33.6796 5.56528C32.2968 6.36168 30.8384 6.95448 29.29 7.43608Z" fill="#3E78B2"/>
<path d="M10.4648 7.45686C9.1172 6.88606 7.674 6.27486 6.2168 5.65766C7.4932 3.59406 13.4496 0.625659 16.7616 0.310059C15.6784 1.37286 14.4856 2.42086 13.442 3.60086C12.4036 4.77526 11.5152 6.08246 10.4648 7.45686Z" fill="#3E78B2"/>
<path d="M29.3339 32.4082C30.7983 33.0286 32.2503 33.6442 33.7923 34.2974C30.6887 37.2218 27.1599 38.957 23.0723 39.6018C25.5675 37.603 27.6575 35.255 29.3339 32.4082Z" fill="#3E78B2"/>
<path d="M16.9335 39.6551C12.7607 38.9587 9.23313 37.2207 6.20312 34.3691C7.58473 33.5879 8.98553 32.9847 10.4571 32.5515C10.5403 32.5271 10.7179 32.6499 10.7783 32.7487C11.9719 34.7075 13.3983 36.4767 15.0799 38.0359C15.6539 38.5679 16.2587 39.0675 16.9335 39.6551Z" fill="#3E78B2"/>
<path d="M10.8418 9.85973C10.9794 9.58333 11.117 9.30693 11.2686 9.00293C11.4334 9.04733 11.5826 9.08733 11.8066 9.14773C11.4674 9.43093 11.1834 9.66773 10.8994 9.90453C10.8802 9.88933 10.861 9.87453 10.8418 9.85973Z" fill="#3E78B2"/>
<path d="M28.1152 9.15151C28.3248 9.09271 28.464 9.05391 28.6424 9.00391C28.7876 9.28951 28.9316 9.57311 29.0756 9.85711C29.0556 9.87271 29.0352 9.88831 29.0152 9.90391C28.7324 9.66711 28.4492 9.43071 28.1152 9.15151Z" fill="#3E78B2"/>
<path d="M10.907 30.0132C11.187 30.2476 11.467 30.482 11.8006 30.7612C11.5926 30.8236 11.4454 30.8676 11.2746 30.9188C11.1242 30.6212 10.9838 30.3444 10.8438 30.0676C10.8649 30.0496 10.8862 30.0316 10.907 30.0132Z" fill="#3E78B2"/>
<path d="M29.072 30.0716C28.9312 30.3484 28.7908 30.6248 28.6448 30.912C28.4776 30.868 28.3364 30.8308 28.1172 30.7732C28.4444 30.4932 28.7264 30.252 29.008 30.0112C29.0292 30.0312 29.0504 30.0516 29.072 30.0716Z" fill="#3E78B2"/>
<path d="M19.9625 12.5358C22.5393 12.5586 24.5709 14.603 24.5645 17.1666C24.5581 19.7082 22.4585 21.775 19.9101 21.7482C17.3765 21.7214 15.3317 19.643 15.3497 17.113C15.3681 14.5722 17.4429 12.5134 19.9625 12.5358ZM18.9089 17.853C18.5965 17.519 18.3133 17.1982 18.0109 16.8974C17.6837 16.5714 17.3005 16.5502 17.0193 16.8174C16.7217 17.1006 16.7385 17.4862 17.0809 17.8394C17.4757 18.2462 17.8801 18.6438 18.2825 19.0434C18.7649 19.5226 19.0413 19.527 19.5549 19.061C20.5689 18.1414 21.5821 17.2202 22.5945 16.2986C22.7169 16.187 22.8489 16.0814 22.9517 15.9534C23.1829 15.665 23.1797 15.3586 22.9289 15.0898C22.6769 14.8202 22.3701 14.8118 22.0641 15.005C21.9601 15.0706 21.8745 15.1654 21.7825 15.249C20.8413 16.1014 19.9009 16.9542 18.9089 17.853Z" fill="#3E78B2"/>
</g>
<defs>
<clipPath id="clip0_5946_1291">
<rect width="40" height="40" fill="white"/>
</clipPath>
</defs>
</svg>
