<svg width="40" height="40" viewBox="0 0 40 40" fill="none" xmlns="http://www.w3.org/2000/svg">
<g clip-path="url(#clip0_5946_1272)">
<path d="M28.8799 40.0001C28.7187 39.5473 28.5671 39.0909 28.3879 38.6453C28.3507 38.5525 28.2195 38.4793 28.1155 38.4349C27.5211 38.1801 26.9267 37.9245 26.3211 37.6985C26.1627 37.6393 25.9511 37.6373 25.7891 37.6889C25.3739 37.8209 24.9399 38.1737 24.5763 38.1053C24.2267 38.0393 23.9539 37.5577 23.6507 37.2553C22.8651 36.4717 22.8543 36.4653 23.3235 35.4525C23.4703 35.1353 23.4703 34.8949 23.2991 34.5741C23.0351 34.0789 22.8779 33.5281 22.6467 33.0137C22.5775 32.8597 22.4359 32.7013 22.2867 32.6273C21.9063 32.4385 21.3423 32.4005 21.1523 32.1073C20.9479 31.7921 21.0783 31.2549 21.0763 30.8145C21.0715 29.7029 21.0695 29.6889 22.1115 29.3049C22.4411 29.1833 22.6103 29.0137 22.7179 28.6697C22.8859 28.1337 23.1607 27.6325 23.3619 27.1053C23.4223 26.9473 23.4375 26.7365 23.3867 26.5781C23.2535 26.1625 22.8959 25.7309 22.9611 25.3649C23.0231 25.0161 23.5015 24.7377 23.8043 24.4365C24.0679 24.1741 24.3131 23.7669 24.6191 23.7105C24.9243 23.6541 25.3067 23.9329 25.6339 24.1049C25.9331 24.2621 26.1679 24.2409 26.4739 24.0825C26.9855 23.8177 27.5443 23.6457 28.0727 23.4109C28.2159 23.3473 28.3659 23.2201 28.4351 23.0833C28.5831 22.7889 28.6907 22.4725 28.7951 22.1585C28.8695 21.9357 28.9759 21.8257 29.2363 21.8345C29.8575 21.8557 30.4807 21.8281 31.1015 21.8525C31.2247 21.8573 31.4283 21.9869 31.4491 22.0889C31.6447 23.0377 32.1915 23.6013 33.1567 23.7481C33.2091 23.7561 33.2635 23.7845 33.3059 23.8181C33.9551 24.3321 34.6063 24.2693 35.2599 23.8293C35.5579 23.6289 35.7827 23.6721 36.0299 23.9573C36.3999 24.3845 36.8171 24.7721 37.2279 25.1625C37.3795 25.3065 37.4439 25.4409 37.3207 25.6225C36.8015 26.3881 36.7335 27.1513 37.3247 27.9145C37.3327 27.9249 37.3375 27.9397 37.3391 27.9529C37.4583 28.9313 38.0719 29.4165 38.9843 29.6085C39.0767 29.6281 39.1635 29.6757 39.2527 29.7105C39.2527 30.5129 39.2527 31.3149 39.2527 32.1173C38.8567 32.2777 38.4663 32.4537 38.0631 32.5929C37.8179 32.6773 37.6979 32.8133 37.6147 33.0633C37.4451 33.5721 37.2587 34.0829 37.0067 34.5541C36.8315 34.8817 36.7987 35.1405 36.9779 35.4669C37.1495 35.7793 37.4227 36.1569 37.3619 36.4441C37.2959 36.7545 36.9011 37.0001 36.6375 37.2617C36.3255 37.5717 36.0371 38.0425 35.6703 38.1201C35.3271 38.1925 34.9011 37.8221 34.4983 37.6869C34.3399 37.6337 34.1271 37.6461 33.9683 37.7061C33.3887 37.9245 32.8167 38.1641 32.2531 38.4209C32.0987 38.4913 31.9319 38.6245 31.8611 38.7721C31.6711 39.1693 31.5299 39.5901 31.3695 40.0013C30.5399 40.0001 29.7099 40.0001 28.8799 40.0001ZM25.8743 30.9273C25.8771 33.2989 27.7727 35.1949 30.1431 35.1965C32.5035 35.1981 34.4247 33.2905 34.4335 30.9361C34.4423 28.5709 32.5031 26.6341 30.1319 26.6401C27.7715 26.6465 25.8715 28.5597 25.8743 30.9273Z" fill="#3E78B2"/>
<path d="M0.746094 4.56426C0.946894 4.21146 1.08609 3.79506 1.36689 3.52586C1.60289 3.29946 2.00049 3.13906 2.33089 3.13106C3.94809 3.09146 5.56649 3.11226 7.18449 3.11346C7.22289 3.11346 7.26129 3.13586 7.32649 3.15586C7.32649 3.63026 7.32649 4.10706 7.32649 4.64706C7.04249 4.64706 6.75889 4.64706 6.47489 4.64706C5.65889 4.64706 4.84289 4.64226 4.02689 4.64826C2.95049 4.65626 2.22729 5.36666 2.22689 6.44506C2.22289 15.2963 2.22289 24.1471 2.22649 32.9983C2.22689 34.1327 2.94569 34.8059 4.13689 34.8063C9.84849 34.8087 15.5605 34.8075 21.2721 34.8075C21.3965 34.8075 21.5209 34.8091 21.6457 34.8075C21.9777 34.8039 22.0669 34.9583 21.9401 35.2559C21.7945 35.5979 21.6501 35.9407 21.4765 36.3507C21.3693 36.3507 21.2081 36.3507 21.0469 36.3507C14.9893 36.3507 8.93209 36.3507 2.87449 36.3507C1.54089 36.3507 1.18889 36.1031 0.746094 34.8539C0.746094 24.7579 0.746094 14.6611 0.746094 4.56426Z" fill="#3E78B2"/>
<path d="M15.4346 0C15.9026 0.2488 16.419 0.4372 16.8226 0.7652C17.1374 1.0208 17.3502 1.4312 17.5342 1.8084C17.6494 2.044 17.7494 2.1408 18.013 2.136C18.883 2.1204 19.7538 2.1272 20.6242 2.1312C21.1206 2.1336 21.2334 2.2468 21.235 2.7428C21.2382 3.7516 21.239 4.76 21.2346 5.7688C21.2326 6.2248 21.097 6.3668 20.641 6.3672C16.855 6.3704 13.069 6.3704 9.28335 6.3672C8.81655 6.3668 8.69295 6.2388 8.69095 5.7752C8.68655 4.7528 8.68615 3.7304 8.69095 2.7076C8.69335 2.2236 8.78815 2.1332 9.28655 2.1308C10.171 2.1264 11.0554 2.136 11.9394 2.122C12.0626 2.12 12.2638 2.0452 12.2938 1.9576C12.6666 0.876 13.4598 0.2888 14.5218 0C14.8262 0 15.1302 0 15.4346 0ZM15.6842 2.2804C15.6862 1.8724 15.3638 1.554 14.9514 1.5568C14.5566 1.5596 14.245 1.8608 14.2314 2.2524C14.2174 2.6588 14.5346 2.9904 14.9434 2.9968C15.3534 3.0032 15.6822 2.6856 15.6842 2.2804Z" fill="#3E78B2"/>
<path d="M22.598 5.97969C23.7192 5.97969 24.8248 5.96409 25.9288 5.99769C26.0788 6.00209 26.2412 6.23769 26.3588 6.39529C26.4124 6.46729 26.3724 6.60969 26.3724 6.72049C26.3728 11.8785 26.3728 17.0365 26.3724 22.1949C26.3724 22.7681 26.194 22.8853 25.6728 22.6573C25.4832 22.5741 25.2964 22.4829 25.1028 22.4105C24.5768 22.2149 24.0864 22.2885 23.68 22.6793C23.082 23.2541 22.4948 23.8413 21.9192 24.4385C21.4756 24.8989 21.3592 25.4877 21.7024 26.0001C22.2268 26.7829 21.7012 27.3797 21.484 28.0385C21.4608 28.1089 21.3424 28.1589 21.258 28.1953C21.0552 28.2825 20.8452 28.3521 20.6408 28.4357C20.0552 28.6749 19.7448 29.1049 19.7444 29.7449C19.7436 30.4777 19.7608 31.2113 19.7388 31.9433C19.7192 32.5885 19.9544 33.0709 20.6332 33.4305C20.4256 33.4505 20.3176 33.4701 20.2096 33.4701C14.858 33.4717 9.50644 33.4721 4.15444 33.4705C3.63644 33.4705 3.55724 33.3873 3.55724 32.8605C3.55644 24.1069 3.55644 15.3533 3.55724 6.60009C3.55724 6.07089 3.65244 5.97969 4.19124 5.97889C5.22684 5.97729 6.26244 5.97849 7.30724 5.97849C7.33244 6.04849 7.35804 6.09649 7.36724 6.14769C7.53524 7.09489 8.17604 7.69289 9.12884 7.69609C13.0144 7.70929 16.9004 7.71009 20.7864 7.69569C21.7748 7.69169 22.3404 7.13249 22.598 5.97969ZM22.7448 16.8021C22.7272 16.8013 22.7092 16.8005 22.6916 16.8001C22.6916 15.6661 22.6848 14.5321 22.6952 13.3981C22.6992 12.9913 22.5516 12.7193 22.1668 12.5557C19.8924 11.5889 17.6256 10.6049 15.3452 9.65329C15.1204 9.55929 14.7868 9.56569 14.5604 9.66049C12.2932 10.6077 10.0392 11.5865 7.77764 12.5473C7.38284 12.7149 7.21404 12.9777 7.21644 13.4097C7.22844 15.4009 7.21124 17.3925 7.22444 19.3837C7.25324 23.7485 10.3596 27.5373 14.636 28.4313C14.8212 28.4701 15.0252 28.4785 15.2104 28.4461C18.8836 27.8013 22.0924 24.4925 22.5584 20.7741C22.7224 19.4625 22.6884 18.1265 22.7448 16.8021Z" fill="#3E78B2"/>
<path d="M22.5898 4.64742C22.5898 4.11022 22.5898 3.63142 22.5898 3.10702C22.911 3.10702 23.2122 3.10702 23.5134 3.10702C24.7854 3.10702 26.057 3.10262 27.329 3.10862C28.4826 3.11382 29.1322 3.76262 29.1326 4.90702C29.1342 9.96702 29.1334 15.0266 29.1334 20.0866C29.1334 20.2094 29.1334 20.3326 29.1334 20.3582C28.6222 20.601 28.1698 20.8158 27.7062 21.0362C27.7062 20.9622 27.7062 20.817 27.7062 20.6714C27.7062 16.0126 27.7066 11.3538 27.7062 6.69462C27.7062 5.30342 27.0446 4.64862 25.6426 4.64822C24.6354 4.64742 23.6286 4.64742 22.5898 4.64742Z" fill="#3E78B2"/>
<path d="M21.4037 17.0034C21.3529 18.2034 21.3917 19.4154 21.2341 20.6014C20.8181 23.733 18.2453 26.433 15.1525 27.091C15.0117 27.121 14.8509 27.109 14.7089 27.0762C11.1733 26.2602 8.59329 23.0634 8.55649 19.435C8.53809 17.6242 8.55689 15.8126 8.54689 14.0018C8.54569 13.7614 8.61249 13.635 8.84329 13.5374C10.8017 12.7114 12.7525 11.8682 14.7117 11.0446C14.8553 10.9842 15.0681 10.9838 15.2117 11.0438C17.1709 11.8678 19.1225 12.7102 21.0797 13.539C21.2909 13.6286 21.3633 13.747 21.3609 13.9738C21.3497 14.983 21.3561 15.9922 21.3561 17.0014C21.3717 17.0022 21.3877 17.0026 21.4037 17.0034ZM13.8349 19.767C13.2949 19.2222 12.7973 18.7042 12.2817 18.205C11.8081 17.747 11.1881 17.749 10.7693 18.1862C10.3613 18.6118 10.3733 19.2074 10.8249 19.6682C11.5597 20.4182 12.3025 21.1606 13.0517 21.8958C13.5557 22.3902 14.1221 22.395 14.6253 21.8922C16.1197 20.3978 17.6065 18.895 19.0837 17.3834C19.2385 17.225 19.3585 16.995 19.4081 16.7782C19.5093 16.3358 19.2769 15.9074 18.8881 15.7014C18.4777 15.4838 18.0081 15.5546 17.6373 15.9234C16.7265 16.8294 15.8249 17.745 14.9209 18.6582C14.5625 19.0194 14.2085 19.385 13.8349 19.767Z" fill="#3E78B2"/>
</g>
<defs>
<clipPath id="clip0_5946_1272">
<rect width="40" height="40" fill="white"/>
</clipPath>
</defs>
</svg>
