<svg width="104" height="104" viewBox="0 0 104 104" fill="none" xmlns="http://www.w3.org/2000/svg">
<g filter="url(#filter0_d_6100_1232)">
<circle cx="52" cy="52" r="44" fill="white"/>
</g>
<path d="M36.9083 28.8501C37.4923 28.9746 38.0863 29.0641 38.6588 29.2291C42.7138 30.3956 45.4108 34.1706 45.2028 38.3656C44.9963 42.5341 41.9008 46.0436 37.7613 46.8026C32.8573 47.7016 28.1553 44.4381 27.2293 39.4926C26.3328 34.7041 29.5703 29.9731 34.3803 29.0431C34.7223 28.9771 35.0648 28.9141 35.4073 28.8501C35.9078 28.8501 36.4078 28.8501 36.9083 28.8501ZM30.3448 42.4731C31.5633 40.1226 33.4483 38.7511 36.1443 38.7486C38.8523 38.7461 40.7478 40.1241 41.9683 42.4941C44.1538 39.9486 44.3898 35.3931 41.2248 32.4576C38.1823 29.6361 33.4618 29.8261 30.6688 32.8601C27.7358 36.0451 28.4528 40.4521 30.3448 42.4731Z" fill="#3E78B2"/>
<path d="M67.6878 57.1082C72.7043 57.1062 76.7523 61.1432 76.7488 66.1457C76.7453 71.1377 72.6728 75.1947 67.6758 75.1842C62.6818 75.1737 58.6243 71.1007 58.6348 66.1087C58.6448 61.1412 62.6993 57.1102 67.6878 57.1082ZM73.5048 70.7257C75.6223 68.3062 75.9763 63.7602 72.8358 60.7507C69.8883 57.9267 65.1703 58.0242 62.3133 60.9927C59.3413 64.0817 59.8888 68.5132 61.8813 70.7137C64.2338 65.7352 71.1113 65.7127 73.5048 70.7257Z" fill="#3E78B2"/>
<path d="M64.8425 51.151C60.81 51.151 56.83 51.151 52.8105 51.151C52.8105 47.734 52.8105 44.332 52.8105 40.8675C55.83 40.785 58.811 40.416 61.7905 39.636C63.695 43.2335 64.6905 47.0595 64.8425 51.151Z" fill="#3E78B2"/>
<path d="M39.0039 52.9031C43.0479 52.9031 47.0249 52.9031 51.0369 52.9031C51.0369 56.3286 51.0369 59.7281 51.0369 63.1781C48.0014 63.2521 45.0224 63.6316 42.0504 64.4071C40.1649 60.8176 39.1704 57.0041 39.0039 52.9031Z" fill="#3E78B2"/>
<path d="M69.1522 36.7251C72.7322 40.7886 74.6912 45.5936 74.9677 51.1386C72.1477 51.1386 69.3747 51.1386 66.5517 51.1386C66.3987 46.9451 65.3992 42.9651 63.5137 39.2546C65.3747 38.4196 67.2172 37.5931 69.1522 36.7251Z" fill="#3E78B2"/>
<path d="M28.877 52.9011C31.7275 52.9011 34.489 52.9011 37.296 52.9011C37.4615 57.1081 38.459 61.0891 40.331 64.7876C38.4655 65.6251 36.622 66.4531 34.695 67.3186C31.118 63.2706 29.157 58.4636 28.877 52.9011Z" fill="#3E78B2"/>
<path d="M38.9688 51.1331C39.0612 50.1686 39.1398 49.2421 39.2503 48.3196C39.2648 48.1976 39.4243 48.0381 39.5518 47.9916C43.0887 46.6996 45.3838 44.2521 46.4508 40.6511C46.4593 40.6216 46.4888 40.5986 46.5183 40.5586C48.0003 40.6716 49.4912 40.7851 51.0277 40.9021C51.0277 44.2826 51.0277 47.6846 51.0277 51.1326C47.0502 51.1331 43.0602 51.1331 38.9688 51.1331Z" fill="#3E78B2"/>
<path d="M64.8725 52.9221C64.7755 53.8886 64.6935 54.8126 64.5785 55.7326C64.5635 55.8541 64.403 56.0111 64.2755 56.0581C60.7425 57.3521 58.452 59.7996 57.3895 63.3981C57.381 63.4271 57.3505 63.4496 57.3225 63.4851C55.839 63.3716 54.349 63.2576 52.8145 63.1401C52.8145 59.7636 52.8145 56.3656 52.8145 52.9221C56.7995 52.9221 60.7855 52.9221 64.8725 52.9221Z" fill="#3E78B2"/>
<path d="M51.0389 74.2822C47.6879 72.0562 45.0199 69.3211 42.9219 65.9411C45.6139 65.2711 48.2874 64.9336 51.0389 64.8896C51.0389 68.0111 51.0389 71.0927 51.0389 74.2822Z" fill="#3E78B2"/>
<path d="M60.9102 38.0877C58.9082 38.6877 54.2512 39.2712 52.8047 39.1087C52.8047 36.0302 52.8047 32.9487 52.8047 29.7632C56.1502 31.9782 58.8112 34.7262 60.9102 38.0877Z" fill="#3E78B2"/>
<path d="M67.9431 35.4635C66.1036 36.252 64.4006 36.982 62.6786 37.7205C60.6716 34.3705 58.1836 31.6095 55.1836 29.2915C60.0421 29.963 64.2286 32.0015 67.9431 35.4635Z" fill="#3E78B2"/>
<path d="M48.5791 74.7907C43.8031 74.0762 39.6106 72.0417 35.9121 68.5847C37.7171 67.8047 39.4171 67.0697 41.0206 66.3772C42.2511 67.9687 43.3141 69.5227 44.5631 70.9102C45.8121 72.2967 47.2466 73.5172 48.5791 74.7907Z" fill="#3E78B2"/>
<path d="M52.8066 74.2005C52.8066 71.0985 52.8066 68.0145 52.8066 64.8435C54.2326 64.952 55.6216 65.0575 56.9256 65.1565C57.0631 66.35 57.1696 67.452 57.3266 68.5475C57.3871 68.97 57.5806 69.3725 57.6741 69.7925C57.7076 69.942 57.6826 70.1705 57.5871 70.2725C56.2031 71.7475 54.6681 73.048 52.9766 74.1625C52.9411 74.186 52.8876 74.183 52.8066 74.2005Z" fill="#3E78B2"/>
<path d="M46.7846 38.8777C46.8841 37.1962 46.6896 35.6587 46.1401 34.1702C46.1016 34.0662 46.1681 33.8717 46.2526 33.7812C47.6361 32.3057 49.1711 31.0057 50.8576 29.8862C50.8956 29.8607 50.9491 29.8592 51.0346 29.8357C51.0346 32.9372 51.0346 36.0207 51.0346 39.1972C49.6211 39.0907 48.2326 38.9862 46.7846 38.8777Z" fill="#3E78B2"/>
<path d="M28.7949 51.1401C29.0309 49.5066 29.2594 47.9261 29.5044 46.2336C31.9584 48.0631 34.5604 48.7691 37.4819 48.4651C37.4134 49.3636 37.3469 50.2321 37.2774 51.1396C34.5064 51.1401 31.7349 51.1401 28.7949 51.1401Z" fill="#3E78B2"/>
<path d="M66.5651 52.8977C69.3661 52.8977 72.1256 52.8977 74.9446 52.8977C74.9231 54.5312 74.6611 56.1037 74.2601 57.7427C71.8926 55.9837 69.2836 55.2677 66.3516 55.5802C66.4231 54.6837 66.4921 53.8167 66.5651 52.8977Z" fill="#3E78B2"/>
<path d="M48.6569 29.2896C47.5249 30.2836 46.3934 31.2771 45.2459 32.2846C44.7964 31.7061 44.3244 31.0976 43.7754 30.3906C45.4279 29.9716 47.0259 29.5666 48.6244 29.1616C48.6354 29.2041 48.6459 29.2471 48.6569 29.2896Z" fill="#3E78B2"/>
<path d="M58.6016 71.7617C59.0491 72.3372 59.5161 72.9382 60.0676 73.6482C58.4166 74.0692 56.8186 74.4767 55.2206 74.8837C55.2076 74.8432 55.1946 74.8022 55.1816 74.7617C56.3221 73.7612 57.4626 72.7607 58.6016 71.7617Z" fill="#3E78B2"/>
<path d="M39.3381 35.1186C39.3311 36.8756 37.9211 38.2891 36.1641 38.3001C34.4011 38.3111 32.9486 36.8591 32.9571 35.0946C32.9661 33.3166 34.3976 31.9126 36.1876 31.9276C37.9511 31.9426 39.3451 33.3546 39.3381 35.1186Z" fill="#3E78B2"/>
<path d="M67.7178 66.5211C65.9243 66.5306 64.5073 65.1271 64.5078 63.3406C64.5078 61.5821 65.9073 60.1696 67.6703 60.1491C69.4318 60.1286 70.8888 61.5746 70.8883 63.3431C70.8883 65.0981 69.4783 66.5116 67.7178 66.5211Z" fill="#3E78B2"/>
<defs>
<filter id="filter0_d_6100_1232" x="0" y="0" width="104" height="104" filterUnits="userSpaceOnUse" color-interpolation-filters="sRGB">
<feFlood flood-opacity="0" result="BackgroundImageFix"/>
<feColorMatrix in="SourceAlpha" type="matrix" values="0 0 0 0 0 0 0 0 0 0 0 0 0 0 0 0 0 0 127 0" result="hardAlpha"/>
<feOffset/>
<feGaussianBlur stdDeviation="4"/>
<feComposite in2="hardAlpha" operator="out"/>
<feColorMatrix type="matrix" values="0 0 0 0 0.243137 0 0 0 0 0.470588 0 0 0 0 0.698039 0 0 0 0.2 0"/>
<feBlend mode="normal" in2="BackgroundImageFix" result="effect1_dropShadow_6100_1232"/>
<feBlend mode="normal" in="SourceGraphic" in2="effect1_dropShadow_6100_1232" result="shape"/>
</filter>
</defs>
</svg>
