<svg width="104" height="104" viewBox="0 0 104 104" fill="none" xmlns="http://www.w3.org/2000/svg">
    <g filter="url(#filter0_d_6100_1233)">
        <circle cx="52" cy="52" r="44" fill="white" />
    </g>
    <path
        d="M53.9832 27C54.2682 27.7065 54.5642 28.409 54.8327 29.122C54.9442 29.4185 55.1207 29.559 55.4237 29.6725C56.4362 30.051 57.4402 30.459 58.4202 30.914C58.7502 31.067 59.0022 31.1 59.3207 30.9445C59.8532 30.6845 60.4047 30.4635 60.9402 30.2085C61.2017 30.084 61.4012 30.0865 61.6192 30.31C62.4012 31.113 63.2122 31.888 63.9772 32.7065C64.1072 32.8455 64.1522 33.1775 64.0852 33.3665C63.8762 33.957 63.5707 34.5125 63.3552 35.101C63.2792 35.3085 63.2912 35.5965 63.3722 35.805C63.7872 36.878 64.2287 37.941 64.6847 38.997C64.7617 39.1755 64.9272 39.3655 65.0997 39.443C65.6867 39.7055 66.2907 39.932 66.8967 40.1475C67.1982 40.2545 67.3207 40.4245 67.3162 40.7485C67.3017 41.8535 67.3292 42.9595 67.2932 44.0635C67.2867 44.256 67.0912 44.5285 66.9117 44.6135C66.3312 44.8875 65.7082 45.0705 65.1222 45.335C64.9372 45.4185 64.7622 45.6245 64.6787 45.816C64.2262 46.8555 63.7892 47.902 63.3822 48.96C63.2967 49.183 63.2857 49.488 63.3652 49.7105C63.5697 50.2845 63.8312 50.8395 64.0952 51.3905C64.2327 51.6775 64.2097 51.888 63.9767 52.116C63.1877 52.888 62.4262 53.689 61.6217 54.444C61.4817 54.5755 61.1517 54.6295 60.9652 54.5625C60.3607 54.3465 59.7902 54.0355 59.1887 53.8095C58.9982 53.738 58.7282 53.762 58.5322 53.839C57.4632 54.26 56.4017 54.7005 55.3497 55.1615C55.1597 55.2445 54.9617 55.426 54.8777 55.612C54.6187 56.183 54.4027 56.774 54.1917 57.365C54.0867 57.659 53.9277 57.805 53.5997 57.8015C52.4972 57.7885 51.3942 57.7885 50.2917 57.8015C49.9622 57.8055 49.8052 57.656 49.7017 57.3625C49.5047 56.8025 49.2692 56.256 49.0742 55.695C48.9642 55.3785 48.7747 55.2295 48.4532 55.1085C47.4257 54.722 46.4277 54.2585 45.4047 53.8595C45.1832 53.773 44.8797 53.76 44.6587 53.839C44.0702 54.05 43.5162 54.358 42.9262 54.5645C42.7392 54.63 42.4112 54.5735 42.2707 54.4415C41.4662 53.6865 40.7052 52.885 39.9152 52.114C39.6802 51.8845 39.6627 51.675 39.7992 51.3895C40.0627 50.8385 40.3247 50.2835 40.5287 49.7095C40.6077 49.487 40.5947 49.182 40.5087 48.959C40.1017 47.901 39.6657 46.854 39.2132 45.815C39.1297 45.623 38.9537 45.418 38.7687 45.3345C38.1832 45.0695 37.5597 44.8865 36.9797 44.612C36.8007 44.5275 36.6062 44.2545 36.6002 44.062C36.5647 42.941 36.5667 41.8175 36.5992 40.6965C36.6042 40.5175 36.7907 40.2625 36.9587 40.1845C37.5412 39.9145 38.1637 39.7305 38.7472 39.462C38.9442 39.371 39.1282 39.1505 39.2182 38.945C39.6662 37.922 40.0972 36.891 40.4957 35.8475C40.5862 35.61 40.6007 35.2885 40.5187 35.051C40.3257 34.4915 40.0672 33.9525 39.8072 33.419C39.6587 33.1145 39.6827 32.8975 39.9342 32.654C40.7147 31.898 41.4807 31.126 42.2377 30.346C42.4602 30.1165 42.6607 30.064 42.9532 30.206C43.5017 30.4725 44.0537 30.74 44.6272 30.942C44.8622 31.0245 45.1827 31.0065 45.4192 30.916C46.4602 30.5175 47.4897 30.088 48.5102 29.639C48.7147 29.549 48.9307 29.359 49.0217 29.1605C49.3457 28.453 49.6182 27.722 49.9102 27C51.2687 27 52.6262 27 53.9832 27ZM56.9532 39.7695C56.9532 39.303 56.9502 38.8985 56.9537 38.4945C56.9657 37.1975 56.5472 36.057 55.6892 35.0905C54.2972 33.522 52.1702 32.9935 50.2182 33.7115C48.2792 34.4245 47.0002 36.2215 46.9472 38.3165C46.9352 38.7865 46.9452 39.257 46.9452 39.7685C46.5882 39.7685 46.3022 39.7645 46.0167 39.7695C45.2292 39.7825 44.9027 40.103 44.9017 40.89C44.8977 44.035 44.8972 47.1795 44.9022 50.3245C44.9032 51.06 45.2322 51.3895 45.9547 51.3905C49.9572 51.394 53.9597 51.394 57.9622 51.39C58.6337 51.3895 58.9872 51.059 58.9887 50.402C58.9967 47.189 58.9967 43.9765 58.9887 40.7635C58.9872 40.136 58.6397 39.8015 58.0042 39.773C57.6717 39.757 57.3372 39.7695 56.9532 39.7695Z"
        fill="#3E78B2" />
    <path
        d="M36.8809 75.9791C36.8934 75.3346 36.9139 74.6901 36.9174 74.0451C36.9249 72.5731 37.7859 71.5816 39.2519 71.3886C39.5869 71.3446 39.9284 71.3321 40.2669 71.3316C48.0539 71.3286 55.8409 71.3206 63.6279 71.3451C64.2879 71.3471 64.9884 71.4701 65.5979 71.7166C66.5204 72.0901 66.9934 72.8556 66.9809 73.8921C66.9724 74.5876 67.0024 75.2831 67.0149 75.9791C56.9704 75.9791 46.9254 75.9791 36.8809 75.9791Z"
        fill="#3E78B2" />
    <path
        d="M67.4727 38.5234C68.5687 38.5234 69.6652 38.5054 70.7602 38.5439C70.9132 38.5494 71.0837 38.8164 71.1937 38.9944C71.2547 39.0934 71.2092 39.2599 71.2092 39.3959C71.2097 46.0964 71.2097 52.7969 71.2092 59.4974C71.2092 60.1744 71.2082 60.1754 70.5542 60.1754C58.1512 60.1754 45.7482 60.1754 33.3447 60.1754C32.6882 60.1754 32.6877 60.1744 32.6877 59.4999C32.6877 52.7994 32.6872 46.0989 32.6877 39.3984C32.6877 38.5554 32.7267 38.5184 33.5912 38.5179C34.5357 38.5174 35.4802 38.5179 36.4587 38.5589C35.1547 39.0314 34.8682 40.0369 34.9502 41.2574C34.9797 41.6974 34.9547 42.1414 34.9552 42.5834C34.9552 43.1104 34.9482 43.6379 34.9572 44.1649C34.9727 45.0919 35.3722 45.8234 36.2712 46.0759C37.3572 46.3809 37.9167 47.0109 38.3382 48.0734C38.7337 49.0694 38.8307 49.8574 38.3062 50.8069C37.8042 51.7154 38.0022 52.4784 38.7282 53.2149C39.5387 54.0379 40.3587 54.8514 41.1742 55.6694C41.8507 56.3484 42.6722 56.5594 43.4942 56.0944C44.4862 55.5329 45.3237 55.6299 46.3607 56.0679C47.3362 56.4799 47.9347 56.9684 48.2267 57.9959C48.5137 59.0064 49.2112 59.4189 50.2652 59.4274C51.3852 59.4364 52.5047 59.4359 53.6247 59.4274C54.6817 59.4194 55.3822 59.0094 55.6687 58.0039C55.9612 56.9774 56.5627 56.4909 57.5322 56.0704C58.5907 55.6114 59.4387 55.5384 60.4457 56.1114C61.2237 56.5544 62.0317 56.3524 62.6822 55.7089C63.5397 54.8609 64.3922 54.0074 65.2377 53.1474C65.8797 52.4949 66.0777 51.6809 65.6372 50.9034C65.0642 49.8924 65.1532 49.0474 65.5952 47.9824C66.0077 46.9884 66.5242 46.4249 67.5292 46.1219C68.5327 45.8194 68.9362 45.1229 68.9412 44.0674C68.9457 43.1319 68.9067 42.1949 68.9512 41.2619C69.0092 40.0414 68.7462 39.0344 67.4727 38.5234Z"
        fill="#3E78B2" />
    <path
        d="M65.1625 35.6764C67.1405 35.6764 69.041 35.6334 70.9385 35.6894C72.581 35.7379 73.9735 37.2009 74.04 38.8474C74.068 39.5434 74.052 40.2414 74.052 40.9389C74.0525 48.0639 74.054 55.1889 74.051 62.3144C74.05 64.0959 73.07 65.4219 71.4515 65.8119C71.0775 65.9019 70.6785 65.9169 70.291 65.9174C58.0585 65.9224 45.826 65.9229 33.593 65.9204C31.642 65.9199 30.2925 64.9274 29.9185 63.2149C29.854 62.9199 29.8455 62.6079 29.8455 62.3034C29.8415 54.6339 29.8405 46.9649 29.8435 39.2954C29.8445 37.0814 31.257 35.6724 33.4745 35.6664C35.204 35.6614 36.934 35.6654 38.728 35.6654C38.5635 36.0464 38.447 36.3999 38.258 36.7094C38.1895 36.8219 37.949 36.8759 37.786 36.8774C36.31 36.8899 34.834 36.8809 33.358 36.8859C31.889 36.8909 31.059 37.7209 31.0585 39.1949C31.056 46.0479 31.056 52.9009 31.0585 59.7539C31.059 61.0964 31.761 61.8064 33.093 61.8069C45.665 61.8089 58.237 61.8089 70.809 61.8069C72.114 61.8069 72.835 61.0924 72.8355 59.7969C72.8385 52.9099 72.8395 46.0229 72.835 39.1359C72.834 37.7339 71.984 36.8934 70.578 36.8869C69.136 36.8804 67.6935 36.8704 66.252 36.8949C65.84 36.9019 65.581 36.8119 65.472 36.3839C65.416 36.1604 65.2875 35.9549 65.1625 35.6764Z"
        fill="#3E78B2" />
    <path
        d="M45.8516 69.66C45.8516 68.9505 45.8516 68.2795 45.8516 67.582C49.9266 67.582 53.9721 67.582 58.0461 67.582C58.0461 68.281 58.0461 68.952 58.0461 69.66C53.9861 69.66 49.9426 69.66 45.8516 69.66Z"
        fill="#3E78B2" />
    <path
        d="M54.6638 39.7419C52.8398 39.7419 51.0668 39.7419 49.1523 39.7419C49.2363 38.9739 49.2153 38.1979 49.4228 37.4889C49.7723 36.2919 51.0593 35.5429 52.2413 35.7054C53.5823 35.8894 54.5443 36.8894 54.6578 38.2569C54.6968 38.7274 54.6638 39.2034 54.6638 39.7419Z"
        fill="#3E78B2" />
    <path
        d="M51.9709 42.1019C52.6899 42.1089 53.3149 42.5344 53.5924 43.2049C53.8709 43.8784 53.7309 44.6704 53.1754 45.1634C52.9269 45.3839 52.8674 45.6069 52.8734 45.9089C52.8869 46.6209 52.8849 47.3334 52.8749 48.0454C52.8659 48.6854 52.4954 49.0719 51.9264 49.0604C51.3824 49.0494 51.0319 48.6694 51.0229 48.0519C51.0129 47.3229 51.0439 46.5924 51.0059 45.8649C50.9939 45.6309 50.8689 45.3589 50.7089 45.1849C50.2034 44.6359 50.0254 43.8844 50.3019 43.2099C50.5844 42.5229 51.2294 42.0944 51.9709 42.1019Z"
        fill="#3E78B2" />
    <defs>
        <filter id="filter0_d_6100_1233" x="0" y="0" width="104" height="104"
            filterUnits="userSpaceOnUse" color-interpolation-filters="sRGB">
            <feFlood flood-opacity="0" result="BackgroundImageFix" />
            <feColorMatrix in="SourceAlpha" type="matrix"
                values="0 0 0 0 0 0 0 0 0 0 0 0 0 0 0 0 0 0 127 0" result="hardAlpha" />
            <feOffset />
            <feGaussianBlur stdDeviation="4" />
            <feComposite in2="hardAlpha" operator="out" />
            <feColorMatrix type="matrix"
                values="0 0 0 0 0.243137 0 0 0 0 0.470588 0 0 0 0 0.698039 0 0 0 0.2 0" />
            <feBlend mode="normal" in2="BackgroundImageFix" result="effect1_dropShadow_6100_1233" />
            <feBlend mode="normal" in="SourceGraphic" in2="effect1_dropShadow_6100_1233"
                result="shape" />
        </filter>
    </defs>
</svg>