<svg width="104" height="104" viewBox="0 0 104 104" fill="none" xmlns="http://www.w3.org/2000/svg">
<g filter="url(#filter0_d_6100_1231)">
<circle cx="52" cy="52" r="44" fill="white"/>
</g>
<g clip-path="url(#clip0_6100_1231)">
<path d="M29.8789 56.9806C30.0559 56.5276 30.3794 56.3721 30.8684 56.3781C32.7394 56.4006 34.6104 56.3871 36.4819 56.3871C36.6259 56.3871 36.7699 56.3871 36.9429 56.3871C37.0259 57.1456 37.1164 57.8671 37.1819 58.5916C37.8259 65.7021 44.6379 70.7356 51.4359 69.7646C56.4714 69.0451 59.9919 66.2786 61.8679 61.5276C62.4509 60.0521 62.5879 58.4646 62.6994 56.8876C62.7094 56.7436 62.7339 56.6006 62.7559 56.4226C62.9094 56.4101 63.0489 56.3891 63.1884 56.3891C65.0759 56.3871 66.9634 56.3866 68.8509 56.3881C69.5879 56.3886 69.8309 56.6186 69.7824 57.3576C69.7159 58.3626 69.6034 59.3641 69.5154 60.3676C69.4714 60.8671 69.2199 61.1511 68.7209 61.2761C67.7284 61.5246 66.7484 61.8201 65.7584 62.0796C65.4799 62.1526 65.3289 62.2921 65.2314 62.5691C65.0489 63.0891 64.7964 63.5851 64.6169 64.1061C64.5544 64.2881 64.5544 64.5506 64.6414 64.7146C65.1209 65.6186 65.6194 66.5146 66.1469 67.3916C66.4179 67.8426 66.4079 68.2046 66.0929 68.6366C64.7779 70.4406 63.2244 71.9966 61.4174 73.3076C61.0074 73.6051 60.6534 73.6446 60.2144 73.3811C59.3784 72.8791 58.5144 72.4251 57.6764 71.9271C57.3559 71.7366 57.0934 71.6796 56.7389 71.8781C56.3169 72.1141 55.8529 72.2881 55.3899 72.4346C55.0659 72.5371 54.9359 72.7186 54.8549 73.0361C54.6019 74.0271 54.2984 75.0056 54.0404 75.9951C53.9264 76.4321 53.6834 76.6586 53.2369 76.7121C52.5459 76.7956 51.8574 76.9031 51.1679 77.0006C50.2889 77.0006 49.4099 77.0006 48.5314 77.0006C47.8584 76.9041 47.1874 76.7916 46.5119 76.7161C46.0469 76.6641 45.7844 76.4476 45.6649 75.9871C45.3999 74.9656 45.1164 73.9486 44.8079 72.9396C44.7524 72.7591 44.5679 72.5686 44.3934 72.4836C43.8839 72.2351 43.3564 72.0171 42.8209 71.8316C42.6369 71.7676 42.3704 71.7651 42.2044 71.8536C41.2724 72.3491 40.3539 72.8716 39.4429 73.4051C39.0579 73.6306 38.7334 73.6206 38.3659 73.3581C36.5099 72.0306 34.9194 70.4441 33.5864 68.5911C33.2974 68.1891 33.2924 67.8466 33.5389 67.4301C34.0689 66.5356 34.5789 65.6286 35.0664 64.7106C35.1534 64.5466 35.1524 64.2836 35.0899 64.1016C34.9099 63.5811 34.6549 63.0866 34.4744 62.5661C34.3769 62.2856 34.2204 62.1521 33.9454 62.0796C33.0039 61.8301 32.0754 61.5246 31.1254 61.3156C30.4929 61.1766 30.2194 60.8446 30.1679 60.2231C30.0939 59.3361 29.9774 58.4526 29.8794 57.5676C29.8789 57.3711 29.8789 57.1761 29.8789 56.9806Z" fill="#3E78B2"/>
<path d="M68.0041 27C68.5071 27.1225 69.0191 27.2155 69.5111 27.372C73.0396 28.496 75.2121 31.8685 74.8321 35.6095C74.4786 39.0875 71.5911 41.9505 68.0306 42.353C63.8246 42.8285 60.0671 39.852 59.5251 35.6155C59.0056 31.556 61.9036 27.7285 65.9726 27.0975C66.0981 27.078 66.2201 27.033 66.3436 27C66.8971 27 67.4506 27 68.0041 27ZM67.1956 28.545C63.8016 28.5345 61.0076 31.289 61.0031 34.6505C60.9986 38.077 63.7441 40.861 67.1366 40.87C70.5601 40.879 73.3396 38.136 73.3541 34.734C73.3686 31.3255 70.6126 28.5555 67.1956 28.545Z" fill="#3E78B2"/>
<path d="M67.1847 29.9121C69.8482 29.9146 72.0022 32.0726 71.9877 34.7236C71.9732 37.3536 69.8202 39.5006 67.1942 39.5031C64.5352 39.5056 62.3722 37.3566 62.3672 34.7086C62.3627 32.0571 64.5192 29.9096 67.1847 29.9121ZM66.4897 34.8851C66.3317 34.7391 66.2042 34.6176 66.0727 34.5006C65.7602 34.2226 65.4272 34.2021 65.1087 34.4711C64.8052 34.7276 64.8087 35.1286 65.1117 35.4646C65.3502 35.7291 65.6092 35.9761 65.8657 36.2246C66.3087 36.6541 66.6327 36.6566 67.0752 36.2201C67.7567 35.5481 68.4322 34.8701 69.1057 34.1906C69.5162 33.7761 69.5602 33.4056 69.2492 33.0896C68.9372 32.7731 68.5607 32.8141 68.1492 33.2216C67.5977 33.7676 67.0527 34.3201 66.4897 34.8851Z" fill="#3E78B2"/>
<path d="M38.3555 56.4084C46.048 56.4084 53.6725 56.4084 61.3445 56.4084C61.3375 60.6844 59.799 64.1969 56.1965 66.5649C52.3085 69.1209 48.187 69.2539 44.1535 66.9629C40.1335 64.6789 38.3875 61.0079 38.3555 56.4084Z" fill="#3E78B2"/>
<path d="M49.838 39.5221C46.597 39.5226 43.935 36.8616 43.9375 33.6241C43.94 30.3356 46.5845 27.6786 49.8495 27.6846C53.134 27.6906 55.7685 30.3296 55.769 33.6126C55.769 36.8936 53.132 39.5211 49.838 39.5221Z" fill="#3E78B2"/>
<path d="M46.3171 41.3186C46.6601 42.4961 46.9461 43.5261 47.2646 44.5456C47.3741 44.8951 47.5761 45.2151 47.7136 45.5576C47.7696 45.6976 47.7981 45.8636 47.7866 46.0141C47.6226 48.1216 47.4341 50.2271 47.2976 52.3361C47.2786 52.6321 47.4281 53.0141 47.6316 53.2351C48.1586 53.8066 48.7586 54.3106 49.3296 54.8411C49.2981 54.8866 49.2661 54.9326 49.2346 54.9781C47.4641 54.9781 45.6936 54.9781 43.8591 54.9781C43.8591 54.8026 43.8591 54.6291 43.8591 54.4561C43.8591 53.0411 43.8616 51.6256 43.8576 50.2106C43.8561 49.6656 43.6201 49.3726 43.1976 49.3636C42.7646 49.3541 42.4961 49.6726 42.4941 50.2286C42.4886 51.6276 42.4921 53.0266 42.4921 54.4251C42.4921 54.6016 42.4921 54.7781 42.4921 54.9871C41.1281 54.9871 39.8016 54.9871 38.4631 54.9871C38.4466 54.9536 38.4081 54.9116 38.4081 54.8691C38.4081 52.9501 38.3026 51.0231 38.4386 49.1136C38.6796 45.7361 40.5861 43.4811 43.6136 42.1446C44.4491 41.7766 45.3696 41.6021 46.3171 41.3186Z" fill="#3E78B2"/>
<path d="M57.212 54.9924C57.212 53.5204 57.212 52.0909 57.212 50.6609C57.212 50.4984 57.216 50.3354 57.211 50.1729C57.1945 49.6594 56.922 49.3504 56.501 49.3629C56.095 49.3749 55.849 49.6654 55.847 50.1669C55.8415 51.5819 55.845 52.9974 55.845 54.4124C55.845 54.5894 55.845 54.7664 55.845 54.9809C54.0385 54.9809 52.264 54.9809 50.3965 54.9809C50.95 54.4149 51.4375 53.8799 51.966 53.3884C52.348 53.0329 52.4665 52.6459 52.419 52.1294C52.23 50.0734 52.0775 48.0139 51.913 45.9554C51.9055 45.8599 51.875 45.7369 51.92 45.6709C52.6625 44.5774 52.731 43.2524 53.1705 42.0559C53.2375 41.8739 53.2835 41.6844 53.3715 41.3894C54.011 41.5354 54.67 41.6249 55.287 41.8369C58.384 42.9014 60.469 44.9284 61.171 48.2074C61.2755 48.6959 61.301 49.2079 61.306 49.7099C61.3225 51.3039 61.313 52.8979 61.311 54.4924C61.311 54.6509 61.297 54.8089 61.2885 54.9924C59.9325 54.9924 58.6065 54.9924 57.212 54.9924Z" fill="#3E78B2"/>
<path d="M49.8792 53.5556C49.8127 53.5126 49.7977 53.5051 49.7862 53.4946C48.6107 52.3921 48.6267 52.3936 48.7812 50.7856C48.9147 49.3961 49.0207 48.0036 49.1067 46.6106C49.1292 46.2511 49.2342 46.1186 49.5947 46.1526C49.8972 46.1811 50.2042 46.1586 50.5467 46.1586C50.6232 47.0571 50.6992 47.9091 50.7682 48.7616C50.8562 49.8456 50.9497 50.9291 51.0142 52.0146C51.0252 52.1971 50.9492 52.4266 50.8327 52.5666C50.5427 52.9141 50.2062 53.2221 49.8792 53.5556Z" fill="#3E78B2"/>
<path d="M47.7676 41.397C49.1736 41.397 50.5166 41.397 51.9361 41.397C51.7536 42.0335 51.5771 42.647 51.4016 43.2605C51.3746 43.354 51.3591 43.452 51.3231 43.5415C51.1636 43.9375 51.0801 44.5915 50.8191 44.673C50.2426 44.8535 49.5756 44.7565 48.9456 44.7445C48.8501 44.7425 48.7026 44.607 48.6716 44.505C48.3631 43.485 48.0736 42.459 47.7676 41.397Z" fill="#3E78B2"/>
</g>
<defs>
<filter id="filter0_d_6100_1231" x="0" y="0" width="104" height="104" filterUnits="userSpaceOnUse" color-interpolation-filters="sRGB">
<feFlood flood-opacity="0" result="BackgroundImageFix"/>
<feColorMatrix in="SourceAlpha" type="matrix" values="0 0 0 0 0 0 0 0 0 0 0 0 0 0 0 0 0 0 127 0" result="hardAlpha"/>
<feOffset/>
<feGaussianBlur stdDeviation="4"/>
<feComposite in2="hardAlpha" operator="out"/>
<feColorMatrix type="matrix" values="0 0 0 0 0.243137 0 0 0 0 0.470588 0 0 0 0 0.698039 0 0 0 0.2 0"/>
<feBlend mode="normal" in2="BackgroundImageFix" result="effect1_dropShadow_6100_1231"/>
<feBlend mode="normal" in="SourceGraphic" in2="effect1_dropShadow_6100_1231" result="shape"/>
</filter>
<clipPath id="clip0_6100_1231">
<rect width="47" height="50" fill="white" transform="translate(29 27)"/>
</clipPath>
</defs>
</svg>
