<svg width="104" height="104" viewBox="0 0 104 104" fill="none" xmlns="http://www.w3.org/2000/svg">
<g filter="url(#filter0_d_6100_1230)">
<circle cx="52" cy="52" r="44" fill="white"/>
</g>
<path d="M31.0977 60.6064C31.4217 60.1334 31.7232 59.6429 32.0747 59.1909C32.9672 58.0434 33.8762 56.9024 34.2027 55.4444C34.3127 54.9529 34.3592 54.4239 34.3112 53.9239C33.5402 45.9049 38.9022 38.9399 46.8552 37.6944C47.7892 37.5479 48.7482 37.5604 49.7667 37.4944C49.7667 38.2054 49.7297 38.8169 49.7747 39.4224C49.8592 40.5669 50.2482 41.6329 50.8667 42.5844C51.9752 44.2909 52.3977 46.1704 52.4247 48.2389C48.9047 48.2389 45.3652 48.2389 41.7652 48.2389C41.7652 49.2254 41.7652 50.1414 41.7652 51.0569C41.7652 51.5519 41.7942 52.0494 41.7557 52.5414C41.7262 52.9214 41.8822 53.0799 42.2187 53.1954C42.8632 53.4164 43.5012 53.6604 44.1242 53.9354C44.3137 54.0189 44.5037 54.2074 44.5917 54.3954C44.8872 55.0269 45.1497 55.6749 45.3957 56.3279C45.4587 56.4954 45.4722 56.7279 45.4072 56.8899C45.1332 57.5694 44.8302 58.2374 44.5177 58.8999C44.4012 59.1474 44.3987 59.3139 44.6127 59.5239C45.9267 60.8169 47.2287 62.1224 48.5232 63.4349C48.7102 63.6244 48.8597 63.6509 49.0962 63.5389C49.7432 63.2329 50.3932 62.9299 51.0602 62.6724C51.2672 62.5924 51.5537 62.5984 51.7657 62.6734C52.3907 62.8949 53.0057 63.1509 53.6047 63.4354C53.8082 63.5324 54.0207 63.7244 54.1107 63.9259C54.3952 64.5629 54.6372 65.2204 54.8667 65.8799C54.9667 66.1674 55.1142 66.2659 55.4192 66.2609C56.5767 66.2434 57.7342 66.2539 58.9387 66.2539C59.0187 70.1004 60.1617 73.6229 61.8362 76.9994C56.2012 76.9994 50.5657 76.9994 44.9307 76.9994C44.6427 76.1519 44.4507 75.2549 44.0447 74.4679C43.4277 73.2724 42.3522 72.5779 41.0052 72.4959C40.0812 72.4394 39.1457 72.5929 38.2147 72.6324C37.2337 72.6739 36.2462 72.7694 35.2727 72.6929C34.5937 72.6394 34.3757 72.2499 34.3322 71.5609C34.3097 71.2034 34.3102 70.8434 34.2692 70.4879C34.1962 69.8579 34.0892 69.2414 33.5852 68.7724C32.9982 68.2264 32.9807 67.7779 33.5542 67.2119C33.9017 66.8689 34.3112 66.5894 34.7037 66.2724C34.4677 66.1934 34.2247 66.1274 33.9937 66.0324C32.9087 65.5874 32.7387 65.2654 32.9742 64.1354C32.9917 64.0519 33.0157 63.9694 33.0282 63.8854C33.1647 62.9589 32.9612 62.6399 32.1802 62.1149C31.7622 61.8339 31.4557 61.3874 31.0992 61.0154C31.0977 60.8799 31.0977 60.7429 31.0977 60.6064Z" fill="#3E78B2"/>
<path d="M72.9003 51.8974C72.1678 52.1734 71.4293 52.4339 70.7083 52.7364C70.5538 52.8014 70.4213 52.9994 70.3493 53.1664C69.9128 54.1809 69.4873 55.2009 69.0818 56.2284C69.0113 56.4069 68.9893 56.6544 69.0563 56.8274C69.2828 57.4149 69.5788 57.9759 69.8028 58.5644C69.8628 58.7219 69.8288 59.0069 69.7203 59.1214C68.9568 59.9259 68.1548 60.6944 67.3828 61.4909C67.1888 61.6914 67.0338 61.6814 66.8053 61.5739C66.1733 61.2764 65.5318 60.7859 64.8908 60.7809C64.2623 60.7759 63.6343 61.2854 62.9978 61.5489C62.5733 61.7244 62.1443 61.9259 61.6983 62.0024C61.1793 62.0914 60.9583 62.3824 60.8133 62.8374C60.6638 63.3074 60.4538 63.7584 60.2953 64.2259C60.2018 64.5024 60.0708 64.6294 59.7523 64.6229C58.6773 64.6014 57.6013 64.6054 56.5258 64.6209C56.2463 64.6249 56.0963 64.5484 56.0023 64.2724C55.8048 63.6919 55.5923 63.1139 55.3408 62.5559C55.2573 62.3709 55.0593 62.1919 54.8703 62.1084C53.8598 61.6629 52.8393 61.2389 51.8123 60.8324C51.6333 60.7619 51.3833 60.7499 51.2068 60.8174C50.6183 61.0419 50.0433 61.3039 49.4738 61.5749C49.2423 61.6849 49.0888 61.6864 48.8963 61.4884C48.1238 60.6919 47.3243 59.9214 46.5578 59.1194C46.4548 59.0114 46.4103 58.7489 46.4648 58.6059C46.6968 58.0019 46.9953 57.4239 47.2268 56.8199C47.2928 56.6474 47.2653 56.4004 47.1948 56.2209C46.7908 55.1929 46.3703 54.1714 45.9313 53.1579C45.8548 52.9809 45.6918 52.7904 45.5203 52.7139C44.9293 52.4509 44.3113 52.2489 43.7178 51.9914C43.5843 51.9334 43.4268 51.7499 43.4183 51.6154C43.3843 51.0724 43.4043 50.5259 43.4043 49.9364C45.9988 49.9364 48.5653 49.9364 51.1653 49.9364C51.2628 52.0694 52.0573 53.8804 53.7183 55.2529C55.0293 56.3364 56.5488 56.8394 58.2573 56.8419C61.1928 56.8454 64.8653 54.6044 65.1428 49.9284C65.2693 49.9169 65.4008 49.8944 65.5323 49.8944C67.8373 49.8924 70.1418 49.8919 72.4468 49.8954C72.5978 49.8954 72.7488 49.9314 72.8998 49.9504C72.9003 50.5994 72.9003 51.2484 72.9003 51.8974Z" fill="#3E78B2"/>
<path d="M58.4537 27C58.8622 27.294 59.0122 27.6885 58.9697 28.19C58.9367 28.5795 58.9742 28.974 58.9592 29.366C58.9392 29.8845 58.6002 30.2285 58.1377 30.2265C57.6732 30.224 57.3427 29.8805 57.3272 29.359C57.3147 28.95 57.3487 28.539 57.3177 28.132C57.2812 27.646 57.4362 27.272 57.8392 27.0005C58.0437 27 58.2487 27 58.4537 27Z" fill="#3E78B2"/>
<path d="M58.4603 39.2691C58.2253 39.2691 58.0433 39.2691 57.8218 39.2691C57.8038 38.9491 57.7973 38.6471 57.7683 38.3471C57.6438 37.0471 56.5863 36.0916 55.3293 36.1356C54.0348 36.1811 53.0148 37.2361 53.0143 38.5301C53.0138 39.8286 54.0048 40.8586 55.3253 40.9246C55.5793 40.9371 55.8343 40.9266 56.1213 40.9266C56.1213 42.5971 56.1213 44.2276 56.1213 45.9341C55.4498 45.9341 54.7918 45.9461 54.1353 45.9211C54.0388 45.9176 53.8848 45.7476 53.8658 45.6361C53.6213 44.1941 52.9418 42.9416 52.2293 41.6911C50.7218 39.0446 51.2268 35.7561 53.4318 33.6126C55.6008 31.5036 58.9493 31.1026 61.5683 32.6371C64.1853 34.1711 65.5098 37.3376 64.6843 40.2126C64.4988 40.8586 64.1738 41.4771 63.8363 42.0646C63.1943 43.1821 62.6548 44.3291 62.4233 45.6081C62.4008 45.7311 62.2328 45.9156 62.1253 45.9206C61.4823 45.9501 60.8373 45.9351 60.1588 45.9351C60.1588 44.2536 60.1588 42.6241 60.1588 40.9281C60.4218 40.9281 60.6718 40.9366 60.9213 40.9266C62.2483 40.8726 63.2578 39.8571 63.2718 38.5671C63.2858 37.2711 62.2883 36.2086 60.9903 36.1371C59.7438 36.0681 58.6683 37.0071 58.5148 38.3101C58.4783 38.6131 58.4788 38.9201 58.4603 39.2691Z" fill="#3E78B2"/>
<path d="M62.128 47.6135C62.2285 48.4315 61.835 48.9385 61.0505 48.9445C59.1215 48.9605 57.1925 48.959 55.2635 48.9465C54.4725 48.9415 54.0965 48.4915 54.1245 47.6135C56.792 47.6135 59.461 47.6135 62.128 47.6135Z" fill="#3E78B2"/>
<path d="M61.0576 50.6521C61.0966 51.5196 60.6861 51.9851 59.8716 51.9931C58.7281 52.0046 57.5846 52.0021 56.4411 51.9941C55.6116 51.9881 55.2146 51.5666 55.2051 50.6521C57.1451 50.6521 59.0861 50.6521 61.0576 50.6521Z" fill="#3E78B2"/>
<path d="M63.3649 31.6039C62.6614 31.5869 62.2629 31.0014 62.5159 30.4709C62.7719 29.9339 63.0749 29.4144 63.4084 28.9214C63.6614 28.5474 64.0624 28.4904 64.4539 28.7084C64.8304 28.9179 64.9804 29.2899 64.7989 29.6709C64.5294 30.2379 64.2039 30.7829 63.8524 31.3039C63.7364 31.4754 63.4674 31.5439 63.3649 31.6039Z" fill="#3E78B2"/>
<path d="M54.0199 30.7951C53.7304 31.0951 53.5464 31.4351 53.2834 31.5156C53.0379 31.5906 52.5884 31.4836 52.4389 31.2921C52.0549 30.8016 51.7269 30.2431 51.5034 29.6626C51.4129 29.4271 51.5644 28.9631 51.7664 28.7901C51.9489 28.6336 52.5109 28.5996 52.6269 28.7406C53.1249 29.3456 53.5209 30.0361 54.0199 30.7951Z" fill="#3E78B2"/>
<path d="M69.19 33.897C69.0965 34.0165 68.9635 34.288 68.747 34.4405C68.331 34.734 67.874 34.9735 67.4215 35.2115C66.9775 35.445 66.527 35.3285 66.299 34.9535C66.053 34.5485 66.1675 34.0865 66.613 33.81C67.062 33.5315 67.517 33.2585 67.9895 33.024C68.571 32.7355 69.2035 33.1275 69.19 33.897Z" fill="#3E78B2"/>
<path d="M47.974 32.9246C48.055 32.9506 48.2095 32.9751 48.3395 33.0456C48.786 33.2891 49.231 33.5371 49.663 33.8051C50.072 34.0591 50.1985 34.5196 49.9945 34.9046C49.789 35.2926 49.327 35.4491 48.898 35.2276C48.4015 34.9711 47.9145 34.6906 47.448 34.3836C47.1405 34.1816 47.0165 33.8646 47.1425 33.4921C47.265 33.1316 47.52 32.9416 47.974 32.9246Z" fill="#3E78B2"/>
<path d="M56.3401 53.6641C57.5576 53.6641 58.7431 53.6641 59.9221 53.6641C60.0826 54.3671 59.5546 55.0196 58.8221 55.0241C58.3961 55.0266 57.9696 55.0401 57.5441 55.0251C56.7151 54.9951 56.3281 54.5661 56.3401 53.6641Z" fill="#3E78B2"/>
<path d="M58.449 45.9115C58.233 45.9115 58.0535 45.9115 57.834 45.9115C57.834 44.2605 57.834 42.632 57.834 40.9675C58.023 40.9675 58.2175 40.9675 58.449 40.9675C58.449 42.596 58.449 44.2245 58.449 45.9115Z" fill="#3E78B2"/>
<path d="M60.1763 39.2614C60.0388 38.3129 60.2598 37.8274 60.8298 37.7784C61.2453 37.7424 61.6233 38.0899 61.6328 38.5164C61.6458 39.1109 61.1923 39.3484 60.1763 39.2614Z" fill="#3E78B2"/>
<path d="M56.0834 39.274C55.5879 39.2785 54.9999 39.4575 54.7484 38.85C54.6524 38.618 54.7514 38.1805 54.9284 37.999C55.0829 37.84 55.5024 37.8155 55.7494 37.898C56.1544 38.0325 56.2419 38.5305 56.0834 39.274Z" fill="#3E78B2"/>
<defs>
<filter id="filter0_d_6100_1230" x="0" y="0" width="104" height="104" filterUnits="userSpaceOnUse" color-interpolation-filters="sRGB">
<feFlood flood-opacity="0" result="BackgroundImageFix"/>
<feColorMatrix in="SourceAlpha" type="matrix" values="0 0 0 0 0 0 0 0 0 0 0 0 0 0 0 0 0 0 127 0" result="hardAlpha"/>
<feOffset/>
<feGaussianBlur stdDeviation="4"/>
<feComposite in2="hardAlpha" operator="out"/>
<feColorMatrix type="matrix" values="0 0 0 0 0.243137 0 0 0 0 0.470588 0 0 0 0 0.698039 0 0 0 0.2 0"/>
<feBlend mode="normal" in2="BackgroundImageFix" result="effect1_dropShadow_6100_1230"/>
<feBlend mode="normal" in="SourceGraphic" in2="effect1_dropShadow_6100_1230" result="shape"/>
</filter>
</defs>
</svg>
