<svg width="50" height="50" viewBox="0 0 50 50" fill="none" xmlns="http://www.w3.org/2000/svg">
<g clip-path="url(#clip0_5953_1425)">
<path d="M49.999 21.0109C49.1755 20.1644 48.2215 19.5124 47.0845 19.1719C46.707 19.0589 46.78 18.8109 46.78 18.5654C46.778 14.5294 46.7785 10.4939 46.7785 6.45793C46.7785 5.54593 46.723 5.49093 45.7995 5.49093C31.928 5.49093 18.057 5.49093 4.18555 5.49093C3.27255 5.49093 3.21955 5.54543 3.21955 6.46943C3.21955 14.0559 3.21955 21.6429 3.21955 29.2294C3.21955 29.4164 3.21955 29.6039 3.21955 29.8579C3.46155 29.8579 3.66305 29.8579 3.86455 29.8579C7.00705 29.8579 10.149 29.8499 13.2915 29.8724C13.564 29.8744 13.895 30.0149 14.096 30.2014C14.871 30.9204 15.622 31.6679 16.3445 32.4394C16.6375 32.7519 16.8895 32.8179 17.232 32.5769C17.2735 32.5479 17.328 32.5374 17.3755 32.5164C19.1795 31.7144 19.1815 31.7104 20.965 32.5469C21.0995 32.6099 21.2195 32.7704 21.279 32.9134C21.526 33.5034 21.7345 34.1099 21.9885 34.6969C22.049 34.8359 22.231 35.0174 22.3585 35.0189C24.197 35.0399 26.0355 35.0334 27.8875 35.0334C28.1585 34.3309 28.398 33.6444 28.694 32.9824C28.7855 32.7779 29.007 32.6009 29.2105 32.4834C29.4775 32.3299 29.814 32.2909 30.0705 32.1259C30.665 31.7439 31.207 31.8044 31.804 32.1349C32.2675 32.3914 32.8215 32.7624 33.2695 32.6879C33.692 32.6179 34.032 32.0354 34.4035 31.6734C35.0115 31.0809 35.5205 30.2509 36.2485 29.9549C36.9955 29.6514 37.9565 29.8934 38.8215 29.8489C39.3265 29.8229 39.672 29.9689 40.0335 30.3479C42.71 33.1484 47.01 33.1899 49.7725 30.4754C49.8465 30.4029 49.923 30.3324 49.9985 30.2614C49.9985 31.1969 49.9985 32.1319 49.9985 33.0674C49.4365 35.3654 47.7775 36.4034 45.325 36.3479C41.3875 36.2589 37.4465 36.3239 33.507 36.3239C33.306 36.3239 33.105 36.3239 32.8905 36.3239C32.8905 38.3994 32.8905 40.3959 32.8905 42.4209C33.1205 42.4209 33.3105 42.4209 33.5 42.4209C35.27 42.4219 37.0405 42.4074 38.8105 42.4279C40.3645 42.4459 41.7485 43.3639 41.9135 44.6149C42.0425 45.5944 41.9395 46.6044 41.9395 47.5989C30.624 47.5989 19.3375 47.5989 8.01505 47.5989C8.01505 46.7854 8.03155 46.0084 8.01105 45.2324C7.98455 44.2524 8.43105 43.5419 9.22155 43.0189C9.84555 42.6059 10.5435 42.4234 11.2895 42.4224C13.0425 42.4204 14.795 42.4214 16.548 42.4214C16.7315 42.4214 16.9155 42.4214 17.1005 42.4214C17.1005 40.3574 17.1005 38.3609 17.1005 36.3244C16.537 36.3244 16.0185 36.3244 15.5 36.3244C11.6995 36.3244 7.89855 36.3304 4.09805 36.3219C1.98605 36.3174 0.628547 35.2694 0.0810469 33.2569C0.0630469 33.1914 0.0260469 33.1309 -0.00195312 33.0679C-0.00195312 23.8874 -0.00195312 14.7069 -0.00195312 5.52643C0.504547 3.39443 2.07555 2.24493 4.67555 2.25693C17.808 2.31943 30.9405 2.28543 44.0735 2.28593C44.802 2.28593 45.531 2.27543 46.2595 2.29193C47.9025 2.32943 49.297 3.37793 49.8065 4.94043C49.87 5.13593 49.9345 5.33093 49.999 5.52643C49.999 10.6874 49.999 15.8494 49.999 21.0109Z" fill="#B5E1FA"/>
<path d="M49.9982 24.5449C48.4392 24.1379 46.8827 23.7199 45.3172 23.3394C45.1322 23.2944 44.8447 23.3994 44.6947 23.5344C44.2187 23.9629 43.7667 24.4219 43.3477 24.9059C43.2192 25.0544 43.1477 25.3379 43.1882 25.5304C43.3202 26.1549 43.5342 26.7619 43.6797 27.3844C43.7502 27.6874 43.9182 27.7984 44.1972 27.8679C45.7097 28.2444 47.2182 28.6359 48.8267 29.0479C48.6272 29.2494 48.4872 29.4114 48.3267 29.5494C45.3887 32.0754 40.8182 30.6014 39.9172 26.8259C39.8347 26.4794 39.6872 26.3534 39.3602 26.2699C36.0867 25.4339 32.8172 24.5824 29.5487 23.7264C29.2472 23.6474 29.0642 23.7054 28.8397 23.9444C27.4902 25.3824 25.8222 25.9639 23.8877 25.5339C21.9587 25.1049 20.6842 23.8939 20.0552 22.0189C20.0227 21.9224 20.0107 21.8194 19.9727 21.6429C20.3247 21.7234 20.6352 21.7879 20.9422 21.8659C22.1847 22.1814 23.4242 22.5104 24.6712 22.8074C24.8312 22.8454 25.0302 22.7259 25.2097 22.6734C25.2387 22.6649 25.2592 22.6264 25.2832 22.6014C25.7997 22.0649 26.5992 21.5979 26.7547 20.9724C26.9147 20.3264 26.4312 19.5294 26.2642 18.7904C26.1907 18.4669 26.0202 18.3504 25.7147 18.2749C24.2852 17.9224 22.8617 17.5444 21.4362 17.1744C21.3592 17.1544 21.2832 17.1294 21.1327 17.0849C22.0132 16.1164 23.0392 15.5549 24.2632 15.4019C27.0247 15.0569 29.3522 16.6604 30.0302 19.3564C30.1007 19.6374 30.2082 19.7899 30.5052 19.8654C33.7962 20.7034 37.0837 21.5539 40.3702 22.4079C40.6367 22.4769 40.8282 22.5014 41.0552 22.2564C43.8617 19.2309 48.5587 20.2234 49.8872 24.1109C49.9142 24.1894 49.9607 24.2614 49.9977 24.3364C49.9982 24.4059 49.9982 24.4754 49.9982 24.5449Z" fill="#B5E1FA"/>
<path d="M49.9992 27.6625C48.9367 27.374 47.8737 27.0855 46.8047 26.7955C46.8047 26.3495 46.8047 25.9245 46.8047 25.4595C47.8917 25.714 48.9457 25.961 49.9992 26.2075C49.9992 26.6925 49.9992 27.1775 49.9992 27.6625Z" fill="#B5E1FA"/>
<path d="M23.2561 33.3709C23.0161 32.7524 22.8036 32.1484 22.5421 31.5659C22.4641 31.3919 22.2726 31.2269 22.0931 31.1479C21.2241 30.7649 20.3451 30.4029 19.4596 30.0574C19.2906 29.9914 19.0571 29.9779 18.8906 30.0394C18.3881 30.2259 17.9111 30.4819 17.4076 30.6654C17.2566 30.7204 16.9891 30.6924 16.8811 30.5904C16.1866 29.9379 15.5111 29.2634 14.8566 28.5704C14.7531 28.4609 14.7156 28.1944 14.7711 28.0469C14.9906 27.4654 15.4576 26.9014 15.4541 26.3329C15.4506 25.7709 14.9901 25.2119 14.7321 24.6504C14.6816 24.5404 14.6146 24.4279 14.6036 24.3124C14.4981 23.1969 13.7771 22.6924 12.7741 22.4814C12.2046 22.3614 12.0086 22.0624 12.0581 21.4689C12.1226 20.6949 12.0866 19.9114 12.0676 19.1324C12.0601 18.8309 12.1291 18.6329 12.4481 18.5684C13.7036 18.3139 14.5336 17.6479 14.7306 16.3084C14.7766 15.9964 14.9406 15.6689 15.1401 15.4194C15.5756 14.8734 15.4601 14.3819 15.1846 13.8104C14.5956 12.5889 14.6196 12.5774 15.5656 11.6334C15.9831 11.2169 16.4106 10.8104 16.8126 10.3799C17.0041 10.1754 17.1611 10.1089 17.4351 10.2454C17.9771 10.5154 18.5401 10.9324 19.0951 10.9334C19.6396 10.9344 20.1821 10.4884 20.7306 10.2504C20.9841 10.1404 21.2436 10.0024 21.5116 9.97237C22.2821 9.88537 22.5891 9.40487 22.8176 8.72737C23.2111 7.55787 23.2471 7.56987 24.4986 7.57037C25.1236 7.57037 25.7486 7.58487 26.3731 7.56437C26.6671 7.55437 26.8066 7.65937 26.8976 7.93437C27.0556 8.40987 27.2276 8.88437 27.4466 9.33337C27.5376 9.51987 27.7406 9.69437 27.9346 9.78037C28.7871 10.1589 29.6506 10.5134 30.5206 10.8509C30.7026 10.9214 30.9511 10.9479 31.1281 10.8834C31.6311 10.6989 32.1046 10.4354 32.6076 10.2504C32.7536 10.1969 33.0166 10.2419 33.1271 10.3464C33.8086 10.9879 34.4736 11.6479 35.1136 12.3309C35.2271 12.4524 35.2756 12.7354 35.2186 12.8964C35.0411 13.4004 34.7796 13.8749 34.5931 14.3764C34.5321 14.5409 34.5526 14.7729 34.6191 14.9409C34.9681 15.8229 35.3326 16.6994 35.7191 17.5659C35.7981 17.7439 35.9641 17.9279 36.1371 18.0104C36.5736 18.2179 37.0311 18.3879 37.4921 18.5369C37.8216 18.6434 37.9796 18.8059 37.9326 19.1709C37.8976 19.4409 37.9256 19.7184 37.9256 20.0514C36.5136 19.6889 35.1671 19.2974 33.7991 19.0089C32.9541 18.8309 32.4981 18.4804 32.1761 17.6044C30.8576 14.0169 26.9636 12.0424 23.1856 12.9199C19.5006 13.7759 16.9171 17.2964 17.2716 21.0624C17.5711 24.2479 19.2336 26.5219 22.2146 27.6694C25.1966 28.8169 27.9431 28.2144 30.3281 26.0879C30.6101 25.8364 30.8341 25.7689 31.1981 25.8749C32.1456 26.1514 33.1031 26.3974 34.0666 26.6144C34.5121 26.7149 34.7736 26.9139 34.9496 27.3524C35.3566 28.3674 35.3831 28.3569 34.6211 29.1154C34.1296 29.6049 33.6511 30.1079 33.1381 30.5739C33.0236 30.6784 32.7626 30.7284 32.6171 30.6744C32.0336 30.4579 31.4686 29.9964 30.8971 29.9969C30.3331 29.9974 29.7701 30.4479 29.2051 30.6974C29.0466 30.7674 28.8866 30.8609 28.7201 30.8799C27.7646 30.9884 27.3441 31.5874 27.0826 32.4524C26.8001 33.3884 26.7456 33.3719 25.7681 33.3719C24.9346 33.3709 24.1026 33.3709 23.2561 33.3709Z" fill="#B5E1FA"/>
<rect x="3" y="32" width="12" height="2" fill="#034268"/>
<rect x="36" y="32" width="5" height="2" fill="#034268"/>
<rect x="4" y="37" width="40" height="12" fill="#034268"/>
<path d="M5 49C5.01659 48.4457 5.0438 47.8915 5.04845 47.3368C5.05841 46.0708 6.2013 45.2182 8.14728 45.0522C8.59196 45.0143 9.04526 45.0036 9.49459 45.0032C19.8311 45.0006 30.1676 44.9937 40.5041 45.0148C41.3802 45.0165 42.31 45.1223 43.1191 45.3343C44.3436 45.6555 44.9715 46.3138 44.9549 47.2052C44.9436 47.8033 44.9834 48.4014 45 49C31.6669 49 18.3331 49 5 49Z" fill="#B5E1FA"/>
<path d="M17 43C17 41.9757 17 41.007 17 40C22.3467 40 27.6546 40 33 40C33 41.0091 33 41.9779 33 43C27.673 43 22.3677 43 17 43Z" fill="#B5E1FA"/>
</g>
<defs>
<clipPath id="clip0_5953_1425">
<rect width="50" height="50" fill="white"/>
</clipPath>
</defs>
</svg>
