<svg width="50" height="47" viewBox="0 0 50 47" fill="none" xmlns="http://www.w3.org/2000/svg">
<path d="M49.999 19.0109C49.1755 18.1644 48.2215 17.5124 47.0845 17.1719C46.707 17.0589 46.78 16.8109 46.78 16.5654C46.778 12.5294 46.7785 8.49393 46.7785 4.45793C46.7785 3.54593 46.723 3.49093 45.7995 3.49093C31.928 3.49093 18.057 3.49093 4.18555 3.49093C3.27255 3.49093 3.21955 3.54543 3.21955 4.46943C3.21955 12.0559 3.21955 19.6429 3.21955 27.2294C3.21955 27.4164 3.21955 27.6039 3.21955 27.8579C3.46155 27.8579 3.66305 27.8579 3.86455 27.8579C7.00705 27.8579 10.149 27.8499 13.2915 27.8724C13.564 27.8744 13.895 28.0149 14.096 28.2014C14.871 28.9204 15.622 29.6679 16.3445 30.4394C16.6375 30.7519 16.8895 30.8179 17.232 30.5769C17.2735 30.5479 17.328 30.5374 17.3755 30.5164C19.1795 29.7144 19.1815 29.7104 20.965 30.5469C21.0995 30.6099 21.2195 30.7704 21.279 30.9134C21.526 31.5034 21.7345 32.1099 21.9885 32.6969C22.049 32.8359 22.231 33.0174 22.3585 33.0189C24.197 33.0399 26.0355 33.0334 27.8875 33.0334C28.1585 32.3309 28.398 31.6444 28.694 30.9824C28.7855 30.7779 29.007 30.6009 29.2105 30.4834C29.4775 30.3299 29.814 30.2909 30.0705 30.1259C30.665 29.7439 31.207 29.8044 31.804 30.1349C32.2675 30.3914 32.8215 30.7624 33.2695 30.6879C33.692 30.6179 34.032 30.0354 34.4035 29.6734C35.0115 29.0809 35.5205 28.2509 36.2485 27.9549C36.9955 27.6514 37.9565 27.8934 38.8215 27.8489C39.3265 27.8229 39.672 27.9689 40.0335 28.3479C42.71 31.1484 47.01 31.1899 49.7725 28.4754C49.8465 28.4029 49.923 28.3324 49.9985 28.2614C49.9985 29.1969 49.9985 30.1319 49.9985 31.0674C49.4365 33.3654 47.7775 34.4034 45.325 34.3479C41.3875 34.2589 37.4465 34.3239 33.507 34.3239C33.306 34.3239 33.105 34.3239 32.8905 34.3239C32.8905 36.3994 32.8905 38.3959 32.8905 40.4209C33.1205 40.4209 33.3105 40.4209 33.5 40.4209C35.27 40.4219 37.0405 40.4074 38.8105 40.4279C40.3645 40.4459 41.7485 41.3639 41.9135 42.6149C42.0425 43.5944 41.9395 44.6044 41.9395 45.5989C30.624 45.5989 19.3375 45.5989 8.01505 45.5989C8.01505 44.7854 8.03155 44.0084 8.01105 43.2324C7.98455 42.2524 8.43105 41.5419 9.22155 41.0189C9.84555 40.6059 10.5435 40.4234 11.2895 40.4224C13.0425 40.4204 14.795 40.4214 16.548 40.4214C16.7315 40.4214 16.9155 40.4214 17.1005 40.4214C17.1005 38.3574 17.1005 36.3609 17.1005 34.3244C16.537 34.3244 16.0185 34.3244 15.5 34.3244C11.6995 34.3244 7.89855 34.3304 4.09805 34.3219C1.98605 34.3174 0.628547 33.2694 0.0810469 31.2569C0.0630469 31.1914 0.0260469 31.1309 -0.00195312 31.0679C-0.00195312 21.8874 -0.00195312 12.7069 -0.00195312 3.52643C0.504547 1.39443 2.07555 0.244929 4.67555 0.256929C17.808 0.319429 30.9405 0.285429 44.0735 0.285929C44.802 0.285929 45.531 0.275429 46.2595 0.291929C47.9025 0.329429 49.297 1.37793 49.8065 2.94043C49.87 3.13593 49.9345 3.33093 49.999 3.52643C49.999 8.68743 49.999 13.8494 49.999 19.0109Z" fill="#B5E1FA"/>
<path d="M49.9982 22.5449C48.4392 22.1379 46.8827 21.7199 45.3172 21.3394C45.1322 21.2944 44.8447 21.3994 44.6947 21.5344C44.2187 21.9629 43.7667 22.4219 43.3477 22.9059C43.2192 23.0544 43.1477 23.3379 43.1882 23.5304C43.3202 24.1549 43.5342 24.7619 43.6797 25.3844C43.7502 25.6874 43.9182 25.7984 44.1972 25.8679C45.7097 26.2444 47.2182 26.6359 48.8267 27.0479C48.6272 27.2494 48.4872 27.4114 48.3267 27.5494C45.3887 30.0754 40.8182 28.6014 39.9172 24.8259C39.8347 24.4794 39.6872 24.3534 39.3602 24.2699C36.0867 23.4339 32.8172 22.5824 29.5487 21.7264C29.2472 21.6474 29.0642 21.7054 28.8397 21.9444C27.4902 23.3824 25.8222 23.9639 23.8877 23.5339C21.9587 23.1049 20.6842 21.8939 20.0552 20.0189C20.0227 19.9224 20.0107 19.8194 19.9727 19.6429C20.3247 19.7234 20.6352 19.7879 20.9422 19.8659C22.1847 20.1814 23.4242 20.5104 24.6712 20.8074C24.8312 20.8454 25.0302 20.7259 25.2097 20.6734C25.2387 20.6649 25.2592 20.6264 25.2832 20.6014C25.7997 20.0649 26.5992 19.5979 26.7547 18.9724C26.9147 18.3264 26.4312 17.5294 26.2642 16.7904C26.1907 16.4669 26.0202 16.3504 25.7147 16.2749C24.2852 15.9224 22.8617 15.5444 21.4362 15.1744C21.3592 15.1544 21.2832 15.1294 21.1327 15.0849C22.0132 14.1164 23.0392 13.5549 24.2632 13.4019C27.0247 13.0569 29.3522 14.6604 30.0302 17.3564C30.1007 17.6374 30.2082 17.7899 30.5052 17.8654C33.7962 18.7034 37.0837 19.5539 40.3702 20.4079C40.6367 20.4769 40.8282 20.5014 41.0552 20.2564C43.8617 17.2309 48.5587 18.2234 49.8872 22.1109C49.9142 22.1894 49.9607 22.2614 49.9977 22.3364C49.9982 22.4059 49.9982 22.4754 49.9982 22.5449Z" fill="#B5E1FA"/>
<path d="M49.9992 25.6625C48.9367 25.374 47.8737 25.0855 46.8047 24.7955C46.8047 24.3495 46.8047 23.9245 46.8047 23.4595C47.8917 23.714 48.9457 23.961 49.9992 24.2075C49.9992 24.6925 49.9992 25.1775 49.9992 25.6625Z" fill="#B5E1FA"/>
<path d="M23.2561 31.3709C23.0161 30.7524 22.8036 30.1484 22.5421 29.5659C22.4641 29.3919 22.2726 29.2269 22.0931 29.1479C21.2241 28.7649 20.3451 28.4029 19.4596 28.0574C19.2906 27.9914 19.0571 27.9779 18.8906 28.0394C18.3881 28.2259 17.9111 28.4819 17.4076 28.6654C17.2566 28.7204 16.9891 28.6924 16.8811 28.5904C16.1866 27.9379 15.5111 27.2634 14.8566 26.5704C14.7531 26.4609 14.7156 26.1944 14.7711 26.0469C14.9906 25.4654 15.4576 24.9014 15.4541 24.3329C15.4506 23.7709 14.9901 23.2119 14.7321 22.6504C14.6816 22.5404 14.6146 22.4279 14.6036 22.3124C14.4981 21.1969 13.7771 20.6924 12.7741 20.4814C12.2046 20.3614 12.0086 20.0624 12.0581 19.4689C12.1226 18.6949 12.0866 17.9114 12.0676 17.1324C12.0601 16.8309 12.1291 16.6329 12.4481 16.5684C13.7036 16.3139 14.5336 15.6479 14.7306 14.3084C14.7766 13.9964 14.9406 13.6689 15.1401 13.4194C15.5756 12.8734 15.4601 12.3819 15.1846 11.8104C14.5956 10.5889 14.6196 10.5774 15.5656 9.63337C15.9831 9.21687 16.4106 8.81037 16.8126 8.37987C17.0041 8.17537 17.1611 8.10887 17.4351 8.24537C17.9771 8.51537 18.5401 8.93237 19.0951 8.93337C19.6396 8.93437 20.1821 8.48837 20.7306 8.25037C20.9841 8.14037 21.2436 8.00237 21.5116 7.97237C22.2821 7.88537 22.5891 7.40487 22.8176 6.72737C23.2111 5.55787 23.2471 5.56987 24.4986 5.57037C25.1236 5.57037 25.7486 5.58487 26.3731 5.56437C26.6671 5.55437 26.8066 5.65937 26.8976 5.93437C27.0556 6.40987 27.2276 6.88437 27.4466 7.33337C27.5376 7.51987 27.7406 7.69437 27.9346 7.78037C28.7871 8.15887 29.6506 8.51337 30.5206 8.85087C30.7026 8.92137 30.9511 8.94787 31.1281 8.88337C31.6311 8.69887 32.1046 8.43537 32.6076 8.25037C32.7536 8.19687 33.0166 8.24187 33.1271 8.34637C33.8086 8.98787 34.4736 9.64787 35.1136 10.3309C35.2271 10.4524 35.2756 10.7354 35.2186 10.8964C35.0411 11.4004 34.7796 11.8749 34.5931 12.3764C34.5321 12.5409 34.5526 12.7729 34.6191 12.9409C34.9681 13.8229 35.3326 14.6994 35.7191 15.5659C35.7981 15.7439 35.9641 15.9279 36.1371 16.0104C36.5736 16.2179 37.0311 16.3879 37.4921 16.5369C37.8216 16.6434 37.9796 16.8059 37.9326 17.1709C37.8976 17.4409 37.9256 17.7184 37.9256 18.0514C36.5136 17.6889 35.1671 17.2974 33.7991 17.0089C32.9541 16.8309 32.4981 16.4804 32.1761 15.6044C30.8576 12.0169 26.9636 10.0424 23.1856 10.9199C19.5006 11.7759 16.9171 15.2964 17.2716 19.0624C17.5711 22.2479 19.2336 24.5219 22.2146 25.6694C25.1966 26.8169 27.9431 26.2144 30.3281 24.0879C30.6101 23.8364 30.8341 23.7689 31.1981 23.8749C32.1456 24.1514 33.1031 24.3974 34.0666 24.6144C34.5121 24.7149 34.7736 24.9139 34.9496 25.3524C35.3566 26.3674 35.3831 26.3569 34.6211 27.1154C34.1296 27.6049 33.6511 28.1079 33.1381 28.5739C33.0236 28.6784 32.7626 28.7284 32.6171 28.6744C32.0336 28.4579 31.4686 27.9964 30.8971 27.9969C30.3331 27.9974 29.7701 28.4479 29.2051 28.6974C29.0466 28.7674 28.8866 28.8609 28.7201 28.8799C27.7646 28.9884 27.3441 29.5874 27.0826 30.4524C26.8001 31.3884 26.7456 31.3719 25.7681 31.3719C24.9346 31.3709 24.1026 31.3709 23.2561 31.3709Z" fill="#B5E1FA"/>
<rect x="3" y="30" width="12" height="2" fill="#0366A3"/>
<rect x="36" y="30" width="5" height="2" fill="#0366A3"/>
<rect x="4" y="35" width="40" height="12" fill="#0366A3"/>
<path d="M5 47C5.01659 46.4457 5.0438 45.8915 5.04845 45.3368C5.05841 44.0708 6.2013 43.2182 8.14728 43.0522C8.59196 43.0143 9.04526 43.0036 9.49459 43.0032C19.8311 43.0006 30.1676 42.9937 40.5041 43.0148C41.3802 43.0165 42.31 43.1223 43.1191 43.3343C44.3436 43.6555 44.9715 44.3138 44.9549 45.2052C44.9436 45.8033 44.9834 46.4014 45 47C31.6669 47 18.3331 47 5 47Z" fill="#B5E1FA"/>
<path d="M17 41C17 39.9757 17 39.007 17 38C22.3467 38 27.6546 38 33 38C33 39.0091 33 39.9779 33 41C27.673 41 22.3677 41 17 41Z" fill="#B5E1FA"/>
</svg>
