<svg width="50" height="50" viewBox="0 0 50 50" fill="none" xmlns="http://www.w3.org/2000/svg">
<path d="M25.3535 49.9998C22.301 48.2288 19.25 46.4558 16.196 44.6878C13.6385 43.2073 11.08 41.7288 8.51701 40.2578C8.19801 40.0748 7.99851 39.8748 8.00001 39.4678C8.01201 35.9143 8.00701 32.3608 8.00801 28.8078C8.00801 28.7423 8.02001 28.6773 8.03251 28.5443C8.22301 28.6438 8.38401 28.7203 8.53801 28.8093C12.7 31.2128 16.862 33.6163 21.023 36.0218C22.394 36.8143 23.5235 36.5128 24.3225 35.1338C24.685 34.5078 25.0455 33.8803 25.4535 33.1728C25.881 33.9088 26.259 34.5648 26.641 35.2183C27.3805 36.4833 28.5295 36.8018 29.7965 36.0723C33.9765 33.6663 38.153 31.2528 42.3305 28.8423C42.49 28.7503 42.6515 28.6623 42.873 28.5388C42.8855 28.7468 42.903 28.9043 42.903 29.0618C42.9045 32.4793 42.896 35.8968 42.9135 39.3138C42.916 39.7838 42.7565 40.0583 42.3535 40.2898C36.7715 43.4938 31.1965 46.7103 25.6205 49.9248C25.594 49.9403 25.578 49.9738 25.5575 49.9993C25.4895 49.9998 25.4215 49.9998 25.3535 49.9998Z" fill="#B5E1FA"/>
<path d="M25.2127 29.9109C24.3412 31.4169 23.5172 32.8414 22.6927 34.2659C22.3142 34.9194 22.2117 34.9484 21.5822 34.5849C16.2427 31.5009 10.9032 28.4164 5.56372 25.3324C4.89172 24.9444 4.86472 24.8509 5.25022 24.1839C6.08172 22.7449 6.91472 21.3064 7.77122 19.8259C8.00222 19.9539 8.20672 20.0629 8.40722 20.1784C13.8652 23.3289 19.3252 26.4764 24.7752 29.6409C25.1177 29.8399 25.3517 29.8279 25.6837 29.6354C31.1642 26.4559 36.6527 23.2894 42.1397 20.1209C42.2997 20.0284 42.4637 19.9439 42.6572 19.8389C42.7457 19.9759 42.8312 20.0979 42.9052 20.2259C43.6882 21.5784 44.4712 22.9314 45.2507 24.2854C45.5542 24.8124 45.5192 24.9679 45.0032 25.2659C39.5897 28.3944 34.1762 31.5199 28.7612 34.6429C28.2687 34.9269 28.1067 34.8794 27.8207 34.3864C27.0532 33.0639 26.2912 31.7384 25.5257 30.4149C25.4422 30.2714 25.3507 30.1329 25.2127 29.9109Z" fill="#B5E1FA"/>
<path d="M19.4336 19.0011L19.4336 19.0011C19.81 19.457 20.1863 19.9133 20.5626 20.3698C21.4515 21.4477 22.3409 22.5263 23.2335 23.6017C23.7186 24.1862 24.3312 24.5392 25.0022 24.5387C25.6733 24.5382 26.2864 24.1842 26.7728 23.5967L26.7728 23.5967C28.3596 21.6802 29.9426 19.7602 31.5252 17.8406C32.1483 17.0849 32.7712 16.3293 33.3944 15.574C33.4701 15.4823 33.546 15.3916 33.6243 15.2983L39.8114 18.8687C38.3708 19.7009 36.9301 20.5329 35.4893 21.3649C32.046 23.3534 28.6025 25.3419 25.1608 27.333L25.1608 27.333C25.1028 27.3666 25.064 27.3872 25.0329 27.4007C25.0077 27.4118 24.9951 27.4148 24.9912 27.4155C24.991 27.4155 24.9908 27.4154 24.9906 27.4154C24.9857 27.4142 24.9652 27.4088 24.9255 27.3858C20.9456 25.076 16.9601 22.7754 12.9751 20.4753C12.0482 19.9402 11.1213 19.4052 10.1945 18.8701L16.3765 15.2984C16.7208 15.7155 17.0635 16.1304 17.405 16.544C18.0843 17.3667 18.759 18.1839 19.4336 19.0011Z" fill="#034268" stroke="#B5E1FA"/>
<path d="M26 23.9567C26.5509 22.1429 27.1006 20.3285 27.654 18.5148C28.3637 16.1886 29.0838 13.8647 29.7793 11.5353C29.8936 11.1518 30.0616 10.9946 30.539 11.0001C32.8255 11.0263 35.1132 11.0118 37.4003 11.0118C37.5417 11.0118 37.6825 11.0118 38 11.0118C33.9669 15.4101 30.0282 19.7051 26.0902 24C26.0599 23.9856 26.0303 23.9711 26 23.9567Z" fill="#B5E1FA"/>
<path d="M23.9058 24C19.9612 19.6924 16.0165 15.3853 12 11C14.7409 11 17.3566 11 20.0486 11C21.362 15.2998 22.681 19.6181 24 23.9358C23.969 23.957 23.9374 23.9788 23.9058 24Z" fill="#B5E1FA"/>
<path d="M22 11C23.6891 11 25.3069 11 27 11C26.1805 14.6877 25.3702 18.3348 24.56 21.9819C24.5228 21.9879 24.4856 21.994 24.4484 22C23.636 18.3518 22.824 14.703 22 11Z" fill="#B5E1FA"/>
<path d="M14.9995 2C16.0276 4.398 16.9992 6.66429 18 9C15.9715 9 14.0239 9 12 9C12.9998 6.66623 13.9724 4.3967 14.9995 2Z" fill="#B5E1FA"/>
<path d="M38 9C35.2905 9 32.7082 9 30 9C31.3386 6.65695 32.6382 4.38193 33.999 2C35.3591 4.38064 36.6526 6.64334 38 9Z" fill="#B5E1FA"/>
<path d="M20.5018 7C19.3056 4.94996 18.1706 3.00635 17 1C19.349 1 21.6177 1 24 1C22.8347 2.99963 21.6956 4.9522 20.5018 7Z" fill="#B5E1FA"/>
<path d="M33 1C31.6498 3.02558 30.3532 4.9705 29.0003 7C27.6522 4.97778 26.3495 3.0239 25 1C27.7099 1 30.3017 1 33 1Z" fill="#B5E1FA"/>
<path d="M27 9C25.6486 9 24.3646 9 23 9C23.6637 7.00616 24.3097 5.06648 24.9978 3C25.6811 5.04733 26.3279 6.98635 27 9Z" fill="#B5E1FA"/>
</svg>
